ISO-10303-21;
HEADER;
/* Generated by software containing ST-Developer
 * from STEP Tools, Inc. (www.steptools.com) 
 */

FILE_DESCRIPTION(
/* description */ (''),
/* implementation_level */ '2;1');

FILE_NAME(
/* name */ 
'C:\\Users\\Harald\\Documents\\Projekte\\Wetterstation-2.0\\Inventor\\
Fuss.stp',
/* time_stamp */ '2024-07-23T23:49:34+02:00',
/* author */ ('Harald'),
/* organization */ (''),
/* preprocessor_version */ 'ST-DEVELOPER v18.1',
/* originating_system */ 'Autodesk Inventor 2021',
/* authorisation */ '');

FILE_SCHEMA (('AUTOMOTIVE_DESIGN { 1 0 10303 214 3 1 1 }'));
ENDSEC;

DATA;
#10=MECHANICAL_DESIGN_GEOMETRIC_PRESENTATION_REPRESENTATION('',(#594,#595,
#596,#597,#598,#599,#600,#601,#602,#603,#604,#605,#606,#607,#608,#609,#610,
#611,#612,#613,#614,#615,#616,#617,#618,#619,#620,#621,#622,#623,#624,#625,
#626),#1139);
#11=SHAPE_REPRESENTATION_RELATIONSHIP('SRR','None',#1146,#12);
#12=ADVANCED_BREP_SHAPE_REPRESENTATION('',(#13),#1138);
#13=MANIFOLD_SOLID_BREP('Volumenk\X\F6rper1',#659);
#14=TOROIDAL_SURFACE('',#737,3.25,2.);
#15=TOROIDAL_SURFACE('',#742,3.24999999999999,2.);
#16=B_SPLINE_CURVE_WITH_KNOTS('',3,(#993,#994,#995,#996,#997,#998),
 .UNSPECIFIED.,.F.,.F.,(4,2,4),(5.11637166196228,5.20754439253869,5.21280511923758),
 .UNSPECIFIED.);
#17=B_SPLINE_CURVE_WITH_KNOTS('',3,(#1026,#1027,#1028,#1029,#1030,#1031),
 .UNSPECIFIED.,.F.,.F.,(4,2,4),(3.63958353897189,3.64484426567118,3.73601699624759),
 .UNSPECIFIED.);
#18=CIRCLE('',#683,5.25);
#19=CIRCLE('',#684,5.25);
#20=CIRCLE('',#688,5.24999999999999);
#21=CIRCLE('',#689,5.24999999999999);
#22=CIRCLE('',#693,5.);
#23=CIRCLE('',#694,5.);
#24=CIRCLE('',#697,5.);
#25=CIRCLE('',#698,5.);
#26=CIRCLE('',#700,5.);
#27=CIRCLE('',#702,5.);
#28=CIRCLE('',#703,5.);
#29=CIRCLE('',#706,5.);
#30=CIRCLE('',#707,5.);
#31=CIRCLE('',#710,5.);
#32=CIRCLE('',#711,5.);
#33=CIRCLE('',#713,5.);
#34=CIRCLE('',#714,5.);
#35=CIRCLE('',#716,5.);
#36=CIRCLE('',#719,5.);
#37=CIRCLE('',#722,5.);
#38=CIRCLE('',#725,5.);
#39=CIRCLE('',#726,5.);
#40=CIRCLE('',#728,5.);
#41=CIRCLE('',#731,5.);
#42=CIRCLE('',#738,3.25);
#43=CIRCLE('',#739,2.);
#44=CIRCLE('',#740,3.25);
#45=CIRCLE('',#743,3.24999999999999);
#46=CIRCLE('',#744,2.);
#47=CIRCLE('',#745,3.24999999999999);
#48=ELLIPSE('',#681,5.84066308770093,5.25);
#49=ELLIPSE('',#682,5.84066308770093,5.25);
#50=ELLIPSE('',#685,5.84066308770093,5.25);
#51=ELLIPSE('',#687,5.84066308770092,5.24999999999999);
#52=ELLIPSE('',#690,5.84066308770092,5.24999999999999);
#53=ELLIPSE('',#691,5.84066308770093,5.25000000000001);
#54=CYLINDRICAL_SURFACE('',#680,5.25);
#55=CYLINDRICAL_SURFACE('',#686,5.25000000000001);
#56=CYLINDRICAL_SURFACE('',#692,5.);
#57=CYLINDRICAL_SURFACE('',#696,5.);
#58=CYLINDRICAL_SURFACE('',#701,5.);
#59=CYLINDRICAL_SURFACE('',#705,5.);
#60=CYLINDRICAL_SURFACE('',#709,5.);
#61=CYLINDRICAL_SURFACE('',#715,5.);
#62=CYLINDRICAL_SURFACE('',#718,5.);
#63=CYLINDRICAL_SURFACE('',#721,5.);
#64=CYLINDRICAL_SURFACE('',#724,5.);
#65=CYLINDRICAL_SURFACE('',#730,5.);
#66=FACE_OUTER_BOUND('',#98,.T.);
#67=FACE_OUTER_BOUND('',#99,.T.);
#68=FACE_OUTER_BOUND('',#100,.T.);
#69=FACE_OUTER_BOUND('',#101,.T.);
#70=FACE_OUTER_BOUND('',#102,.T.);
#71=FACE_OUTER_BOUND('',#103,.T.);
#72=FACE_OUTER_BOUND('',#104,.T.);
#73=FACE_OUTER_BOUND('',#105,.T.);
#74=FACE_OUTER_BOUND('',#106,.T.);
#75=FACE_OUTER_BOUND('',#107,.T.);
#76=FACE_OUTER_BOUND('',#108,.T.);
#77=FACE_OUTER_BOUND('',#109,.T.);
#78=FACE_OUTER_BOUND('',#110,.T.);
#79=FACE_OUTER_BOUND('',#111,.T.);
#80=FACE_OUTER_BOUND('',#112,.T.);
#81=FACE_OUTER_BOUND('',#113,.T.);
#82=FACE_OUTER_BOUND('',#114,.T.);
#83=FACE_OUTER_BOUND('',#115,.T.);
#84=FACE_OUTER_BOUND('',#116,.T.);
#85=FACE_OUTER_BOUND('',#117,.T.);
#86=FACE_OUTER_BOUND('',#118,.T.);
#87=FACE_OUTER_BOUND('',#119,.T.);
#88=FACE_OUTER_BOUND('',#120,.T.);
#89=FACE_OUTER_BOUND('',#121,.T.);
#90=FACE_OUTER_BOUND('',#122,.T.);
#91=FACE_OUTER_BOUND('',#123,.T.);
#92=FACE_OUTER_BOUND('',#124,.T.);
#93=FACE_OUTER_BOUND('',#125,.T.);
#94=FACE_OUTER_BOUND('',#126,.T.);
#95=FACE_OUTER_BOUND('',#127,.T.);
#96=FACE_OUTER_BOUND('',#128,.T.);
#97=FACE_OUTER_BOUND('',#129,.T.);
#98=EDGE_LOOP('',(#392,#393,#394,#395));
#99=EDGE_LOOP('',(#396,#397,#398,#399,#400,#401,#402,#403,#404));
#100=EDGE_LOOP('',(#405,#406,#407,#408,#409,#410,#411,#412,#413));
#101=EDGE_LOOP('',(#414,#415,#416,#417));
#102=EDGE_LOOP('',(#418,#419,#420,#421));
#103=EDGE_LOOP('',(#422,#423,#424,#425,#426));
#104=EDGE_LOOP('',(#427,#428,#429,#430,#431,#432));
#105=EDGE_LOOP('',(#433,#434,#435,#436,#437));
#106=EDGE_LOOP('',(#438,#439,#440,#441));
#107=EDGE_LOOP('',(#442,#443,#444,#445));
#108=EDGE_LOOP('',(#446,#447,#448,#449));
#109=EDGE_LOOP('',(#450,#451,#452,#453,#454));
#110=EDGE_LOOP('',(#455,#456,#457,#458,#459,#460));
#111=EDGE_LOOP('',(#461,#462,#463,#464,#465));
#112=EDGE_LOOP('',(#466,#467,#468,#469,#470,#471,#472,#473,#474,#475,#476,
#477,#478,#479));
#113=EDGE_LOOP('',(#480,#481,#482,#483));
#114=EDGE_LOOP('',(#484,#485,#486,#487));
#115=EDGE_LOOP('',(#488,#489,#490,#491));
#116=EDGE_LOOP('',(#492,#493,#494,#495,#496,#497));
#117=EDGE_LOOP('',(#498,#499,#500,#501));
#118=EDGE_LOOP('',(#502,#503,#504,#505,#506,#507));
#119=EDGE_LOOP('',(#508,#509,#510,#511));
#120=EDGE_LOOP('',(#512,#513,#514,#515));
#121=EDGE_LOOP('',(#516,#517,#518,#519,#520,#521,#522));
#122=EDGE_LOOP('',(#523,#524,#525,#526,#527,#528,#529));
#123=EDGE_LOOP('',(#530,#531,#532,#533,#534,#535));
#124=EDGE_LOOP('',(#536,#537,#538,#539,#540,#541));
#125=EDGE_LOOP('',(#542,#543,#544,#545,#546,#547,#548,#549,#550,#551,#552,
#553,#554,#555,#556,#557,#558,#559));
#126=EDGE_LOOP('',(#560,#561,#562,#563,#564,#565));
#127=EDGE_LOOP('',(#566,#567));
#128=EDGE_LOOP('',(#568,#569,#570,#571,#572,#573));
#129=EDGE_LOOP('',(#574,#575));
#130=LINE('',#943,#184);
#131=LINE('',#945,#185);
#132=LINE('',#947,#186);
#133=LINE('',#948,#187);
#134=LINE('',#955,#188);
#135=LINE('',#961,#189);
#136=LINE('',#965,#190);
#137=LINE('',#969,#191);
#138=LINE('',#976,#192);
#139=LINE('',#982,#193);
#140=LINE('',#986,#194);
#141=LINE('',#988,#195);
#142=LINE('',#989,#196);
#143=LINE('',#1000,#197);
#144=LINE('',#1004,#198);
#145=LINE('',#1010,#199);
#146=LINE('',#1012,#200);
#147=LINE('',#1014,#201);
#148=LINE('',#1015,#202);
#149=LINE('',#1021,#203);
#150=LINE('',#1025,#204);
#151=LINE('',#1033,#205);
#152=LINE('',#1034,#206);
#153=LINE('',#1039,#207);
#154=LINE('',#1042,#208);
#155=LINE('',#1043,#209);
#156=LINE('',#1048,#210);
#157=LINE('',#1051,#211);
#158=LINE('',#1054,#212);
#159=LINE('',#1058,#213);
#160=LINE('',#1061,#214);
#161=LINE('',#1064,#215);
#162=LINE('',#1067,#216);
#163=LINE('',#1069,#217);
#164=LINE('',#1070,#218);
#165=LINE('',#1073,#219);
#166=LINE('',#1076,#220);
#167=LINE('',#1079,#221);
#168=LINE('',#1080,#222);
#169=LINE('',#1084,#223);
#170=LINE('',#1087,#224);
#171=LINE('',#1088,#225);
#172=LINE('',#1094,#226);
#173=LINE('',#1097,#227);
#174=LINE('',#1099,#228);
#175=LINE('',#1101,#229);
#176=LINE('',#1105,#230);
#177=LINE('',#1106,#231);
#178=LINE('',#1111,#232);
#179=LINE('',#1112,#233);
#180=LINE('',#1115,#234);
#181=LINE('',#1116,#235);
#182=LINE('',#1118,#236);
#183=LINE('',#1120,#237);
#184=VECTOR('',#751,10.);
#185=VECTOR('',#752,10.);
#186=VECTOR('',#753,10.);
#187=VECTOR('',#754,10.);
#188=VECTOR('',#761,5.25);
#189=VECTOR('',#768,10.);
#190=VECTOR('',#771,10.);
#191=VECTOR('',#774,5.25000000000001);
#192=VECTOR('',#781,10.);
#193=VECTOR('',#788,10.);
#194=VECTOR('',#793,10.);
#195=VECTOR('',#794,10.);
#196=VECTOR('',#795,10.);
#197=VECTOR('',#798,10.);
#198=VECTOR('',#801,10.);
#199=VECTOR('',#808,10.);
#200=VECTOR('',#809,10.);
#201=VECTOR('',#810,10.);
#202=VECTOR('',#811,10.);
#203=VECTOR('',#816,10.);
#204=VECTOR('',#819,10.);
#205=VECTOR('',#822,10.);
#206=VECTOR('',#823,10.);
#207=VECTOR('',#828,10.);
#208=VECTOR('',#833,10.);
#209=VECTOR('',#834,10.);
#210=VECTOR('',#839,10.);
#211=VECTOR('',#842,10.);
#212=VECTOR('',#845,10.);
#213=VECTOR('',#848,10.);
#214=VECTOR('',#851,10.);
#215=VECTOR('',#854,10.);
#216=VECTOR('',#857,10.);
#217=VECTOR('',#860,10.);
#218=VECTOR('',#861,10.);
#219=VECTOR('',#864,10.);
#220=VECTOR('',#867,10.);
#221=VECTOR('',#870,10.);
#222=VECTOR('',#871,10.);
#223=VECTOR('',#876,10.);
#224=VECTOR('',#879,10.);
#225=VECTOR('',#880,10.);
#226=VECTOR('',#885,10.);
#227=VECTOR('',#888,10.);
#228=VECTOR('',#891,10.);
#229=VECTOR('',#892,10.);
#230=VECTOR('',#897,10.);
#231=VECTOR('',#898,10.);
#232=VECTOR('',#905,10.);
#233=VECTOR('',#906,10.);
#234=VECTOR('',#909,10.);
#235=VECTOR('',#910,10.);
#236=VECTOR('',#913,10.);
#237=VECTOR('',#916,10.);
#238=VERTEX_POINT('',#941);
#239=VERTEX_POINT('',#942);
#240=VERTEX_POINT('',#944);
#241=VERTEX_POINT('',#946);
#242=VERTEX_POINT('',#950);
#243=VERTEX_POINT('',#952);
#244=VERTEX_POINT('',#954);
#245=VERTEX_POINT('',#956);
#246=VERTEX_POINT('',#959);
#247=VERTEX_POINT('',#963);
#248=VERTEX_POINT('',#964);
#249=VERTEX_POINT('',#966);
#250=VERTEX_POINT('',#968);
#251=VERTEX_POINT('',#970);
#252=VERTEX_POINT('',#973);
#253=VERTEX_POINT('',#975);
#254=VERTEX_POINT('',#979);
#255=VERTEX_POINT('',#981);
#256=VERTEX_POINT('',#985);
#257=VERTEX_POINT('',#987);
#258=VERTEX_POINT('',#991);
#259=VERTEX_POINT('',#992);
#260=VERTEX_POINT('',#999);
#261=VERTEX_POINT('',#1001);
#262=VERTEX_POINT('',#1003);
#263=VERTEX_POINT('',#1007);
#264=VERTEX_POINT('',#1009);
#265=VERTEX_POINT('',#1011);
#266=VERTEX_POINT('',#1013);
#267=VERTEX_POINT('',#1017);
#268=VERTEX_POINT('',#1018);
#269=VERTEX_POINT('',#1020);
#270=VERTEX_POINT('',#1022);
#271=VERTEX_POINT('',#1024);
#272=VERTEX_POINT('',#1036);
#273=VERTEX_POINT('',#1038);
#274=VERTEX_POINT('',#1045);
#275=VERTEX_POINT('',#1047);
#276=VERTEX_POINT('',#1049);
#277=VERTEX_POINT('',#1053);
#278=VERTEX_POINT('',#1055);
#279=VERTEX_POINT('',#1057);
#280=VERTEX_POINT('',#1059);
#281=VERTEX_POINT('',#1063);
#282=VERTEX_POINT('',#1065);
#283=VERTEX_POINT('',#1072);
#284=VERTEX_POINT('',#1074);
#285=VERTEX_POINT('',#1078);
#286=VERTEX_POINT('',#1082);
#287=VERTEX_POINT('',#1086);
#288=VERTEX_POINT('',#1090);
#289=VERTEX_POINT('',#1091);
#290=VERTEX_POINT('',#1093);
#291=VERTEX_POINT('',#1095);
#292=VERTEX_POINT('',#1100);
#293=VERTEX_POINT('',#1104);
#294=VERTEX_POINT('',#1110);
#295=VERTEX_POINT('',#1114);
#296=VERTEX_POINT('',#1123);
#297=VERTEX_POINT('',#1124);
#298=VERTEX_POINT('',#1130);
#299=VERTEX_POINT('',#1131);
#300=EDGE_CURVE('',#238,#239,#130,.T.);
#301=EDGE_CURVE('',#239,#240,#131,.T.);
#302=EDGE_CURVE('',#241,#240,#132,.T.);
#303=EDGE_CURVE('',#238,#241,#133,.T.);
#304=EDGE_CURVE('',#239,#242,#48,.T.);
#305=EDGE_CURVE('',#243,#238,#49,.T.);
#306=EDGE_CURVE('',#243,#244,#134,.T.);
#307=EDGE_CURVE('',#245,#244,#18,.T.);
#308=EDGE_CURVE('',#244,#245,#19,.T.);
#309=EDGE_CURVE('',#246,#243,#50,.T.);
#310=EDGE_CURVE('',#242,#246,#135,.T.);
#311=EDGE_CURVE('',#247,#248,#136,.T.);
#312=EDGE_CURVE('',#249,#247,#51,.T.);
#313=EDGE_CURVE('',#249,#250,#137,.T.);
#314=EDGE_CURVE('',#251,#250,#20,.T.);
#315=EDGE_CURVE('',#250,#251,#21,.T.);
#316=EDGE_CURVE('',#252,#249,#52,.T.);
#317=EDGE_CURVE('',#253,#252,#138,.T.);
#318=EDGE_CURVE('',#248,#253,#53,.T.);
#319=EDGE_CURVE('',#240,#254,#22,.T.);
#320=EDGE_CURVE('',#254,#255,#139,.T.);
#321=EDGE_CURVE('',#255,#241,#23,.T.);
#322=EDGE_CURVE('',#254,#256,#140,.T.);
#323=EDGE_CURVE('',#257,#256,#141,.T.);
#324=EDGE_CURVE('',#255,#257,#142,.T.);
#325=EDGE_CURVE('',#258,#259,#16,.F.);
#326=EDGE_CURVE('',#258,#260,#143,.T.);
#327=EDGE_CURVE('',#260,#261,#24,.T.);
#328=EDGE_CURVE('',#261,#262,#144,.T.);
#329=EDGE_CURVE('',#259,#262,#25,.F.);
#330=EDGE_CURVE('',#263,#258,#26,.T.);
#331=EDGE_CURVE('',#263,#264,#145,.T.);
#332=EDGE_CURVE('',#265,#264,#146,.T.);
#333=EDGE_CURVE('',#265,#266,#147,.T.);
#334=EDGE_CURVE('',#260,#266,#148,.T.);
#335=EDGE_CURVE('',#267,#268,#27,.T.);
#336=EDGE_CURVE('',#268,#269,#149,.T.);
#337=EDGE_CURVE('',#269,#270,#28,.T.);
#338=EDGE_CURVE('',#270,#271,#150,.T.);
#339=EDGE_CURVE('',#271,#267,#17,.T.);
#340=EDGE_CURVE('',#269,#261,#151,.T.);
#341=EDGE_CURVE('',#268,#262,#152,.T.);
#342=EDGE_CURVE('',#256,#272,#29,.T.);
#343=EDGE_CURVE('',#272,#273,#153,.T.);
#344=EDGE_CURVE('',#273,#257,#30,.T.);
#345=EDGE_CURVE('',#273,#252,#154,.T.);
#346=EDGE_CURVE('',#272,#253,#155,.T.);
#347=EDGE_CURVE('',#271,#274,#31,.T.);
#348=EDGE_CURVE('',#274,#275,#156,.T.);
#349=EDGE_CURVE('',#275,#276,#32,.T.);
#350=EDGE_CURVE('',#276,#267,#157,.T.);
#351=EDGE_CURVE('',#274,#277,#158,.T.);
#352=EDGE_CURVE('',#278,#277,#33,.T.);
#353=EDGE_CURVE('',#279,#278,#159,.T.);
#354=EDGE_CURVE('',#280,#279,#34,.T.);
#355=EDGE_CURVE('',#275,#280,#160,.T.);
#356=EDGE_CURVE('',#259,#281,#161,.T.);
#357=EDGE_CURVE('',#281,#282,#35,.T.);
#358=EDGE_CURVE('',#282,#263,#162,.T.);
#359=EDGE_CURVE('',#248,#276,#163,.T.);
#360=EDGE_CURVE('',#281,#242,#164,.T.);
#361=EDGE_CURVE('',#279,#283,#165,.T.);
#362=EDGE_CURVE('',#283,#284,#36,.T.);
#363=EDGE_CURVE('',#284,#280,#166,.T.);
#364=EDGE_CURVE('',#285,#278,#167,.T.);
#365=EDGE_CURVE('',#285,#283,#168,.T.);
#366=EDGE_CURVE('',#286,#285,#37,.T.);
#367=EDGE_CURVE('',#277,#286,#169,.T.);
#368=EDGE_CURVE('',#287,#270,#170,.T.);
#369=EDGE_CURVE('',#286,#287,#171,.T.);
#370=EDGE_CURVE('',#288,#289,#38,.T.);
#371=EDGE_CURVE('',#289,#290,#172,.T.);
#372=EDGE_CURVE('',#290,#291,#39,.T.);
#373=EDGE_CURVE('',#291,#288,#173,.T.);
#374=EDGE_CURVE('',#282,#291,#174,.T.);
#375=EDGE_CURVE('',#292,#290,#175,.T.);
#376=EDGE_CURVE('',#264,#292,#40,.T.);
#377=EDGE_CURVE('',#289,#293,#176,.T.);
#378=EDGE_CURVE('',#292,#293,#177,.T.);
#379=EDGE_CURVE('',#293,#265,#41,.T.);
#380=EDGE_CURVE('',#284,#294,#178,.T.);
#381=EDGE_CURVE('',#247,#294,#179,.T.);
#382=EDGE_CURVE('',#295,#246,#180,.T.);
#383=EDGE_CURVE('',#288,#295,#181,.T.);
#384=EDGE_CURVE('',#266,#295,#182,.T.);
#385=EDGE_CURVE('',#294,#287,#183,.T.);
#386=EDGE_CURVE('',#296,#297,#42,.T.);
#387=EDGE_CURVE('',#297,#245,#43,.T.);
#388=EDGE_CURVE('',#297,#296,#44,.T.);
#389=EDGE_CURVE('',#298,#299,#45,.T.);
#390=EDGE_CURVE('',#299,#251,#46,.T.);
#391=EDGE_CURVE('',#299,#298,#47,.T.);
#392=ORIENTED_EDGE('',*,*,#300,.T.);
#393=ORIENTED_EDGE('',*,*,#301,.T.);
#394=ORIENTED_EDGE('',*,*,#302,.F.);
#395=ORIENTED_EDGE('',*,*,#303,.F.);
#396=ORIENTED_EDGE('',*,*,#304,.F.);
#397=ORIENTED_EDGE('',*,*,#300,.F.);
#398=ORIENTED_EDGE('',*,*,#305,.F.);
#399=ORIENTED_EDGE('',*,*,#306,.T.);
#400=ORIENTED_EDGE('',*,*,#307,.F.);
#401=ORIENTED_EDGE('',*,*,#308,.F.);
#402=ORIENTED_EDGE('',*,*,#306,.F.);
#403=ORIENTED_EDGE('',*,*,#309,.F.);
#404=ORIENTED_EDGE('',*,*,#310,.F.);
#405=ORIENTED_EDGE('',*,*,#311,.F.);
#406=ORIENTED_EDGE('',*,*,#312,.F.);
#407=ORIENTED_EDGE('',*,*,#313,.T.);
#408=ORIENTED_EDGE('',*,*,#314,.F.);
#409=ORIENTED_EDGE('',*,*,#315,.F.);
#410=ORIENTED_EDGE('',*,*,#313,.F.);
#411=ORIENTED_EDGE('',*,*,#316,.F.);
#412=ORIENTED_EDGE('',*,*,#317,.F.);
#413=ORIENTED_EDGE('',*,*,#318,.F.);
#414=ORIENTED_EDGE('',*,*,#319,.T.);
#415=ORIENTED_EDGE('',*,*,#320,.T.);
#416=ORIENTED_EDGE('',*,*,#321,.T.);
#417=ORIENTED_EDGE('',*,*,#302,.T.);
#418=ORIENTED_EDGE('',*,*,#320,.F.);
#419=ORIENTED_EDGE('',*,*,#322,.T.);
#420=ORIENTED_EDGE('',*,*,#323,.F.);
#421=ORIENTED_EDGE('',*,*,#324,.F.);
#422=ORIENTED_EDGE('',*,*,#325,.F.);
#423=ORIENTED_EDGE('',*,*,#326,.T.);
#424=ORIENTED_EDGE('',*,*,#327,.T.);
#425=ORIENTED_EDGE('',*,*,#328,.T.);
#426=ORIENTED_EDGE('',*,*,#329,.F.);
#427=ORIENTED_EDGE('',*,*,#326,.F.);
#428=ORIENTED_EDGE('',*,*,#330,.F.);
#429=ORIENTED_EDGE('',*,*,#331,.T.);
#430=ORIENTED_EDGE('',*,*,#332,.F.);
#431=ORIENTED_EDGE('',*,*,#333,.T.);
#432=ORIENTED_EDGE('',*,*,#334,.F.);
#433=ORIENTED_EDGE('',*,*,#335,.T.);
#434=ORIENTED_EDGE('',*,*,#336,.T.);
#435=ORIENTED_EDGE('',*,*,#337,.T.);
#436=ORIENTED_EDGE('',*,*,#338,.T.);
#437=ORIENTED_EDGE('',*,*,#339,.T.);
#438=ORIENTED_EDGE('',*,*,#328,.F.);
#439=ORIENTED_EDGE('',*,*,#340,.F.);
#440=ORIENTED_EDGE('',*,*,#336,.F.);
#441=ORIENTED_EDGE('',*,*,#341,.T.);
#442=ORIENTED_EDGE('',*,*,#342,.T.);
#443=ORIENTED_EDGE('',*,*,#343,.T.);
#444=ORIENTED_EDGE('',*,*,#344,.T.);
#445=ORIENTED_EDGE('',*,*,#323,.T.);
#446=ORIENTED_EDGE('',*,*,#317,.T.);
#447=ORIENTED_EDGE('',*,*,#345,.F.);
#448=ORIENTED_EDGE('',*,*,#343,.F.);
#449=ORIENTED_EDGE('',*,*,#346,.T.);
#450=ORIENTED_EDGE('',*,*,#347,.T.);
#451=ORIENTED_EDGE('',*,*,#348,.T.);
#452=ORIENTED_EDGE('',*,*,#349,.T.);
#453=ORIENTED_EDGE('',*,*,#350,.T.);
#454=ORIENTED_EDGE('',*,*,#339,.F.);
#455=ORIENTED_EDGE('',*,*,#348,.F.);
#456=ORIENTED_EDGE('',*,*,#351,.T.);
#457=ORIENTED_EDGE('',*,*,#352,.F.);
#458=ORIENTED_EDGE('',*,*,#353,.F.);
#459=ORIENTED_EDGE('',*,*,#354,.F.);
#460=ORIENTED_EDGE('',*,*,#355,.F.);
#461=ORIENTED_EDGE('',*,*,#330,.T.);
#462=ORIENTED_EDGE('',*,*,#325,.T.);
#463=ORIENTED_EDGE('',*,*,#356,.T.);
#464=ORIENTED_EDGE('',*,*,#357,.T.);
#465=ORIENTED_EDGE('',*,*,#358,.T.);
#466=ORIENTED_EDGE('',*,*,#350,.F.);
#467=ORIENTED_EDGE('',*,*,#359,.F.);
#468=ORIENTED_EDGE('',*,*,#318,.T.);
#469=ORIENTED_EDGE('',*,*,#346,.F.);
#470=ORIENTED_EDGE('',*,*,#342,.F.);
#471=ORIENTED_EDGE('',*,*,#322,.F.);
#472=ORIENTED_EDGE('',*,*,#319,.F.);
#473=ORIENTED_EDGE('',*,*,#301,.F.);
#474=ORIENTED_EDGE('',*,*,#304,.T.);
#475=ORIENTED_EDGE('',*,*,#360,.F.);
#476=ORIENTED_EDGE('',*,*,#356,.F.);
#477=ORIENTED_EDGE('',*,*,#329,.T.);
#478=ORIENTED_EDGE('',*,*,#341,.F.);
#479=ORIENTED_EDGE('',*,*,#335,.F.);
#480=ORIENTED_EDGE('',*,*,#354,.T.);
#481=ORIENTED_EDGE('',*,*,#361,.T.);
#482=ORIENTED_EDGE('',*,*,#362,.T.);
#483=ORIENTED_EDGE('',*,*,#363,.T.);
#484=ORIENTED_EDGE('',*,*,#361,.F.);
#485=ORIENTED_EDGE('',*,*,#353,.T.);
#486=ORIENTED_EDGE('',*,*,#364,.F.);
#487=ORIENTED_EDGE('',*,*,#365,.T.);
#488=ORIENTED_EDGE('',*,*,#366,.T.);
#489=ORIENTED_EDGE('',*,*,#364,.T.);
#490=ORIENTED_EDGE('',*,*,#352,.T.);
#491=ORIENTED_EDGE('',*,*,#367,.T.);
#492=ORIENTED_EDGE('',*,*,#338,.F.);
#493=ORIENTED_EDGE('',*,*,#368,.F.);
#494=ORIENTED_EDGE('',*,*,#369,.F.);
#495=ORIENTED_EDGE('',*,*,#367,.F.);
#496=ORIENTED_EDGE('',*,*,#351,.F.);
#497=ORIENTED_EDGE('',*,*,#347,.F.);
#498=ORIENTED_EDGE('',*,*,#370,.T.);
#499=ORIENTED_EDGE('',*,*,#371,.T.);
#500=ORIENTED_EDGE('',*,*,#372,.T.);
#501=ORIENTED_EDGE('',*,*,#373,.T.);
#502=ORIENTED_EDGE('',*,*,#358,.F.);
#503=ORIENTED_EDGE('',*,*,#374,.T.);
#504=ORIENTED_EDGE('',*,*,#372,.F.);
#505=ORIENTED_EDGE('',*,*,#375,.F.);
#506=ORIENTED_EDGE('',*,*,#376,.F.);
#507=ORIENTED_EDGE('',*,*,#331,.F.);
#508=ORIENTED_EDGE('',*,*,#371,.F.);
#509=ORIENTED_EDGE('',*,*,#377,.T.);
#510=ORIENTED_EDGE('',*,*,#378,.F.);
#511=ORIENTED_EDGE('',*,*,#375,.T.);
#512=ORIENTED_EDGE('',*,*,#376,.T.);
#513=ORIENTED_EDGE('',*,*,#378,.T.);
#514=ORIENTED_EDGE('',*,*,#379,.T.);
#515=ORIENTED_EDGE('',*,*,#332,.T.);
#516=ORIENTED_EDGE('',*,*,#311,.T.);
#517=ORIENTED_EDGE('',*,*,#359,.T.);
#518=ORIENTED_EDGE('',*,*,#349,.F.);
#519=ORIENTED_EDGE('',*,*,#355,.T.);
#520=ORIENTED_EDGE('',*,*,#363,.F.);
#521=ORIENTED_EDGE('',*,*,#380,.T.);
#522=ORIENTED_EDGE('',*,*,#381,.F.);
#523=ORIENTED_EDGE('',*,*,#310,.T.);
#524=ORIENTED_EDGE('',*,*,#382,.F.);
#525=ORIENTED_EDGE('',*,*,#383,.F.);
#526=ORIENTED_EDGE('',*,*,#373,.F.);
#527=ORIENTED_EDGE('',*,*,#374,.F.);
#528=ORIENTED_EDGE('',*,*,#357,.F.);
#529=ORIENTED_EDGE('',*,*,#360,.T.);
#530=ORIENTED_EDGE('',*,*,#370,.F.);
#531=ORIENTED_EDGE('',*,*,#383,.T.);
#532=ORIENTED_EDGE('',*,*,#384,.F.);
#533=ORIENTED_EDGE('',*,*,#333,.F.);
#534=ORIENTED_EDGE('',*,*,#379,.F.);
#535=ORIENTED_EDGE('',*,*,#377,.F.);
#536=ORIENTED_EDGE('',*,*,#362,.F.);
#537=ORIENTED_EDGE('',*,*,#365,.F.);
#538=ORIENTED_EDGE('',*,*,#366,.F.);
#539=ORIENTED_EDGE('',*,*,#369,.T.);
#540=ORIENTED_EDGE('',*,*,#385,.F.);
#541=ORIENTED_EDGE('',*,*,#380,.F.);
#542=ORIENTED_EDGE('',*,*,#309,.T.);
#543=ORIENTED_EDGE('',*,*,#305,.T.);
#544=ORIENTED_EDGE('',*,*,#303,.T.);
#545=ORIENTED_EDGE('',*,*,#321,.F.);
#546=ORIENTED_EDGE('',*,*,#324,.T.);
#547=ORIENTED_EDGE('',*,*,#344,.F.);
#548=ORIENTED_EDGE('',*,*,#345,.T.);
#549=ORIENTED_EDGE('',*,*,#316,.T.);
#550=ORIENTED_EDGE('',*,*,#312,.T.);
#551=ORIENTED_EDGE('',*,*,#381,.T.);
#552=ORIENTED_EDGE('',*,*,#385,.T.);
#553=ORIENTED_EDGE('',*,*,#368,.T.);
#554=ORIENTED_EDGE('',*,*,#337,.F.);
#555=ORIENTED_EDGE('',*,*,#340,.T.);
#556=ORIENTED_EDGE('',*,*,#327,.F.);
#557=ORIENTED_EDGE('',*,*,#334,.T.);
#558=ORIENTED_EDGE('',*,*,#384,.T.);
#559=ORIENTED_EDGE('',*,*,#382,.T.);
#560=ORIENTED_EDGE('',*,*,#386,.T.);
#561=ORIENTED_EDGE('',*,*,#387,.T.);
#562=ORIENTED_EDGE('',*,*,#307,.T.);
#563=ORIENTED_EDGE('',*,*,#308,.T.);
#564=ORIENTED_EDGE('',*,*,#387,.F.);
#565=ORIENTED_EDGE('',*,*,#388,.T.);
#566=ORIENTED_EDGE('',*,*,#386,.F.);
#567=ORIENTED_EDGE('',*,*,#388,.F.);
#568=ORIENTED_EDGE('',*,*,#389,.T.);
#569=ORIENTED_EDGE('',*,*,#390,.T.);
#570=ORIENTED_EDGE('',*,*,#314,.T.);
#571=ORIENTED_EDGE('',*,*,#315,.T.);
#572=ORIENTED_EDGE('',*,*,#390,.F.);
#573=ORIENTED_EDGE('',*,*,#391,.T.);
#574=ORIENTED_EDGE('',*,*,#389,.F.);
#575=ORIENTED_EDGE('',*,*,#391,.F.);
#576=PLANE('',#679);
#577=PLANE('',#695);
#578=PLANE('',#699);
#579=PLANE('',#704);
#580=PLANE('',#708);
#581=PLANE('',#712);
#582=PLANE('',#717);
#583=PLANE('',#720);
#584=PLANE('',#723);
#585=PLANE('',#727);
#586=PLANE('',#729);
#587=PLANE('',#732);
#588=PLANE('',#733);
#589=PLANE('',#734);
#590=PLANE('',#735);
#591=PLANE('',#736);
#592=PLANE('',#741);
#593=PLANE('',#746);
#594=STYLED_ITEM('',(#1156),#627);
#595=STYLED_ITEM('',(#1156),#628);
#596=STYLED_ITEM('',(#1156),#629);
#597=STYLED_ITEM('',(#1156),#630);
#598=STYLED_ITEM('',(#1156),#631);
#599=STYLED_ITEM('',(#1156),#632);
#600=STYLED_ITEM('',(#1156),#633);
#601=STYLED_ITEM('',(#1156),#634);
#602=STYLED_ITEM('',(#1156),#635);
#603=STYLED_ITEM('',(#1156),#636);
#604=STYLED_ITEM('',(#1156),#637);
#605=STYLED_ITEM('',(#1156),#638);
#606=STYLED_ITEM('',(#1156),#639);
#607=STYLED_ITEM('',(#1156),#640);
#608=STYLED_ITEM('',(#1156),#641);
#609=STYLED_ITEM('',(#1156),#642);
#610=STYLED_ITEM('',(#1156),#643);
#611=STYLED_ITEM('',(#1156),#644);
#612=STYLED_ITEM('',(#1156),#645);
#613=STYLED_ITEM('',(#1156),#646);
#614=STYLED_ITEM('',(#1156),#647);
#615=STYLED_ITEM('',(#1156),#648);
#616=STYLED_ITEM('',(#1156),#649);
#617=STYLED_ITEM('',(#1156),#650);
#618=STYLED_ITEM('',(#1156),#651);
#619=STYLED_ITEM('',(#1156),#652);
#620=STYLED_ITEM('',(#1156),#653);
#621=STYLED_ITEM('',(#1156),#654);
#622=STYLED_ITEM('',(#1156),#655);
#623=STYLED_ITEM('',(#1156),#656);
#624=STYLED_ITEM('',(#1156),#657);
#625=STYLED_ITEM('',(#1156),#658);
#626=STYLED_ITEM('',(#1155),#13);
#627=ADVANCED_FACE('',(#66),#576,.T.);
#628=ADVANCED_FACE('',(#67),#54,.T.);
#629=ADVANCED_FACE('',(#68),#55,.T.);
#630=ADVANCED_FACE('',(#69),#56,.F.);
#631=ADVANCED_FACE('',(#70),#577,.T.);
#632=ADVANCED_FACE('',(#71),#57,.F.);
#633=ADVANCED_FACE('',(#72),#578,.T.);
#634=ADVANCED_FACE('',(#73),#58,.F.);
#635=ADVANCED_FACE('',(#74),#579,.T.);
#636=ADVANCED_FACE('',(#75),#59,.F.);
#637=ADVANCED_FACE('',(#76),#580,.T.);
#638=ADVANCED_FACE('',(#77),#60,.F.);
#639=ADVANCED_FACE('',(#78),#581,.T.);
#640=ADVANCED_FACE('',(#79),#61,.F.);
#641=ADVANCED_FACE('',(#80),#582,.F.);
#642=ADVANCED_FACE('',(#81),#62,.T.);
#643=ADVANCED_FACE('',(#82),#583,.T.);
#644=ADVANCED_FACE('',(#83),#63,.T.);
#645=ADVANCED_FACE('',(#84),#584,.T.);
#646=ADVANCED_FACE('',(#85),#64,.T.);
#647=ADVANCED_FACE('',(#86),#585,.T.);
#648=ADVANCED_FACE('',(#87),#586,.T.);
#649=ADVANCED_FACE('',(#88),#65,.T.);
#650=ADVANCED_FACE('',(#89),#587,.T.);
#651=ADVANCED_FACE('',(#90),#588,.T.);
#652=ADVANCED_FACE('',(#91),#589,.T.);
#653=ADVANCED_FACE('',(#92),#590,.T.);
#654=ADVANCED_FACE('',(#93),#591,.T.);
#655=ADVANCED_FACE('',(#94),#14,.T.);
#656=ADVANCED_FACE('',(#95),#592,.T.);
#657=ADVANCED_FACE('',(#96),#15,.T.);
#658=ADVANCED_FACE('',(#97),#593,.T.);
#659=CLOSED_SHELL('',(#627,#628,#629,#630,#631,#632,#633,#634,#635,#636,
#637,#638,#639,#640,#641,#642,#643,#644,#645,#646,#647,#648,#649,#650,#651,
#652,#653,#654,#655,#656,#657,#658));
#660=DERIVED_UNIT_ELEMENT(#662,1.);
#661=DERIVED_UNIT_ELEMENT(#1141,3.);
#662=(
MASS_UNIT()
NAMED_UNIT(*)
SI_UNIT($,.GRAM.)
);
#663=DERIVED_UNIT((#660,#661));
#664=MEASURE_REPRESENTATION_ITEM('density measure',
POSITIVE_RATIO_MEASURE(1.),#663);
#665=PROPERTY_DEFINITION_REPRESENTATION(#670,#667);
#666=PROPERTY_DEFINITION_REPRESENTATION(#671,#668);
#667=REPRESENTATION('material name',(#669),#1138);
#668=REPRESENTATION('density',(#664),#1138);
#669=DESCRIPTIVE_REPRESENTATION_ITEM('Generisch','Generisch');
#670=PROPERTY_DEFINITION('material property','material name',#1148);
#671=PROPERTY_DEFINITION('material property','density of part',#1148);
#672=DATE_TIME_ROLE('creation_date');
#673=APPLIED_DATE_AND_TIME_ASSIGNMENT(#674,#672,(#1148));
#674=DATE_AND_TIME(#675,#676);
#675=CALENDAR_DATE(2022,30,11);
#676=LOCAL_TIME(0,0,0.,#677);
#677=COORDINATED_UNIVERSAL_TIME_OFFSET(0,0,.BEHIND.);
#678=AXIS2_PLACEMENT_3D('placement',#939,#747,#748);
#679=AXIS2_PLACEMENT_3D('',#940,#749,#750);
#680=AXIS2_PLACEMENT_3D('',#949,#755,#756);
#681=AXIS2_PLACEMENT_3D('',#951,#757,#758);
#682=AXIS2_PLACEMENT_3D('',#953,#759,#760);
#683=AXIS2_PLACEMENT_3D('',#957,#762,#763);
#684=AXIS2_PLACEMENT_3D('',#958,#764,#765);
#685=AXIS2_PLACEMENT_3D('',#960,#766,#767);
#686=AXIS2_PLACEMENT_3D('',#962,#769,#770);
#687=AXIS2_PLACEMENT_3D('',#967,#772,#773);
#688=AXIS2_PLACEMENT_3D('',#971,#775,#776);
#689=AXIS2_PLACEMENT_3D('',#972,#777,#778);
#690=AXIS2_PLACEMENT_3D('',#974,#779,#780);
#691=AXIS2_PLACEMENT_3D('',#977,#782,#783);
#692=AXIS2_PLACEMENT_3D('',#978,#784,#785);
#693=AXIS2_PLACEMENT_3D('',#980,#786,#787);
#694=AXIS2_PLACEMENT_3D('',#983,#789,#790);
#695=AXIS2_PLACEMENT_3D('',#984,#791,#792);
#696=AXIS2_PLACEMENT_3D('',#990,#796,#797);
#697=AXIS2_PLACEMENT_3D('',#1002,#799,#800);
#698=AXIS2_PLACEMENT_3D('',#1005,#802,#803);
#699=AXIS2_PLACEMENT_3D('',#1006,#804,#805);
#700=AXIS2_PLACEMENT_3D('',#1008,#806,#807);
#701=AXIS2_PLACEMENT_3D('',#1016,#812,#813);
#702=AXIS2_PLACEMENT_3D('',#1019,#814,#815);
#703=AXIS2_PLACEMENT_3D('',#1023,#817,#818);
#704=AXIS2_PLACEMENT_3D('',#1032,#820,#821);
#705=AXIS2_PLACEMENT_3D('',#1035,#824,#825);
#706=AXIS2_PLACEMENT_3D('',#1037,#826,#827);
#707=AXIS2_PLACEMENT_3D('',#1040,#829,#830);
#708=AXIS2_PLACEMENT_3D('',#1041,#831,#832);
#709=AXIS2_PLACEMENT_3D('',#1044,#835,#836);
#710=AXIS2_PLACEMENT_3D('',#1046,#837,#838);
#711=AXIS2_PLACEMENT_3D('',#1050,#840,#841);
#712=AXIS2_PLACEMENT_3D('',#1052,#843,#844);
#713=AXIS2_PLACEMENT_3D('',#1056,#846,#847);
#714=AXIS2_PLACEMENT_3D('',#1060,#849,#850);
#715=AXIS2_PLACEMENT_3D('',#1062,#852,#853);
#716=AXIS2_PLACEMENT_3D('',#1066,#855,#856);
#717=AXIS2_PLACEMENT_3D('',#1068,#858,#859);
#718=AXIS2_PLACEMENT_3D('',#1071,#862,#863);
#719=AXIS2_PLACEMENT_3D('',#1075,#865,#866);
#720=AXIS2_PLACEMENT_3D('',#1077,#868,#869);
#721=AXIS2_PLACEMENT_3D('',#1081,#872,#873);
#722=AXIS2_PLACEMENT_3D('',#1083,#874,#875);
#723=AXIS2_PLACEMENT_3D('',#1085,#877,#878);
#724=AXIS2_PLACEMENT_3D('',#1089,#881,#882);
#725=AXIS2_PLACEMENT_3D('',#1092,#883,#884);
#726=AXIS2_PLACEMENT_3D('',#1096,#886,#887);
#727=AXIS2_PLACEMENT_3D('',#1098,#889,#890);
#728=AXIS2_PLACEMENT_3D('',#1102,#893,#894);
#729=AXIS2_PLACEMENT_3D('',#1103,#895,#896);
#730=AXIS2_PLACEMENT_3D('',#1107,#899,#900);
#731=AXIS2_PLACEMENT_3D('',#1108,#901,#902);
#732=AXIS2_PLACEMENT_3D('',#1109,#903,#904);
#733=AXIS2_PLACEMENT_3D('',#1113,#907,#908);
#734=AXIS2_PLACEMENT_3D('',#1117,#911,#912);
#735=AXIS2_PLACEMENT_3D('',#1119,#914,#915);
#736=AXIS2_PLACEMENT_3D('',#1121,#917,#918);
#737=AXIS2_PLACEMENT_3D('',#1122,#919,#920);
#738=AXIS2_PLACEMENT_3D('',#1125,#921,#922);
#739=AXIS2_PLACEMENT_3D('',#1126,#923,#924);
#740=AXIS2_PLACEMENT_3D('',#1127,#925,#926);
#741=AXIS2_PLACEMENT_3D('',#1128,#927,#928);
#742=AXIS2_PLACEMENT_3D('',#1129,#929,#930);
#743=AXIS2_PLACEMENT_3D('',#1132,#931,#932);
#744=AXIS2_PLACEMENT_3D('',#1133,#933,#934);
#745=AXIS2_PLACEMENT_3D('',#1134,#935,#936);
#746=AXIS2_PLACEMENT_3D('',#1135,#937,#938);
#747=DIRECTION('axis',(0.,0.,1.));
#748=DIRECTION('refdir',(1.,0.,0.));
#749=DIRECTION('center_axis',(0.,0.,-1.));
#750=DIRECTION('ref_axis',(0.898870542807934,-0.438214270959047,0.));
#751=DIRECTION('',(0.,1.,0.));
#752=DIRECTION('',(0.898870542807934,-0.438214270959047,0.));
#753=DIRECTION('',(0.438214270959047,0.898870542807934,0.));
#754=DIRECTION('',(0.898870542807934,-0.438214270959047,0.));
#755=DIRECTION('center_axis',(0.,-1.,0.));
#756=DIRECTION('ref_axis',(1.,0.,0.));
#757=DIRECTION('center_axis',(-0.438214270959047,-0.898870542807934,0.));
#758=DIRECTION('ref_axis',(0.898870542807934,-0.438214270959047,0.));
#759=DIRECTION('center_axis',(-0.438214270959047,-0.898870542807934,0.));
#760=DIRECTION('ref_axis',(0.898870542807934,-0.438214270959047,0.));
#761=DIRECTION('',(0.,1.,0.));
#762=DIRECTION('center_axis',(0.,1.,0.));
#763=DIRECTION('ref_axis',(1.,0.,1.22464679914735E-16));
#764=DIRECTION('center_axis',(0.,1.,0.));
#765=DIRECTION('ref_axis',(1.,0.,1.22464679914735E-16));
#766=DIRECTION('center_axis',(-0.438214270959047,-0.898870542807934,0.));
#767=DIRECTION('ref_axis',(0.898870542807934,-0.438214270959047,0.));
#768=DIRECTION('',(0.,-1.,0.));
#769=DIRECTION('center_axis',(0.,-1.,0.));
#770=DIRECTION('ref_axis',(1.,0.,0.));
#771=DIRECTION('',(0.,1.,0.));
#772=DIRECTION('center_axis',(-0.438214270959047,-0.898870542807934,0.));
#773=DIRECTION('ref_axis',(0.898870542807935,-0.438214270959047,0.));
#774=DIRECTION('',(0.,1.,0.));
#775=DIRECTION('center_axis',(0.,1.,0.));
#776=DIRECTION('ref_axis',(1.,0.,0.));
#777=DIRECTION('center_axis',(0.,1.,0.));
#778=DIRECTION('ref_axis',(1.,0.,0.));
#779=DIRECTION('center_axis',(-0.438214270959047,-0.898870542807934,0.));
#780=DIRECTION('ref_axis',(0.898870542807935,-0.438214270959047,0.));
#781=DIRECTION('',(0.,-1.,0.));
#782=DIRECTION('center_axis',(-0.438214270959047,-0.898870542807934,0.));
#783=DIRECTION('ref_axis',(0.898870542807934,-0.438214270959047,0.));
#784=DIRECTION('center_axis',(-0.438214270959047,-0.898870542807934,0.));
#785=DIRECTION('ref_axis',(0.635597456228323,-0.309864282607862,0.707106781186548));
#786=DIRECTION('center_axis',(0.438214270959047,0.898870542807934,0.));
#787=DIRECTION('ref_axis',(0.635597456228323,-0.309864282607862,0.707106781186548));
#788=DIRECTION('',(-0.438214270959047,-0.898870542807934,0.));
#789=DIRECTION('center_axis',(-0.438214270959047,-0.898870542807934,0.));
#790=DIRECTION('ref_axis',(0.635597456228323,-0.309864282607862,0.707106781186548));
#791=DIRECTION('center_axis',(-0.898870542807934,0.438214270959047,-2.49488320140485E-16));
#792=DIRECTION('ref_axis',(2.24257701748917E-16,-1.0932934232316E-16,-1.));
#793=DIRECTION('',(2.24257701748917E-16,-1.0932934232316E-16,-1.));
#794=DIRECTION('',(0.438214270959047,0.898870542807934,0.));
#795=DIRECTION('',(2.24257701748917E-16,-1.0932934232316E-16,-1.));
#796=DIRECTION('center_axis',(-0.438214270959047,-0.898870542807934,0.));
#797=DIRECTION('ref_axis',(-0.635597456228324,0.309864282607861,0.707106781186547));
#798=DIRECTION('',(-0.438214270959047,-0.898870542807934,0.));
#799=DIRECTION('center_axis',(-0.438214270959047,-0.898870542807934,0.));
#800=DIRECTION('ref_axis',(-0.635597456228324,0.309864282607861,0.707106781186547));
#801=DIRECTION('',(0.438214270959047,0.898870542807934,0.));
#802=DIRECTION('center_axis',(0.438214270959047,0.898870542807934,0.));
#803=DIRECTION('ref_axis',(-0.635597456228324,0.309864282607861,0.707106781186547));
#804=DIRECTION('center_axis',(0.,0.,-1.));
#805=DIRECTION('ref_axis',(0.898870542807934,-0.438214270959047,0.));
#806=DIRECTION('center_axis',(0.,0.,-1.));
#807=DIRECTION('ref_axis',(0.325733173620462,-0.945461738836185,0.));
#808=DIRECTION('',(0.438214270959047,0.898870542807934,0.));
#809=DIRECTION('',(-0.898870542807934,0.438214270959047,0.));
#810=DIRECTION('',(-0.438214270959047,-0.898870542807934,0.));
#811=DIRECTION('',(0.898870542807934,-0.438214270959047,0.));
#812=DIRECTION('center_axis',(-0.438214270959047,-0.898870542807934,0.));
#813=DIRECTION('ref_axis',(-0.635597456228323,0.309864282607862,-0.707106781186548));
#814=DIRECTION('center_axis',(0.438214270959047,0.898870542807934,0.));
#815=DIRECTION('ref_axis',(-0.635597456228323,0.309864282607862,-0.707106781186548));
#816=DIRECTION('',(-0.438214270959047,-0.898870542807934,0.));
#817=DIRECTION('center_axis',(-0.438214270959047,-0.898870542807934,0.));
#818=DIRECTION('ref_axis',(-0.635597456228323,0.309864282607862,-0.707106781186548));
#819=DIRECTION('',(0.438214270959047,0.898870542807934,0.));
#820=DIRECTION('center_axis',(0.898870542807934,-0.438214270959047,1.15148455449454E-16));
#821=DIRECTION('ref_axis',(-1.03503554653346E-16,5.0459696456843E-17,1.));
#822=DIRECTION('',(-1.03503554653346E-16,5.0459696456843E-17,1.));
#823=DIRECTION('',(-1.03503554653346E-16,5.0459696456843E-17,1.));
#824=DIRECTION('center_axis',(-0.438214270959047,-0.898870542807934,0.));
#825=DIRECTION('ref_axis',(0.635597456228323,-0.309864282607861,-0.707106781186547));
#826=DIRECTION('center_axis',(0.438214270959047,0.898870542807934,0.));
#827=DIRECTION('ref_axis',(0.635597456228323,-0.309864282607861,-0.707106781186547));
#828=DIRECTION('',(-0.438214270959047,-0.898870542807934,0.));
#829=DIRECTION('center_axis',(-0.438214270959047,-0.898870542807934,0.));
#830=DIRECTION('ref_axis',(0.635597456228323,-0.309864282607861,-0.707106781186547));
#831=DIRECTION('center_axis',(0.,0.,1.));
#832=DIRECTION('ref_axis',(-0.898870542807934,0.438214270959047,0.));
#833=DIRECTION('',(-0.898870542807934,0.438214270959047,0.));
#834=DIRECTION('',(-0.898870542807934,0.438214270959047,0.));
#835=DIRECTION('center_axis',(0.,0.,-1.));
#836=DIRECTION('ref_axis',(0.325733173620462,-0.945461738836185,0.));
#837=DIRECTION('center_axis',(0.,0.,1.));
#838=DIRECTION('ref_axis',(0.325733173620462,-0.945461738836185,0.));
#839=DIRECTION('',(0.,0.,-1.));
#840=DIRECTION('center_axis',(0.,0.,-1.));
#841=DIRECTION('ref_axis',(0.325733173620462,-0.945461738836185,0.));
#842=DIRECTION('',(0.,0.,1.));
#843=DIRECTION('center_axis',(-0.898870542807934,0.438214270959047,0.));
#844=DIRECTION('ref_axis',(0.,0.,1.));
#845=DIRECTION('',(0.438214270959047,0.898870542807934,0.));
#846=DIRECTION('center_axis',(0.898870542807934,-0.438214270959047,0.));
#847=DIRECTION('ref_axis',(0.309864282607862,0.635597456228323,0.707106781186548));
#848=DIRECTION('',(0.,0.,1.));
#849=DIRECTION('center_axis',(0.898870542807934,-0.438214270959047,0.));
#850=DIRECTION('ref_axis',(0.309864282607862,0.635597456228323,-0.707106781186548));
#851=DIRECTION('',(0.438214270959047,0.898870542807934,0.));
#852=DIRECTION('center_axis',(0.,0.,-1.));
#853=DIRECTION('ref_axis',(0.325733173620462,-0.945461738836185,0.));
#854=DIRECTION('',(0.,0.,1.));
#855=DIRECTION('center_axis',(-5.65503171243519E-16,2.75692158224901E-16,
1.));
#856=DIRECTION('ref_axis',(0.325733173620462,-0.945461738836185,0.));
#857=DIRECTION('',(0.,0.,-1.));
#858=DIRECTION('center_axis',(-0.438214270959047,-0.898870542807934,0.));
#859=DIRECTION('ref_axis',(0.,0.,-1.));
#860=DIRECTION('',(0.898870542807934,-0.438214270959047,0.));
#861=DIRECTION('',(-0.898870542807934,0.438214270959047,-6.29126380620922E-16));
#862=DIRECTION('center_axis',(-0.898870542807934,0.438214270959047,0.));
#863=DIRECTION('ref_axis',(0.309864282607862,0.635597456228323,-0.707106781186548));
#864=DIRECTION('',(0.898870542807934,-0.438214270959047,0.));
#865=DIRECTION('center_axis',(-0.898870542807934,0.438214270959047,0.));
#866=DIRECTION('ref_axis',(0.309864282607862,0.635597456228323,-0.707106781186548));
#867=DIRECTION('',(-0.898870542807934,0.438214270959047,0.));
#868=DIRECTION('center_axis',(0.438214270959047,0.898870542807934,0.));
#869=DIRECTION('ref_axis',(0.,0.,1.));
#870=DIRECTION('',(-0.898870542807934,0.438214270959047,0.));
#871=DIRECTION('',(0.,0.,-1.));
#872=DIRECTION('center_axis',(0.898870542807934,-0.438214270959047,0.));
#873=DIRECTION('ref_axis',(0.309864282607862,0.635597456228323,0.707106781186548));
#874=DIRECTION('center_axis',(-0.898870542807934,0.438214270959047,0.));
#875=DIRECTION('ref_axis',(0.309864282607862,0.635597456228323,0.707106781186548));
#876=DIRECTION('',(0.898870542807934,-0.438214270959047,0.));
#877=DIRECTION('center_axis',(0.,0.,1.));
#878=DIRECTION('ref_axis',(-0.898870542807934,0.438214270959047,0.));
#879=DIRECTION('',(-0.898870542807934,0.438214270959047,0.));
#880=DIRECTION('',(-0.438214270959047,-0.898870542807934,0.));
#881=DIRECTION('center_axis',(0.898870542807934,-0.438214270959047,6.29126380620922E-16));
#882=DIRECTION('ref_axis',(0.309864282607862,0.635597456228323,0.707106781186547));
#883=DIRECTION('center_axis',(-0.898870542807934,0.438214270959047,0.));
#884=DIRECTION('ref_axis',(0.309864282607862,0.635597456228323,0.707106781186547));
#885=DIRECTION('',(-0.898870542807934,0.438214270959047,-6.29126380620922E-16));
#886=DIRECTION('center_axis',(0.898870542807934,-0.438214270959047,0.));
#887=DIRECTION('ref_axis',(0.309864282607862,0.635597456228323,0.707106781186547));
#888=DIRECTION('',(0.898870542807934,-0.438214270959047,6.29126380620922E-16));
#889=DIRECTION('center_axis',(-0.898870542807934,0.438214270959047,0.));
#890=DIRECTION('ref_axis',(0.,0.,1.));
#891=DIRECTION('',(0.438214270959047,0.898870542807934,0.));
#892=DIRECTION('',(0.,0.,1.));
#893=DIRECTION('center_axis',(0.898870542807934,-0.438214270959047,0.));
#894=DIRECTION('ref_axis',(0.309864282607862,0.635597456228324,-0.707106781186547));
#895=DIRECTION('center_axis',(0.438214270959047,0.898870542807934,0.));
#896=DIRECTION('ref_axis',(0.,0.,1.));
#897=DIRECTION('',(0.,0.,-1.));
#898=DIRECTION('',(0.898870542807934,-0.438214270959047,0.));
#899=DIRECTION('center_axis',(-0.898870542807934,0.438214270959047,0.));
#900=DIRECTION('ref_axis',(0.309864282607862,0.635597456228324,-0.707106781186547));
#901=DIRECTION('center_axis',(-0.898870542807934,0.438214270959047,0.));
#902=DIRECTION('ref_axis',(0.309864282607862,0.635597456228324,-0.707106781186547));
#903=DIRECTION('center_axis',(0.,0.,-1.));
#904=DIRECTION('ref_axis',(0.898870542807934,-0.438214270959047,0.));
#905=DIRECTION('',(-0.438214270959047,-0.898870542807934,0.));
#906=DIRECTION('',(0.898870542807934,-0.438214270959047,0.));
#907=DIRECTION('center_axis',(-5.65503171243519E-16,2.75692158224901E-16,
1.));
#908=DIRECTION('ref_axis',(-0.898870542807934,0.438214270959047,-6.29126380620922E-16));
#909=DIRECTION('',(-0.898870542807934,0.438214270959047,-6.29126380620922E-16));
#910=DIRECTION('',(-0.438214270959047,-0.898870542807934,0.));
#911=DIRECTION('center_axis',(0.898870542807934,-0.438214270959047,0.));
#912=DIRECTION('ref_axis',(0.,0.,1.));
#913=DIRECTION('',(0.,0.,1.));
#914=DIRECTION('center_axis',(0.898870542807934,-0.438214270959047,0.));
#915=DIRECTION('ref_axis',(0.,0.,1.));
#916=DIRECTION('',(0.,0.,1.));
#917=DIRECTION('center_axis',(-0.438214270959047,-0.898870542807934,0.));
#918=DIRECTION('ref_axis',(0.,0.,-1.));
#919=DIRECTION('center_axis',(0.,1.,0.));
#920=DIRECTION('ref_axis',(0.,0.,1.));
#921=DIRECTION('center_axis',(0.,-1.,0.));
#922=DIRECTION('ref_axis',(1.,0.,1.22464679914735E-16));
#923=DIRECTION('center_axis',(-1.,0.,1.22464679914735E-16));
#924=DIRECTION('ref_axis',(-1.22464679914735E-16,0.,-1.));
#925=DIRECTION('center_axis',(0.,-1.,0.));
#926=DIRECTION('ref_axis',(1.,0.,1.22464679914735E-16));
#927=DIRECTION('center_axis',(0.,1.,0.));
#928=DIRECTION('ref_axis',(0.,0.,1.));
#929=DIRECTION('center_axis',(0.,1.,0.));
#930=DIRECTION('ref_axis',(0.,0.,1.));
#931=DIRECTION('center_axis',(0.,-1.,0.));
#932=DIRECTION('ref_axis',(1.,0.,0.));
#933=DIRECTION('center_axis',(-1.,0.,1.22464679914736E-16));
#934=DIRECTION('ref_axis',(-1.22464679914736E-16,0.,-1.));
#935=DIRECTION('center_axis',(0.,-1.,0.));
#936=DIRECTION('ref_axis',(1.,0.,0.));
#937=DIRECTION('center_axis',(0.,1.,0.));
#938=DIRECTION('ref_axis',(0.,0.,1.));
#939=CARTESIAN_POINT('',(0.,0.,0.));
#940=CARTESIAN_POINT('Origin',(-0.920249969013999,-1.88762813989666,-5.25));
#941=CARTESIAN_POINT('',(0.,-6.78629425428108,-5.25));
#942=CARTESIAN_POINT('',(0.,-2.33626523508037,-5.25));
#943=CARTESIAN_POINT('',(0.,-0.943814069948331,-5.25));
#944=CARTESIAN_POINT('',(3.57410274502567,-4.0786994946919,-5.25));
#945=CARTESIAN_POINT('',(-0.920249969013999,-1.88762813989666,-5.25));
#946=CARTESIAN_POINT('',(1.82124566118948,-7.67418166592364,-5.25));
#947=CARTESIAN_POINT('',(3.57410274502567,-4.0786994946919,-5.25));
#948=CARTESIAN_POINT('',(-2.67310705285019,-5.4831103111284,-5.25));
#949=CARTESIAN_POINT('Origin',(0.,0.,0.));
#950=CARTESIAN_POINT('',(-4.44089209850063E-15,-2.33626523508037,5.25));
#951=CARTESIAN_POINT('Origin',(0.,-2.33626523508037,0.));
#952=CARTESIAN_POINT('',(-5.25,-4.2268323373868,-6.42939569552361E-16));
#953=CARTESIAN_POINT('Origin',(0.,-6.78629425428108,0.));
#954=CARTESIAN_POINT('',(-5.25,28.,0.));
#955=CARTESIAN_POINT('',(-5.25,0.,-6.42939569552361E-16));
#956=CARTESIAN_POINT('',(-6.42939569552361E-16,28.,-5.25));
#957=CARTESIAN_POINT('Origin',(0.,28.,0.));
#958=CARTESIAN_POINT('Origin',(0.,28.,0.));
#959=CARTESIAN_POINT('',(-4.44089209850063E-15,-6.78629425428108,5.25));
#960=CARTESIAN_POINT('Origin',(0.,-6.78629425428108,0.));
#961=CARTESIAN_POINT('',(-2.22044604925031E-15,0.,5.25));
#962=CARTESIAN_POINT('Origin',(0.,0.,-126.2));
#963=CARTESIAN_POINT('',(0.,-6.78629425428108,-131.45));
#964=CARTESIAN_POINT('',(0.,-2.33626523508037,-131.45));
#965=CARTESIAN_POINT('',(0.,-0.943814069948331,-131.45));
#966=CARTESIAN_POINT('',(-5.24999999999999,-4.2268323373868,-126.2));
#967=CARTESIAN_POINT('Origin',(0.,-6.78629425428108,-126.2));
#968=CARTESIAN_POINT('',(-5.24999999999999,28.,-126.2));
#969=CARTESIAN_POINT('',(-5.25000000000001,0.,-126.2));
#970=CARTESIAN_POINT('',(-6.42939569552361E-16,28.,-131.45));
#971=CARTESIAN_POINT('Origin',(0.,28.,-126.2));
#972=CARTESIAN_POINT('Origin',(0.,28.,-126.2));
#973=CARTESIAN_POINT('',(0.,-6.78629425428108,-120.95));
#974=CARTESIAN_POINT('Origin',(0.,-6.78629425428108,-126.2));
#975=CARTESIAN_POINT('',(0.,-2.33626523508037,-120.95));
#976=CARTESIAN_POINT('',(0.,0.,-120.95));
#977=CARTESIAN_POINT('Origin',(0.,-2.33626523508037,-126.2));
#978=CARTESIAN_POINT('Origin',(3.57410274502567,-4.0786994946919,-10.25));
#979=CARTESIAN_POINT('',(8.06845545906535,-6.26977084948714,-10.25));
#980=CARTESIAN_POINT('Origin',(3.57410274502567,-4.0786994946919,-10.25));
#981=CARTESIAN_POINT('',(6.31559837522916,-9.86525302071887,-10.25));
#982=CARTESIAN_POINT('',(8.06845545906535,-6.26977084948714,-10.25));
#983=CARTESIAN_POINT('Origin',(1.82124566118948,-7.67418166592364,-10.25));
#984=CARTESIAN_POINT('Origin',(8.06845545906534,-6.26977084948714,-5.25));
#985=CARTESIAN_POINT('',(8.06845545906537,-6.26977084948715,-115.95));
#986=CARTESIAN_POINT('',(8.06845545906534,-6.26977084948714,-5.25));
#987=CARTESIAN_POINT('',(6.31559837522918,-9.86525302071889,-115.95));
#988=CARTESIAN_POINT('',(8.06845545906537,-6.26977084948715,-115.95));
#989=CARTESIAN_POINT('',(6.31559837522916,-9.86525302071887,-5.25));
#990=CARTESIAN_POINT('Origin',(18.8549019727606,-11.5283421009957,-10.25));
#991=CARTESIAN_POINT('',(18.899170603845,-11.437537736352,-5.25));
#992=CARTESIAN_POINT('',(17.9560314299526,-11.0901278300367,-5.35102051443364));
#993=CARTESIAN_POINT('Ctrl Pts',(17.9560314299526,-11.0901278300367,-5.35102051443364));
#994=CARTESIAN_POINT('Ctrl Pts',(18.2337308535016,-11.2255108964971,-5.28795786551619));
#995=CARTESIAN_POINT('Ctrl Pts',(18.5352572614287,-11.3397328266785,-5.25373887894793));
#996=CARTESIAN_POINT('Ctrl Pts',(18.8632935960183,-11.4281841936588,-5.25009898777786));
#997=CARTESIAN_POINT('Ctrl Pts',(18.8812187146216,-11.4329107560503,-5.24999999999999));
#998=CARTESIAN_POINT('Ctrl Pts',(18.899170603845,-11.437537736352,-5.24999999999999));
#999=CARTESIAN_POINT('',(17.1020448889244,-15.1238242722274,-5.25));
#1000=CARTESIAN_POINT('',(18.8549019727606,-11.5283421009957,-5.25));
#1001=CARTESIAN_POINT('',(12.6076921748847,-12.9327529174322,-10.25));
#1002=CARTESIAN_POINT('Origin',(17.1020448889244,-15.1238242722274,-10.25));
#1003=CARTESIAN_POINT('',(14.3605492587209,-9.33727074620047,-10.25));
#1004=CARTESIAN_POINT('',(14.3605492587209,-9.33727074620047,-10.25));
#1005=CARTESIAN_POINT('Origin',(18.8549019727606,-11.5283421009957,-10.25));
#1006=CARTESIAN_POINT('Origin',(14.3605492587209,-9.33727074620047,-5.25));
#1007=CARTESIAN_POINT('',(24.6414554987875,-8.78684647079222,-5.25));
#1008=CARTESIAN_POINT('Origin',(20.1471027847479,-6.59577511599699,-5.25));
#1009=CARTESIAN_POINT('',(37.787883627559,18.1792698134458,-5.25));
#1010=CARTESIAN_POINT('',(22.4503841439923,-13.2811991848319,-5.25));
#1011=CARTESIAN_POINT('',(41.3833657987907,16.4264127296096,-5.25));
#1012=CARTESIAN_POINT('',(34.6418367277312,19.7130197618025,-5.25));
#1013=CARTESIAN_POINT('',(24.2930092313878,-18.6295384398998,-5.25));
#1014=CARTESIAN_POINT('',(26.045866315224,-15.0340562686681,-5.25));
#1015=CARTESIAN_POINT('',(-2.67310705285019,-5.4831103111284,-5.25));
#1016=CARTESIAN_POINT('Origin',(18.8549019727606,-11.5283421009957,-115.95));
#1017=CARTESIAN_POINT('',(17.9560314299526,-11.0901278300367,-120.848979485566));
#1018=CARTESIAN_POINT('',(14.3605492587209,-9.33727074620048,-115.95));
#1019=CARTESIAN_POINT('Origin',(18.8549019727606,-11.5283421009957,-115.95));
#1020=CARTESIAN_POINT('',(12.6076921748847,-12.9327529174322,-115.95));
#1021=CARTESIAN_POINT('',(14.3605492587209,-9.33727074620048,-115.95));
#1022=CARTESIAN_POINT('',(17.1020448889244,-15.1238242722275,-120.95));
#1023=CARTESIAN_POINT('Origin',(17.1020448889244,-15.1238242722275,-115.95));
#1024=CARTESIAN_POINT('',(18.899170603845,-11.437537736352,-120.95));
#1025=CARTESIAN_POINT('',(18.8549019727606,-11.5283421009957,-120.95));
#1026=CARTESIAN_POINT('Ctrl Pts',(18.8991706038492,-11.4375377363531,-120.95));
#1027=CARTESIAN_POINT('Ctrl Pts',(18.8812187146244,-11.432910756051,-120.95));
#1028=CARTESIAN_POINT('Ctrl Pts',(18.8632935960197,-11.4281841936591,-120.949901012222));
#1029=CARTESIAN_POINT('Ctrl Pts',(18.5352572614287,-11.3397328266785,-120.946261121052));
#1030=CARTESIAN_POINT('Ctrl Pts',(18.2337308535016,-11.2255108964971,-120.912042134484));
#1031=CARTESIAN_POINT('Ctrl Pts',(17.9560314299526,-11.0901278300367,-120.848979485566));
#1032=CARTESIAN_POINT('Origin',(14.3605492587209,-9.33727074620048,-120.95));
#1033=CARTESIAN_POINT('',(12.6076921748847,-12.9327529174322,-120.95));
#1034=CARTESIAN_POINT('',(14.3605492587209,-9.33727074620048,-120.95));
#1035=CARTESIAN_POINT('Origin',(3.5741027450257,-4.07869949469191,-115.95));
#1036=CARTESIAN_POINT('',(3.57410274502569,-4.07869949469191,-120.95));
#1037=CARTESIAN_POINT('Origin',(3.5741027450257,-4.07869949469191,-115.95));
#1038=CARTESIAN_POINT('',(1.82124566118951,-7.67418166592365,-120.95));
#1039=CARTESIAN_POINT('',(3.5741027450257,-4.07869949469191,-120.95));
#1040=CARTESIAN_POINT('Origin',(1.82124566118951,-7.67418166592365,-115.95));
#1041=CARTESIAN_POINT('Origin',(8.06845545906537,-6.26977084948714,-120.95));
#1042=CARTESIAN_POINT('',(24.2930092313878,-18.6295384398998,-120.95));
#1043=CARTESIAN_POINT('',(26.045866315224,-15.0340562686681,-120.95));
#1044=CARTESIAN_POINT('Origin',(20.1471027847479,-6.59577511599698,-65.725));
#1045=CARTESIAN_POINT('',(24.6414554987875,-8.78684647079222,-120.95));
#1046=CARTESIAN_POINT('Origin',(20.1471027847479,-6.59577511599698,-120.95));
#1047=CARTESIAN_POINT('',(24.6414554987875,-8.78684647079222,-131.45));
#1048=CARTESIAN_POINT('',(24.6414554987875,-8.78684647079222,-65.725));
#1049=CARTESIAN_POINT('',(17.9560314299526,-11.0901278300367,-131.45));
#1050=CARTESIAN_POINT('Origin',(20.1471027847479,-6.59577511599698,-131.45));
#1051=CARTESIAN_POINT('',(17.9560314299526,-11.0901278300367,-65.725));
#1052=CARTESIAN_POINT('Origin',(22.4503841439923,-13.2811991848319,-131.45));
#1053=CARTESIAN_POINT('',(37.787883627559,18.1792698134458,-120.95));
#1054=CARTESIAN_POINT('',(22.4503841439923,-13.2811991848319,-120.95));
#1055=CARTESIAN_POINT('',(39.9789549823542,22.6736225274855,-125.95));
#1056=CARTESIAN_POINT('Origin',(37.7878836275589,18.1792698134458,-125.95));
#1057=CARTESIAN_POINT('',(39.9789549823542,22.6736225274855,-126.45));
#1058=CARTESIAN_POINT('',(39.9789549823542,22.6736225274855,-131.45));
#1059=CARTESIAN_POINT('',(37.7878836275589,18.1792698134458,-131.45));
#1060=CARTESIAN_POINT('Origin',(37.787883627559,18.1792698134458,-126.45));
#1061=CARTESIAN_POINT('',(22.4503841439923,-13.2811991848319,-131.45));
#1062=CARTESIAN_POINT('Origin',(20.1471027847479,-6.59577511599699,-2.625));
#1063=CARTESIAN_POINT('',(17.9560314299526,-11.0901278300367,5.25000000000001));
#1064=CARTESIAN_POINT('',(17.9560314299526,-11.0901278300367,-2.625));
#1065=CARTESIAN_POINT('',(24.6414554987875,-8.78684647079222,5.25000000000002));
#1066=CARTESIAN_POINT('Origin',(20.1471027847479,-6.59577511599699,5.25000000000002));
#1067=CARTESIAN_POINT('',(24.6414554987875,-8.78684647079222,-2.625));
#1068=CARTESIAN_POINT('Origin',(10.2032729982342,-7.31052974301488,9.43689570931383E-15));
#1069=CARTESIAN_POINT('',(-0.920249969013999,-1.88762813989666,-131.45));
#1070=CARTESIAN_POINT('',(26.045866315224,-15.0340562686681,5.25000000000002));
#1071=CARTESIAN_POINT('Origin',(27.0014371138637,23.4378410649544,-126.45));
#1072=CARTESIAN_POINT('',(43.5744371535859,20.9207654436493,-126.45));
#1073=CARTESIAN_POINT('',(29.192508468659,27.9321937789941,-126.45));
#1074=CARTESIAN_POINT('',(41.3833657987907,16.4264127296096,-131.45));
#1075=CARTESIAN_POINT('Origin',(41.3833657987907,16.4264127296096,-126.45));
#1076=CARTESIAN_POINT('',(27.0014371138637,23.4378410649544,-131.45));
#1077=CARTESIAN_POINT('Origin',(41.7766960679701,21.7971939855674,-126.2));
#1078=CARTESIAN_POINT('',(43.5744371535859,20.9207654436493,-125.95));
#1079=CARTESIAN_POINT('',(42.675566610778,21.3589797146083,-125.95));
#1080=CARTESIAN_POINT('',(43.5744371535859,20.9207654436493,-120.95));
#1081=CARTESIAN_POINT('Origin',(40.4844952559828,16.8646270005687,-125.95));
#1082=CARTESIAN_POINT('',(41.3833657987907,16.4264127296096,-120.95));
#1083=CARTESIAN_POINT('Origin',(41.3833657987907,16.4264127296096,-125.95));
#1084=CARTESIAN_POINT('',(40.4844952559828,16.8646270005687,-120.95));
#1085=CARTESIAN_POINT('Origin',(26.045866315224,-15.0340562686681,-120.95));
#1086=CARTESIAN_POINT('',(24.2930092313878,-18.6295384398998,-120.95));
#1087=CARTESIAN_POINT('',(24.2930092313878,-18.6295384398998,-120.95));
#1088=CARTESIAN_POINT('',(26.045866315224,-15.0340562686681,-120.95));
#1089=CARTESIAN_POINT('Origin',(40.4844952559828,16.8646270005687,0.250000000000018));
#1090=CARTESIAN_POINT('',(41.3833657987907,16.4264127296096,5.25000000000002));
#1091=CARTESIAN_POINT('',(43.5744371535859,20.9207654436493,0.250000000000019));
#1092=CARTESIAN_POINT('Origin',(41.3833657987907,16.4264127296096,0.250000000000019));
#1093=CARTESIAN_POINT('',(39.9789549823542,22.6736225274855,0.250000000000016));
#1094=CARTESIAN_POINT('',(42.675566610778,21.3589797146083,0.250000000000018));
#1095=CARTESIAN_POINT('',(37.787883627559,18.1792698134458,5.25000000000002));
#1096=CARTESIAN_POINT('Origin',(37.787883627559,18.1792698134458,0.250000000000017));
#1097=CARTESIAN_POINT('',(40.4844952559828,16.8646270005687,5.25000000000002));
#1098=CARTESIAN_POINT('Origin',(22.4503841439923,-13.2811991848319,-5.25));
#1099=CARTESIAN_POINT('',(22.4503841439923,-13.2811991848319,5.25000000000002));
#1100=CARTESIAN_POINT('',(39.9789549823542,22.6736225274855,-0.25));
#1101=CARTESIAN_POINT('',(39.9789549823542,22.6736225274855,-5.25));
#1102=CARTESIAN_POINT('Origin',(37.787883627559,18.1792698134458,-0.25));
#1103=CARTESIAN_POINT('Origin',(41.7766960679701,21.7971939855674,8.88178419700125E-15));
#1104=CARTESIAN_POINT('',(43.5744371535859,20.9207654436493,-0.25));
#1105=CARTESIAN_POINT('',(43.5744371535859,20.9207654436493,5.25000000000002));
#1106=CARTESIAN_POINT('',(36.8329080825264,24.2073724758422,-0.25));
#1107=CARTESIAN_POINT('Origin',(34.6418367277312,19.7130197618025,-0.25));
#1108=CARTESIAN_POINT('Origin',(41.3833657987907,16.4264127296096,-0.25));
#1109=CARTESIAN_POINT('Origin',(-0.920249969013999,-1.88762813989666,-131.45));
#1110=CARTESIAN_POINT('',(24.2930092313878,-18.6295384398998,-131.45));
#1111=CARTESIAN_POINT('',(26.045866315224,-15.0340562686681,-131.45));
#1112=CARTESIAN_POINT('',(-2.67310705285019,-5.4831103111284,-131.45));
#1113=CARTESIAN_POINT('Origin',(26.045866315224,-15.0340562686681,5.25000000000002));
#1114=CARTESIAN_POINT('',(24.2930092313878,-18.6295384398998,5.25000000000002));
#1115=CARTESIAN_POINT('',(24.2930092313878,-18.6295384398998,5.25000000000002));
#1116=CARTESIAN_POINT('',(26.045866315224,-15.0340562686681,5.25000000000002));
#1117=CARTESIAN_POINT('Origin',(26.045866315224,-15.0340562686681,-5.25));
#1118=CARTESIAN_POINT('',(24.2930092313878,-18.6295384398998,-5.25));
#1119=CARTESIAN_POINT('Origin',(26.045866315224,-15.0340562686681,-131.45));
#1120=CARTESIAN_POINT('',(24.2930092313878,-18.6295384398998,-131.45));
#1121=CARTESIAN_POINT('Origin',(8.45041591439801,-10.9060119142466,9.43689570931383E-15));
#1122=CARTESIAN_POINT('Origin',(0.,28.,0.));
#1123=CARTESIAN_POINT('',(-3.25,30.,-7.9602041944578E-16));
#1124=CARTESIAN_POINT('',(-3.9801020972289E-16,30.,-3.25));
#1125=CARTESIAN_POINT('Origin',(0.,30.,0.));
#1126=CARTESIAN_POINT('Origin',(-3.9801020972289E-16,28.,-3.25));
#1127=CARTESIAN_POINT('Origin',(0.,30.,0.));
#1128=CARTESIAN_POINT('Origin',(0.,30.,0.));
#1129=CARTESIAN_POINT('Origin',(0.,28.,-126.2));
#1130=CARTESIAN_POINT('',(-3.24999999999999,30.,-126.2));
#1131=CARTESIAN_POINT('',(-3.9801020972289E-16,30.,-129.45));
#1132=CARTESIAN_POINT('Origin',(0.,30.,-126.2));
#1133=CARTESIAN_POINT('Origin',(-3.9801020972289E-16,28.,-129.45));
#1134=CARTESIAN_POINT('Origin',(0.,30.,-126.2));
#1135=CARTESIAN_POINT('Origin',(0.,30.,-126.2));
#1136=UNCERTAINTY_MEASURE_WITH_UNIT(LENGTH_MEASURE(0.01),#1140,
'DISTANCE_ACCURACY_VALUE',
'Maximum model space distance between geometric entities at asserted c
onnectivities');
#1137=UNCERTAINTY_MEASURE_WITH_UNIT(LENGTH_MEASURE(0.01),#1140,
'DISTANCE_ACCURACY_VALUE',
'Maximum model space distance between geometric entities at asserted c
onnectivities');
#1138=(
GEOMETRIC_REPRESENTATION_CONTEXT(3)
GLOBAL_UNCERTAINTY_ASSIGNED_CONTEXT((#1136))
GLOBAL_UNIT_ASSIGNED_CONTEXT((#1140,#1142,#1143))
REPRESENTATION_CONTEXT('','3D')
);
#1139=(
GEOMETRIC_REPRESENTATION_CONTEXT(3)
GLOBAL_UNCERTAINTY_ASSIGNED_CONTEXT((#1137))
GLOBAL_UNIT_ASSIGNED_CONTEXT((#1140,#1142,#1143))
REPRESENTATION_CONTEXT('','3D')
);
#1140=(
LENGTH_UNIT()
NAMED_UNIT(*)
SI_UNIT(.MILLI.,.METRE.)
);
#1141=(
LENGTH_UNIT()
NAMED_UNIT(*)
SI_UNIT(.CENTI.,.METRE.)
);
#1142=(
NAMED_UNIT(*)
PLANE_ANGLE_UNIT()
SI_UNIT($,.RADIAN.)
);
#1143=(
NAMED_UNIT(*)
SI_UNIT($,.STERADIAN.)
SOLID_ANGLE_UNIT()
);
#1144=SHAPE_DEFINITION_REPRESENTATION(#1145,#1146);
#1145=PRODUCT_DEFINITION_SHAPE('',$,#1148);
#1146=SHAPE_REPRESENTATION('',(#678),#1138);
#1147=PRODUCT_DEFINITION_CONTEXT('part definition',#1152,'design');
#1148=PRODUCT_DEFINITION('Raspberry Fuss2','Fuss',#1149,#1147);
#1149=PRODUCT_DEFINITION_FORMATION('',$,#1154);
#1150=PRODUCT_RELATED_PRODUCT_CATEGORY('Fuss','Fuss',(#1154));
#1151=APPLICATION_PROTOCOL_DEFINITION('international standard',
'automotive_design',2009,#1152);
#1152=APPLICATION_CONTEXT(
'Core Data for Automotive Mechanical Design Process');
#1153=PRODUCT_CONTEXT('part definition',#1152,'mechanical');
#1154=PRODUCT('Raspberry Fuss2','Fuss',$,(#1153));
#1155=PRESENTATION_STYLE_ASSIGNMENT((#1157));
#1156=PRESENTATION_STYLE_ASSIGNMENT((#1158));
#1157=SURFACE_STYLE_USAGE(.BOTH.,#1163);
#1158=SURFACE_STYLE_USAGE(.BOTH.,#1164);
#1159=SURFACE_STYLE_RENDERING_WITH_PROPERTIES($,#1171,(#1161));
#1160=SURFACE_STYLE_RENDERING_WITH_PROPERTIES($,#1172,(#1162));
#1161=SURFACE_STYLE_TRANSPARENT(0.);
#1162=SURFACE_STYLE_TRANSPARENT(0.);
#1163=SURFACE_SIDE_STYLE('',(#1165,#1159));
#1164=SURFACE_SIDE_STYLE('',(#1166,#1160));
#1165=SURFACE_STYLE_FILL_AREA(#1167);
#1166=SURFACE_STYLE_FILL_AREA(#1168);
#1167=FILL_AREA_STYLE('',(#1169));
#1168=FILL_AREA_STYLE('',(#1170));
#1169=FILL_AREA_STYLE_COLOUR('',#1171);
#1170=FILL_AREA_STYLE_COLOUR('',#1172);
#1171=COLOUR_RGB('',0.749019607843137,0.749019607843137,0.749019607843137);
#1172=COLOUR_RGB('',0.,0.,0.);
ENDSEC;
END-ISO-10303-21;
