ISO-10303-21;
HEADER;
/* Generated by software containing ST-Developer
 * from STEP Tools, Inc. (www.steptools.com) 
 */

FILE_DESCRIPTION(
/* description */ (''),
/* implementation_level */ '2;1');

FILE_NAME(
/* name */ 
'C:\\Users\\Harald\\Documents\\Projekte\\Wetterstation-2.0\\Inventor\\
Front.stp',
/* time_stamp */ '2024-02-09T17:54:15+01:00',
/* author */ ('Harald'),
/* organization */ (''),
/* preprocessor_version */ 'ST-DEVELOPER v18.1',
/* originating_system */ 'Autodesk Inventor 2021',
/* authorisation */ '');

FILE_SCHEMA (('AUTOMOTIVE_DESIGN { 1 0 10303 214 3 1 1 }'));
ENDSEC;

DATA;
#10=MECHANICAL_DESIGN_GEOMETRIC_PRESENTATION_REPRESENTATION('',(#872,#873,
#874,#875,#876,#877,#878,#879,#880,#881,#882,#883,#884,#885,#886,#887,#888,
#889,#890,#891,#892,#893,#894,#895,#896,#897,#898,#899,#900,#901,#902,#903,
#904,#905,#906,#907,#908,#909,#910,#911,#912,#913,#914,#915,#916,#917,#918,
#919),#1591);
#11=SHAPE_REPRESENTATION_RELATIONSHIP('SRR','None',#1598,#12);
#12=ADVANCED_BREP_SHAPE_REPRESENTATION('',(#13),#1590);
#13=MANIFOLD_SOLID_BREP('Volumenk\X\F6rper1',#967);
#14=FACE_BOUND('',#117,.T.);
#15=FACE_BOUND('',#118,.T.);
#16=FACE_BOUND('',#130,.T.);
#17=FACE_BOUND('',#134,.T.);
#18=FACE_BOUND('',#138,.T.);
#19=FACE_BOUND('',#142,.T.);
#20=FACE_BOUND('',#147,.T.);
#21=FACE_BOUND('',#148,.T.);
#22=PLANE('',#993);
#23=PLANE('',#994);
#24=PLANE('',#1000);
#25=PLANE('',#1001);
#26=PLANE('',#1002);
#27=PLANE('',#1003);
#28=PLANE('',#1004);
#29=PLANE('',#1005);
#30=PLANE('',#1006);
#31=PLANE('',#1016);
#32=PLANE('',#1022);
#33=PLANE('',#1028);
#34=PLANE('',#1034);
#35=PLANE('',#1035);
#36=PLANE('',#1036);
#37=PLANE('',#1037);
#38=PLANE('',#1038);
#39=PLANE('',#1039);
#40=PLANE('',#1040);
#41=PLANE('',#1041);
#42=PLANE('',#1042);
#43=PLANE('',#1043);
#44=PLANE('',#1044);
#45=PLANE('',#1045);
#46=PLANE('',#1046);
#47=PLANE('',#1047);
#48=PLANE('',#1048);
#49=PLANE('',#1049);
#50=PLANE('',#1050);
#51=PLANE('',#1051);
#52=PLANE('',#1052);
#53=PLANE('',#1055);
#54=PLANE('',#1058);
#55=PLANE('',#1061);
#56=PLANE('',#1064);
#57=PLANE('',#1065);
#58=FACE_OUTER_BOUND('',#105,.T.);
#59=FACE_OUTER_BOUND('',#106,.T.);
#60=FACE_OUTER_BOUND('',#107,.T.);
#61=FACE_OUTER_BOUND('',#108,.T.);
#62=FACE_OUTER_BOUND('',#109,.T.);
#63=FACE_OUTER_BOUND('',#110,.T.);
#64=FACE_OUTER_BOUND('',#111,.T.);
#65=FACE_OUTER_BOUND('',#112,.T.);
#66=FACE_OUTER_BOUND('',#113,.T.);
#67=FACE_OUTER_BOUND('',#114,.T.);
#68=FACE_OUTER_BOUND('',#115,.T.);
#69=FACE_OUTER_BOUND('',#116,.T.);
#70=FACE_OUTER_BOUND('',#119,.T.);
#71=FACE_OUTER_BOUND('',#120,.T.);
#72=FACE_OUTER_BOUND('',#121,.T.);
#73=FACE_OUTER_BOUND('',#122,.T.);
#74=FACE_OUTER_BOUND('',#123,.T.);
#75=FACE_OUTER_BOUND('',#124,.T.);
#76=FACE_OUTER_BOUND('',#125,.T.);
#77=FACE_OUTER_BOUND('',#126,.T.);
#78=FACE_OUTER_BOUND('',#127,.T.);
#79=FACE_OUTER_BOUND('',#128,.T.);
#80=FACE_OUTER_BOUND('',#129,.T.);
#81=FACE_OUTER_BOUND('',#131,.T.);
#82=FACE_OUTER_BOUND('',#132,.T.);
#83=FACE_OUTER_BOUND('',#133,.T.);
#84=FACE_OUTER_BOUND('',#135,.T.);
#85=FACE_OUTER_BOUND('',#136,.T.);
#86=FACE_OUTER_BOUND('',#137,.T.);
#87=FACE_OUTER_BOUND('',#139,.T.);
#88=FACE_OUTER_BOUND('',#140,.T.);
#89=FACE_OUTER_BOUND('',#141,.T.);
#90=FACE_OUTER_BOUND('',#143,.T.);
#91=FACE_OUTER_BOUND('',#144,.T.);
#92=FACE_OUTER_BOUND('',#145,.T.);
#93=FACE_OUTER_BOUND('',#146,.T.);
#94=FACE_OUTER_BOUND('',#149,.T.);
#95=FACE_OUTER_BOUND('',#150,.T.);
#96=FACE_OUTER_BOUND('',#151,.T.);
#97=FACE_OUTER_BOUND('',#152,.T.);
#98=FACE_OUTER_BOUND('',#153,.T.);
#99=FACE_OUTER_BOUND('',#154,.T.);
#100=FACE_OUTER_BOUND('',#155,.T.);
#101=FACE_OUTER_BOUND('',#156,.T.);
#102=FACE_OUTER_BOUND('',#157,.T.);
#103=FACE_OUTER_BOUND('',#158,.T.);
#104=FACE_OUTER_BOUND('',#159,.T.);
#105=EDGE_LOOP('',(#603,#604,#605,#606));
#106=EDGE_LOOP('',(#607,#608,#609,#610));
#107=EDGE_LOOP('',(#611,#612,#613,#614));
#108=EDGE_LOOP('',(#615,#616,#617,#618,#619,#620,#621,#622,#623,#624,#625,
#626));
#109=EDGE_LOOP('',(#627,#628,#629,#630,#631,#632));
#110=EDGE_LOOP('',(#633,#634,#635,#636));
#111=EDGE_LOOP('',(#637,#638,#639,#640));
#112=EDGE_LOOP('',(#641,#642,#643,#644));
#113=EDGE_LOOP('',(#645,#646,#647,#648));
#114=EDGE_LOOP('',(#649,#650,#651,#652));
#115=EDGE_LOOP('',(#653,#654,#655,#656));
#116=EDGE_LOOP('',(#657,#658,#659,#660,#661,#662,#663,#664));
#117=EDGE_LOOP('',(#665,#666));
#118=EDGE_LOOP('',(#667,#668,#669,#670));
#119=EDGE_LOOP('',(#671,#672,#673,#674,#675,#676));
#120=EDGE_LOOP('',(#677,#678));
#121=EDGE_LOOP('',(#679,#680,#681,#682,#683,#684));
#122=EDGE_LOOP('',(#685,#686));
#123=EDGE_LOOP('',(#687,#688,#689,#690,#691,#692));
#124=EDGE_LOOP('',(#693,#694));
#125=EDGE_LOOP('',(#695,#696,#697,#698,#699,#700));
#126=EDGE_LOOP('',(#701,#702));
#127=EDGE_LOOP('',(#703,#704,#705,#706));
#128=EDGE_LOOP('',(#707,#708,#709,#710));
#129=EDGE_LOOP('',(#711,#712,#713,#714));
#130=EDGE_LOOP('',(#715,#716));
#131=EDGE_LOOP('',(#717,#718,#719,#720));
#132=EDGE_LOOP('',(#721,#722,#723,#724));
#133=EDGE_LOOP('',(#725,#726,#727,#728));
#134=EDGE_LOOP('',(#729,#730));
#135=EDGE_LOOP('',(#731,#732,#733,#734));
#136=EDGE_LOOP('',(#735,#736,#737,#738));
#137=EDGE_LOOP('',(#739,#740,#741,#742));
#138=EDGE_LOOP('',(#743,#744));
#139=EDGE_LOOP('',(#745,#746,#747,#748));
#140=EDGE_LOOP('',(#749,#750,#751,#752));
#141=EDGE_LOOP('',(#753,#754,#755,#756));
#142=EDGE_LOOP('',(#757,#758));
#143=EDGE_LOOP('',(#759,#760,#761,#762,#763,#764,#765,#766));
#144=EDGE_LOOP('',(#767,#768,#769,#770,#771,#772,#773,#774));
#145=EDGE_LOOP('',(#775,#776,#777,#778,#779,#780,#781,#782));
#146=EDGE_LOOP('',(#783,#784,#785,#786,#787,#788,#789,#790,#791,#792,#793,
#794));
#147=EDGE_LOOP('',(#795,#796));
#148=EDGE_LOOP('',(#797,#798,#799,#800));
#149=EDGE_LOOP('',(#801,#802,#803,#804));
#150=EDGE_LOOP('',(#805,#806,#807,#808));
#151=EDGE_LOOP('',(#809,#810,#811,#812));
#152=EDGE_LOOP('',(#813,#814,#815,#816));
#153=EDGE_LOOP('',(#817,#818,#819,#820));
#154=EDGE_LOOP('',(#821,#822,#823,#824,#825,#826,#827,#828));
#155=EDGE_LOOP('',(#829,#830,#831,#832));
#156=EDGE_LOOP('',(#833,#834,#835,#836));
#157=EDGE_LOOP('',(#837,#838,#839,#840));
#158=EDGE_LOOP('',(#841,#842,#843,#844));
#159=EDGE_LOOP('',(#845,#846,#847,#848,#849,#850,#851,#852,#853,#854,#855,
#856,#857,#858,#859,#860));
#160=LINE('',#1329,#257);
#161=LINE('',#1332,#258);
#162=LINE('',#1338,#259);
#163=LINE('',#1341,#260);
#164=LINE('',#1343,#261);
#165=LINE('',#1344,#262);
#166=LINE('',#1347,#263);
#167=LINE('',#1349,#264);
#168=LINE('',#1351,#265);
#169=LINE('',#1353,#266);
#170=LINE('',#1355,#267);
#171=LINE('',#1357,#268);
#172=LINE('',#1359,#269);
#173=LINE('',#1361,#270);
#174=LINE('',#1362,#271);
#175=LINE('',#1369,#272);
#176=LINE('',#1376,#273);
#177=LINE('',#1378,#274);
#178=LINE('',#1380,#275);
#179=LINE('',#1381,#276);
#180=LINE('',#1384,#277);
#181=LINE('',#1386,#278);
#182=LINE('',#1387,#279);
#183=LINE('',#1390,#280);
#184=LINE('',#1392,#281);
#185=LINE('',#1393,#282);
#186=LINE('',#1395,#283);
#187=LINE('',#1396,#284);
#188=LINE('',#1399,#285);
#189=LINE('',#1401,#286);
#190=LINE('',#1402,#287);
#191=LINE('',#1405,#288);
#192=LINE('',#1406,#289);
#193=LINE('',#1410,#290);
#194=LINE('',#1414,#291);
#195=LINE('',#1418,#292);
#196=LINE('',#1422,#293);
#197=LINE('',#1430,#294);
#198=LINE('',#1441,#295);
#199=LINE('',#1452,#296);
#200=LINE('',#1463,#297);
#201=LINE('',#1471,#298);
#202=LINE('',#1473,#299);
#203=LINE('',#1475,#300);
#204=LINE('',#1476,#301);
#205=LINE('',#1478,#302);
#206=LINE('',#1479,#303);
#207=LINE('',#1481,#304);
#208=LINE('',#1485,#305);
#209=LINE('',#1487,#306);
#210=LINE('',#1489,#307);
#211=LINE('',#1490,#308);
#212=LINE('',#1493,#309);
#213=LINE('',#1495,#310);
#214=LINE('',#1496,#311);
#215=LINE('',#1499,#312);
#216=LINE('',#1500,#313);
#217=LINE('',#1504,#314);
#218=LINE('',#1506,#315);
#219=LINE('',#1508,#316);
#220=LINE('',#1509,#317);
#221=LINE('',#1512,#318);
#222=LINE('',#1514,#319);
#223=LINE('',#1515,#320);
#224=LINE('',#1518,#321);
#225=LINE('',#1519,#322);
#226=LINE('',#1523,#323);
#227=LINE('',#1525,#324);
#228=LINE('',#1527,#325);
#229=LINE('',#1528,#326);
#230=LINE('',#1530,#327);
#231=LINE('',#1531,#328);
#232=LINE('',#1533,#329);
#233=LINE('',#1536,#330);
#234=LINE('',#1537,#331);
#235=LINE('',#1538,#332);
#236=LINE('',#1541,#333);
#237=LINE('',#1542,#334);
#238=LINE('',#1543,#335);
#239=LINE('',#1545,#336);
#240=LINE('',#1546,#337);
#241=LINE('',#1549,#338);
#242=LINE('',#1550,#339);
#243=LINE('',#1552,#340);
#244=LINE('',#1556,#341);
#245=LINE('',#1559,#342);
#246=LINE('',#1562,#343);
#247=LINE('',#1563,#344);
#248=LINE('',#1567,#345);
#249=LINE('',#1570,#346);
#250=LINE('',#1571,#347);
#251=LINE('',#1572,#348);
#252=LINE('',#1576,#349);
#253=LINE('',#1579,#350);
#254=LINE('',#1580,#351);
#255=LINE('',#1584,#352);
#256=LINE('',#1586,#353);
#257=VECTOR('',#1072,10.);
#258=VECTOR('',#1075,10.);
#259=VECTOR('',#1080,10.);
#260=VECTOR('',#1083,10.);
#261=VECTOR('',#1086,10.);
#262=VECTOR('',#1087,10.);
#263=VECTOR('',#1090,10.);
#264=VECTOR('',#1091,10.);
#265=VECTOR('',#1092,10.);
#266=VECTOR('',#1093,10.);
#267=VECTOR('',#1094,10.);
#268=VECTOR('',#1095,10.);
#269=VECTOR('',#1096,10.);
#270=VECTOR('',#1097,10.);
#271=VECTOR('',#1098,10.);
#272=VECTOR('',#1105,2.5);
#273=VECTOR('',#1112,10.);
#274=VECTOR('',#1113,10.);
#275=VECTOR('',#1114,10.);
#276=VECTOR('',#1115,10.);
#277=VECTOR('',#1118,10.);
#278=VECTOR('',#1119,10.);
#279=VECTOR('',#1120,10.);
#280=VECTOR('',#1123,10.);
#281=VECTOR('',#1124,10.);
#282=VECTOR('',#1125,10.);
#283=VECTOR('',#1128,10.);
#284=VECTOR('',#1129,10.);
#285=VECTOR('',#1132,10.);
#286=VECTOR('',#1133,10.);
#287=VECTOR('',#1134,10.);
#288=VECTOR('',#1137,10.);
#289=VECTOR('',#1138,10.);
#290=VECTOR('',#1141,10.);
#291=VECTOR('',#1144,10.);
#292=VECTOR('',#1147,10.);
#293=VECTOR('',#1150,10.);
#294=VECTOR('',#1159,1.);
#295=VECTOR('',#1172,1.00000000000001);
#296=VECTOR('',#1185,1.);
#297=VECTOR('',#1198,1.);
#298=VECTOR('',#1207,10.);
#299=VECTOR('',#1208,10.);
#300=VECTOR('',#1209,10.);
#301=VECTOR('',#1210,10.);
#302=VECTOR('',#1213,10.);
#303=VECTOR('',#1214,10.);
#304=VECTOR('',#1217,10.);
#305=VECTOR('',#1220,10.);
#306=VECTOR('',#1221,10.);
#307=VECTOR('',#1222,10.);
#308=VECTOR('',#1223,10.);
#309=VECTOR('',#1226,10.);
#310=VECTOR('',#1227,10.);
#311=VECTOR('',#1228,10.);
#312=VECTOR('',#1231,10.);
#313=VECTOR('',#1232,10.);
#314=VECTOR('',#1235,10.);
#315=VECTOR('',#1236,10.);
#316=VECTOR('',#1237,10.);
#317=VECTOR('',#1238,10.);
#318=VECTOR('',#1241,10.);
#319=VECTOR('',#1242,10.);
#320=VECTOR('',#1243,10.);
#321=VECTOR('',#1246,10.);
#322=VECTOR('',#1247,10.);
#323=VECTOR('',#1250,10.);
#324=VECTOR('',#1251,10.);
#325=VECTOR('',#1252,10.);
#326=VECTOR('',#1253,10.);
#327=VECTOR('',#1256,10.);
#328=VECTOR('',#1257,10.);
#329=VECTOR('',#1260,10.);
#330=VECTOR('',#1263,10.);
#331=VECTOR('',#1264,10.);
#332=VECTOR('',#1265,10.);
#333=VECTOR('',#1268,10.);
#334=VECTOR('',#1269,10.);
#335=VECTOR('',#1270,10.);
#336=VECTOR('',#1273,10.);
#337=VECTOR('',#1274,10.);
#338=VECTOR('',#1277,10.);
#339=VECTOR('',#1278,10.);
#340=VECTOR('',#1281,10.);
#341=VECTOR('',#1286,10.);
#342=VECTOR('',#1289,10.);
#343=VECTOR('',#1292,10.);
#344=VECTOR('',#1293,10.);
#345=VECTOR('',#1298,10.);
#346=VECTOR('',#1301,10.);
#347=VECTOR('',#1302,10.);
#348=VECTOR('',#1303,10.);
#349=VECTOR('',#1308,10.);
#350=VECTOR('',#1311,10.);
#351=VECTOR('',#1312,10.);
#352=VECTOR('',#1317,10.);
#353=VECTOR('',#1320,10.);
#354=CIRCLE('',#988,2.);
#355=CIRCLE('',#989,2.);
#356=CIRCLE('',#991,2.);
#357=CIRCLE('',#992,2.);
#358=CIRCLE('',#996,2.5);
#359=CIRCLE('',#997,2.5);
#360=CIRCLE('',#998,2.5);
#361=CIRCLE('',#999,2.5);
#362=CIRCLE('',#1007,1.99999999999999);
#363=CIRCLE('',#1008,2.);
#364=CIRCLE('',#1009,1.99999999999999);
#365=CIRCLE('',#1010,2.0000000000001);
#366=CIRCLE('',#1012,1.);
#367=CIRCLE('',#1013,1.);
#368=CIRCLE('',#1014,1.);
#369=CIRCLE('',#1015,1.);
#370=CIRCLE('',#1018,1.00000000000001);
#371=CIRCLE('',#1019,1.00000000000001);
#372=CIRCLE('',#1020,1.00000000000001);
#373=CIRCLE('',#1021,1.00000000000001);
#374=CIRCLE('',#1024,1.);
#375=CIRCLE('',#1025,1.);
#376=CIRCLE('',#1026,1.);
#377=CIRCLE('',#1027,1.);
#378=CIRCLE('',#1030,1.);
#379=CIRCLE('',#1031,1.);
#380=CIRCLE('',#1032,1.);
#381=CIRCLE('',#1033,1.);
#382=CIRCLE('',#1054,1.99999999999999);
#383=CIRCLE('',#1057,2.);
#384=CIRCLE('',#1060,1.99999999999999);
#385=CIRCLE('',#1063,2.0000000000001);
#386=VERTEX_POINT('',#1325);
#387=VERTEX_POINT('',#1326);
#388=VERTEX_POINT('',#1328);
#389=VERTEX_POINT('',#1330);
#390=VERTEX_POINT('',#1334);
#391=VERTEX_POINT('',#1335);
#392=VERTEX_POINT('',#1337);
#393=VERTEX_POINT('',#1339);
#394=VERTEX_POINT('',#1346);
#395=VERTEX_POINT('',#1348);
#396=VERTEX_POINT('',#1350);
#397=VERTEX_POINT('',#1352);
#398=VERTEX_POINT('',#1354);
#399=VERTEX_POINT('',#1356);
#400=VERTEX_POINT('',#1358);
#401=VERTEX_POINT('',#1360);
#402=VERTEX_POINT('',#1364);
#403=VERTEX_POINT('',#1365);
#404=VERTEX_POINT('',#1368);
#405=VERTEX_POINT('',#1370);
#406=VERTEX_POINT('',#1374);
#407=VERTEX_POINT('',#1375);
#408=VERTEX_POINT('',#1377);
#409=VERTEX_POINT('',#1379);
#410=VERTEX_POINT('',#1383);
#411=VERTEX_POINT('',#1385);
#412=VERTEX_POINT('',#1389);
#413=VERTEX_POINT('',#1391);
#414=VERTEX_POINT('',#1398);
#415=VERTEX_POINT('',#1400);
#416=VERTEX_POINT('',#1404);
#417=VERTEX_POINT('',#1408);
#418=VERTEX_POINT('',#1409);
#419=VERTEX_POINT('',#1411);
#420=VERTEX_POINT('',#1413);
#421=VERTEX_POINT('',#1415);
#422=VERTEX_POINT('',#1417);
#423=VERTEX_POINT('',#1419);
#424=VERTEX_POINT('',#1421);
#425=VERTEX_POINT('',#1425);
#426=VERTEX_POINT('',#1426);
#427=VERTEX_POINT('',#1429);
#428=VERTEX_POINT('',#1431);
#429=VERTEX_POINT('',#1436);
#430=VERTEX_POINT('',#1437);
#431=VERTEX_POINT('',#1440);
#432=VERTEX_POINT('',#1442);
#433=VERTEX_POINT('',#1447);
#434=VERTEX_POINT('',#1448);
#435=VERTEX_POINT('',#1451);
#436=VERTEX_POINT('',#1453);
#437=VERTEX_POINT('',#1458);
#438=VERTEX_POINT('',#1459);
#439=VERTEX_POINT('',#1462);
#440=VERTEX_POINT('',#1464);
#441=VERTEX_POINT('',#1469);
#442=VERTEX_POINT('',#1470);
#443=VERTEX_POINT('',#1472);
#444=VERTEX_POINT('',#1474);
#445=VERTEX_POINT('',#1483);
#446=VERTEX_POINT('',#1484);
#447=VERTEX_POINT('',#1486);
#448=VERTEX_POINT('',#1488);
#449=VERTEX_POINT('',#1492);
#450=VERTEX_POINT('',#1494);
#451=VERTEX_POINT('',#1498);
#452=VERTEX_POINT('',#1502);
#453=VERTEX_POINT('',#1503);
#454=VERTEX_POINT('',#1505);
#455=VERTEX_POINT('',#1507);
#456=VERTEX_POINT('',#1511);
#457=VERTEX_POINT('',#1513);
#458=VERTEX_POINT('',#1517);
#459=VERTEX_POINT('',#1521);
#460=VERTEX_POINT('',#1522);
#461=VERTEX_POINT('',#1524);
#462=VERTEX_POINT('',#1526);
#463=VERTEX_POINT('',#1535);
#464=VERTEX_POINT('',#1540);
#465=VERTEX_POINT('',#1548);
#466=VERTEX_POINT('',#1555);
#467=VERTEX_POINT('',#1557);
#468=VERTEX_POINT('',#1561);
#469=VERTEX_POINT('',#1565);
#470=VERTEX_POINT('',#1569);
#471=VERTEX_POINT('',#1574);
#472=VERTEX_POINT('',#1578);
#473=VERTEX_POINT('',#1582);
#474=EDGE_CURVE('',#386,#387,#354,.T.);
#475=EDGE_CURVE('',#388,#387,#160,.T.);
#476=EDGE_CURVE('',#388,#389,#355,.T.);
#477=EDGE_CURVE('',#389,#386,#161,.T.);
#478=EDGE_CURVE('',#390,#391,#356,.T.);
#479=EDGE_CURVE('',#391,#392,#162,.T.);
#480=EDGE_CURVE('',#392,#393,#357,.T.);
#481=EDGE_CURVE('',#390,#393,#163,.T.);
#482=EDGE_CURVE('',#392,#389,#164,.T.);
#483=EDGE_CURVE('',#386,#391,#165,.T.);
#484=EDGE_CURVE('',#394,#388,#166,.T.);
#485=EDGE_CURVE('',#394,#395,#167,.T.);
#486=EDGE_CURVE('',#395,#396,#168,.T.);
#487=EDGE_CURVE('',#396,#397,#169,.T.);
#488=EDGE_CURVE('',#398,#397,#170,.F.);
#489=EDGE_CURVE('',#398,#399,#171,.T.);
#490=EDGE_CURVE('',#399,#400,#172,.T.);
#491=EDGE_CURVE('',#401,#400,#173,.T.);
#492=EDGE_CURVE('',#393,#401,#174,.T.);
#493=EDGE_CURVE('',#402,#403,#358,.T.);
#494=EDGE_CURVE('',#403,#402,#359,.T.);
#495=EDGE_CURVE('',#403,#404,#175,.T.);
#496=EDGE_CURVE('',#405,#404,#360,.T.);
#497=EDGE_CURVE('',#404,#405,#361,.T.);
#498=EDGE_CURVE('',#406,#407,#176,.T.);
#499=EDGE_CURVE('',#407,#408,#177,.T.);
#500=EDGE_CURVE('',#408,#409,#178,.T.);
#501=EDGE_CURVE('',#409,#406,#179,.T.);
#502=EDGE_CURVE('',#409,#410,#180,.T.);
#503=EDGE_CURVE('',#410,#411,#181,.T.);
#504=EDGE_CURVE('',#411,#406,#182,.T.);
#505=EDGE_CURVE('',#412,#411,#183,.T.);
#506=EDGE_CURVE('',#410,#413,#184,.T.);
#507=EDGE_CURVE('',#413,#412,#185,.T.);
#508=EDGE_CURVE('',#407,#412,#186,.T.);
#509=EDGE_CURVE('',#413,#408,#187,.T.);
#510=EDGE_CURVE('',#407,#414,#188,.T.);
#511=EDGE_CURVE('',#414,#415,#189,.T.);
#512=EDGE_CURVE('',#412,#415,#190,.T.);
#513=EDGE_CURVE('',#406,#416,#191,.T.);
#514=EDGE_CURVE('',#416,#414,#192,.T.);
#515=EDGE_CURVE('',#417,#418,#193,.T.);
#516=EDGE_CURVE('',#419,#417,#362,.T.);
#517=EDGE_CURVE('',#420,#419,#194,.T.);
#518=EDGE_CURVE('',#421,#420,#363,.T.);
#519=EDGE_CURVE('',#422,#421,#195,.T.);
#520=EDGE_CURVE('',#423,#422,#364,.T.);
#521=EDGE_CURVE('',#424,#423,#196,.T.);
#522=EDGE_CURVE('',#418,#424,#365,.T.);
#523=EDGE_CURVE('',#425,#426,#366,.T.);
#524=EDGE_CURVE('',#426,#425,#367,.T.);
#525=EDGE_CURVE('',#426,#427,#197,.T.);
#526=EDGE_CURVE('',#427,#428,#368,.T.);
#527=EDGE_CURVE('',#428,#427,#369,.T.);
#528=EDGE_CURVE('',#429,#430,#370,.T.);
#529=EDGE_CURVE('',#430,#429,#371,.T.);
#530=EDGE_CURVE('',#430,#431,#198,.T.);
#531=EDGE_CURVE('',#431,#432,#372,.T.);
#532=EDGE_CURVE('',#432,#431,#373,.T.);
#533=EDGE_CURVE('',#433,#434,#374,.T.);
#534=EDGE_CURVE('',#434,#433,#375,.T.);
#535=EDGE_CURVE('',#434,#435,#199,.T.);
#536=EDGE_CURVE('',#435,#436,#376,.T.);
#537=EDGE_CURVE('',#436,#435,#377,.T.);
#538=EDGE_CURVE('',#437,#438,#378,.T.);
#539=EDGE_CURVE('',#438,#437,#379,.T.);
#540=EDGE_CURVE('',#438,#439,#200,.T.);
#541=EDGE_CURVE('',#439,#440,#380,.T.);
#542=EDGE_CURVE('',#440,#439,#381,.T.);
#543=EDGE_CURVE('',#441,#442,#201,.T.);
#544=EDGE_CURVE('',#441,#443,#202,.T.);
#545=EDGE_CURVE('',#444,#443,#203,.T.);
#546=EDGE_CURVE('',#442,#444,#204,.T.);
#547=EDGE_CURVE('',#397,#441,#205,.T.);
#548=EDGE_CURVE('',#443,#396,#206,.T.);
#549=EDGE_CURVE('',#444,#395,#207,.T.);
#550=EDGE_CURVE('',#445,#446,#208,.T.);
#551=EDGE_CURVE('',#447,#445,#209,.T.);
#552=EDGE_CURVE('',#448,#447,#210,.T.);
#553=EDGE_CURVE('',#446,#448,#211,.T.);
#554=EDGE_CURVE('',#446,#449,#212,.T.);
#555=EDGE_CURVE('',#450,#448,#213,.T.);
#556=EDGE_CURVE('',#449,#450,#214,.T.);
#557=EDGE_CURVE('',#451,#447,#215,.T.);
#558=EDGE_CURVE('',#450,#451,#216,.T.);
#559=EDGE_CURVE('',#452,#453,#217,.T.);
#560=EDGE_CURVE('',#454,#452,#218,.T.);
#561=EDGE_CURVE('',#455,#454,#219,.T.);
#562=EDGE_CURVE('',#453,#455,#220,.T.);
#563=EDGE_CURVE('',#453,#456,#221,.T.);
#564=EDGE_CURVE('',#457,#455,#222,.T.);
#565=EDGE_CURVE('',#456,#457,#223,.T.);
#566=EDGE_CURVE('',#458,#454,#224,.T.);
#567=EDGE_CURVE('',#457,#458,#225,.T.);
#568=EDGE_CURVE('',#459,#460,#226,.T.);
#569=EDGE_CURVE('',#461,#459,#227,.T.);
#570=EDGE_CURVE('',#462,#461,#228,.T.);
#571=EDGE_CURVE('',#460,#462,#229,.T.);
#572=EDGE_CURVE('',#460,#398,#230,.T.);
#573=EDGE_CURVE('',#399,#462,#231,.T.);
#574=EDGE_CURVE('',#400,#461,#232,.T.);
#575=EDGE_CURVE('',#463,#394,#233,.T.);
#576=EDGE_CURVE('',#463,#458,#234,.F.);
#577=EDGE_CURVE('',#442,#452,#235,.F.);
#578=EDGE_CURVE('',#464,#451,#236,.T.);
#579=EDGE_CURVE('',#401,#464,#237,.T.);
#580=EDGE_CURVE('',#449,#459,#238,.F.);
#581=EDGE_CURVE('',#456,#445,#239,.F.);
#582=EDGE_CURVE('',#464,#463,#240,.T.);
#583=EDGE_CURVE('',#465,#416,#241,.T.);
#584=EDGE_CURVE('',#415,#465,#242,.T.);
#585=EDGE_CURVE('',#411,#465,#243,.T.);
#586=EDGE_CURVE('',#417,#466,#244,.T.);
#587=EDGE_CURVE('',#467,#466,#382,.T.);
#588=EDGE_CURVE('',#419,#467,#245,.T.);
#589=EDGE_CURVE('',#468,#467,#246,.T.);
#590=EDGE_CURVE('',#420,#468,#247,.T.);
#591=EDGE_CURVE('',#469,#468,#383,.T.);
#592=EDGE_CURVE('',#421,#469,#248,.T.);
#593=EDGE_CURVE('',#470,#390,#249,.T.);
#594=EDGE_CURVE('',#422,#470,#250,.T.);
#595=EDGE_CURVE('',#387,#469,#251,.T.);
#596=EDGE_CURVE('',#471,#470,#384,.T.);
#597=EDGE_CURVE('',#423,#471,#252,.T.);
#598=EDGE_CURVE('',#472,#471,#253,.T.);
#599=EDGE_CURVE('',#424,#472,#254,.T.);
#600=EDGE_CURVE('',#473,#472,#385,.T.);
#601=EDGE_CURVE('',#418,#473,#255,.T.);
#602=EDGE_CURVE('',#466,#473,#256,.T.);
#603=ORIENTED_EDGE('',*,*,#474,.T.);
#604=ORIENTED_EDGE('',*,*,#475,.F.);
#605=ORIENTED_EDGE('',*,*,#476,.T.);
#606=ORIENTED_EDGE('',*,*,#477,.T.);
#607=ORIENTED_EDGE('',*,*,#478,.T.);
#608=ORIENTED_EDGE('',*,*,#479,.T.);
#609=ORIENTED_EDGE('',*,*,#480,.T.);
#610=ORIENTED_EDGE('',*,*,#481,.F.);
#611=ORIENTED_EDGE('',*,*,#477,.F.);
#612=ORIENTED_EDGE('',*,*,#482,.F.);
#613=ORIENTED_EDGE('',*,*,#479,.F.);
#614=ORIENTED_EDGE('',*,*,#483,.F.);
#615=ORIENTED_EDGE('',*,*,#482,.T.);
#616=ORIENTED_EDGE('',*,*,#476,.F.);
#617=ORIENTED_EDGE('',*,*,#484,.F.);
#618=ORIENTED_EDGE('',*,*,#485,.T.);
#619=ORIENTED_EDGE('',*,*,#486,.T.);
#620=ORIENTED_EDGE('',*,*,#487,.T.);
#621=ORIENTED_EDGE('',*,*,#488,.F.);
#622=ORIENTED_EDGE('',*,*,#489,.T.);
#623=ORIENTED_EDGE('',*,*,#490,.T.);
#624=ORIENTED_EDGE('',*,*,#491,.F.);
#625=ORIENTED_EDGE('',*,*,#492,.F.);
#626=ORIENTED_EDGE('',*,*,#480,.F.);
#627=ORIENTED_EDGE('',*,*,#493,.F.);
#628=ORIENTED_EDGE('',*,*,#494,.F.);
#629=ORIENTED_EDGE('',*,*,#495,.T.);
#630=ORIENTED_EDGE('',*,*,#496,.F.);
#631=ORIENTED_EDGE('',*,*,#497,.F.);
#632=ORIENTED_EDGE('',*,*,#495,.F.);
#633=ORIENTED_EDGE('',*,*,#498,.T.);
#634=ORIENTED_EDGE('',*,*,#499,.T.);
#635=ORIENTED_EDGE('',*,*,#500,.T.);
#636=ORIENTED_EDGE('',*,*,#501,.T.);
#637=ORIENTED_EDGE('',*,*,#502,.T.);
#638=ORIENTED_EDGE('',*,*,#503,.T.);
#639=ORIENTED_EDGE('',*,*,#504,.T.);
#640=ORIENTED_EDGE('',*,*,#501,.F.);
#641=ORIENTED_EDGE('',*,*,#505,.T.);
#642=ORIENTED_EDGE('',*,*,#503,.F.);
#643=ORIENTED_EDGE('',*,*,#506,.T.);
#644=ORIENTED_EDGE('',*,*,#507,.T.);
#645=ORIENTED_EDGE('',*,*,#508,.T.);
#646=ORIENTED_EDGE('',*,*,#507,.F.);
#647=ORIENTED_EDGE('',*,*,#509,.T.);
#648=ORIENTED_EDGE('',*,*,#499,.F.);
#649=ORIENTED_EDGE('',*,*,#508,.F.);
#650=ORIENTED_EDGE('',*,*,#510,.T.);
#651=ORIENTED_EDGE('',*,*,#511,.T.);
#652=ORIENTED_EDGE('',*,*,#512,.F.);
#653=ORIENTED_EDGE('',*,*,#498,.F.);
#654=ORIENTED_EDGE('',*,*,#513,.T.);
#655=ORIENTED_EDGE('',*,*,#514,.T.);
#656=ORIENTED_EDGE('',*,*,#510,.F.);
#657=ORIENTED_EDGE('',*,*,#515,.F.);
#658=ORIENTED_EDGE('',*,*,#516,.F.);
#659=ORIENTED_EDGE('',*,*,#517,.F.);
#660=ORIENTED_EDGE('',*,*,#518,.F.);
#661=ORIENTED_EDGE('',*,*,#519,.F.);
#662=ORIENTED_EDGE('',*,*,#520,.F.);
#663=ORIENTED_EDGE('',*,*,#521,.F.);
#664=ORIENTED_EDGE('',*,*,#522,.F.);
#665=ORIENTED_EDGE('',*,*,#496,.T.);
#666=ORIENTED_EDGE('',*,*,#497,.T.);
#667=ORIENTED_EDGE('',*,*,#500,.F.);
#668=ORIENTED_EDGE('',*,*,#509,.F.);
#669=ORIENTED_EDGE('',*,*,#506,.F.);
#670=ORIENTED_EDGE('',*,*,#502,.F.);
#671=ORIENTED_EDGE('',*,*,#523,.F.);
#672=ORIENTED_EDGE('',*,*,#524,.F.);
#673=ORIENTED_EDGE('',*,*,#525,.T.);
#674=ORIENTED_EDGE('',*,*,#526,.T.);
#675=ORIENTED_EDGE('',*,*,#527,.T.);
#676=ORIENTED_EDGE('',*,*,#525,.F.);
#677=ORIENTED_EDGE('',*,*,#527,.F.);
#678=ORIENTED_EDGE('',*,*,#526,.F.);
#679=ORIENTED_EDGE('',*,*,#528,.F.);
#680=ORIENTED_EDGE('',*,*,#529,.F.);
#681=ORIENTED_EDGE('',*,*,#530,.T.);
#682=ORIENTED_EDGE('',*,*,#531,.T.);
#683=ORIENTED_EDGE('',*,*,#532,.T.);
#684=ORIENTED_EDGE('',*,*,#530,.F.);
#685=ORIENTED_EDGE('',*,*,#532,.F.);
#686=ORIENTED_EDGE('',*,*,#531,.F.);
#687=ORIENTED_EDGE('',*,*,#533,.F.);
#688=ORIENTED_EDGE('',*,*,#534,.F.);
#689=ORIENTED_EDGE('',*,*,#535,.T.);
#690=ORIENTED_EDGE('',*,*,#536,.T.);
#691=ORIENTED_EDGE('',*,*,#537,.T.);
#692=ORIENTED_EDGE('',*,*,#535,.F.);
#693=ORIENTED_EDGE('',*,*,#537,.F.);
#694=ORIENTED_EDGE('',*,*,#536,.F.);
#695=ORIENTED_EDGE('',*,*,#538,.F.);
#696=ORIENTED_EDGE('',*,*,#539,.F.);
#697=ORIENTED_EDGE('',*,*,#540,.T.);
#698=ORIENTED_EDGE('',*,*,#541,.T.);
#699=ORIENTED_EDGE('',*,*,#542,.T.);
#700=ORIENTED_EDGE('',*,*,#540,.F.);
#701=ORIENTED_EDGE('',*,*,#542,.F.);
#702=ORIENTED_EDGE('',*,*,#541,.F.);
#703=ORIENTED_EDGE('',*,*,#543,.F.);
#704=ORIENTED_EDGE('',*,*,#544,.T.);
#705=ORIENTED_EDGE('',*,*,#545,.F.);
#706=ORIENTED_EDGE('',*,*,#546,.F.);
#707=ORIENTED_EDGE('',*,*,#547,.F.);
#708=ORIENTED_EDGE('',*,*,#487,.F.);
#709=ORIENTED_EDGE('',*,*,#548,.F.);
#710=ORIENTED_EDGE('',*,*,#544,.F.);
#711=ORIENTED_EDGE('',*,*,#548,.T.);
#712=ORIENTED_EDGE('',*,*,#486,.F.);
#713=ORIENTED_EDGE('',*,*,#549,.F.);
#714=ORIENTED_EDGE('',*,*,#545,.T.);
#715=ORIENTED_EDGE('',*,*,#528,.T.);
#716=ORIENTED_EDGE('',*,*,#529,.T.);
#717=ORIENTED_EDGE('',*,*,#550,.F.);
#718=ORIENTED_EDGE('',*,*,#551,.F.);
#719=ORIENTED_EDGE('',*,*,#552,.F.);
#720=ORIENTED_EDGE('',*,*,#553,.F.);
#721=ORIENTED_EDGE('',*,*,#554,.F.);
#722=ORIENTED_EDGE('',*,*,#553,.T.);
#723=ORIENTED_EDGE('',*,*,#555,.F.);
#724=ORIENTED_EDGE('',*,*,#556,.F.);
#725=ORIENTED_EDGE('',*,*,#555,.T.);
#726=ORIENTED_EDGE('',*,*,#552,.T.);
#727=ORIENTED_EDGE('',*,*,#557,.F.);
#728=ORIENTED_EDGE('',*,*,#558,.F.);
#729=ORIENTED_EDGE('',*,*,#533,.T.);
#730=ORIENTED_EDGE('',*,*,#534,.T.);
#731=ORIENTED_EDGE('',*,*,#559,.F.);
#732=ORIENTED_EDGE('',*,*,#560,.F.);
#733=ORIENTED_EDGE('',*,*,#561,.F.);
#734=ORIENTED_EDGE('',*,*,#562,.F.);
#735=ORIENTED_EDGE('',*,*,#563,.F.);
#736=ORIENTED_EDGE('',*,*,#562,.T.);
#737=ORIENTED_EDGE('',*,*,#564,.F.);
#738=ORIENTED_EDGE('',*,*,#565,.F.);
#739=ORIENTED_EDGE('',*,*,#566,.F.);
#740=ORIENTED_EDGE('',*,*,#567,.F.);
#741=ORIENTED_EDGE('',*,*,#564,.T.);
#742=ORIENTED_EDGE('',*,*,#561,.T.);
#743=ORIENTED_EDGE('',*,*,#538,.T.);
#744=ORIENTED_EDGE('',*,*,#539,.T.);
#745=ORIENTED_EDGE('',*,*,#568,.F.);
#746=ORIENTED_EDGE('',*,*,#569,.F.);
#747=ORIENTED_EDGE('',*,*,#570,.F.);
#748=ORIENTED_EDGE('',*,*,#571,.F.);
#749=ORIENTED_EDGE('',*,*,#572,.F.);
#750=ORIENTED_EDGE('',*,*,#571,.T.);
#751=ORIENTED_EDGE('',*,*,#573,.F.);
#752=ORIENTED_EDGE('',*,*,#489,.F.);
#753=ORIENTED_EDGE('',*,*,#490,.F.);
#754=ORIENTED_EDGE('',*,*,#573,.T.);
#755=ORIENTED_EDGE('',*,*,#570,.T.);
#756=ORIENTED_EDGE('',*,*,#574,.F.);
#757=ORIENTED_EDGE('',*,*,#523,.T.);
#758=ORIENTED_EDGE('',*,*,#524,.T.);
#759=ORIENTED_EDGE('',*,*,#546,.T.);
#760=ORIENTED_EDGE('',*,*,#549,.T.);
#761=ORIENTED_EDGE('',*,*,#485,.F.);
#762=ORIENTED_EDGE('',*,*,#575,.F.);
#763=ORIENTED_EDGE('',*,*,#576,.T.);
#764=ORIENTED_EDGE('',*,*,#566,.T.);
#765=ORIENTED_EDGE('',*,*,#560,.T.);
#766=ORIENTED_EDGE('',*,*,#577,.F.);
#767=ORIENTED_EDGE('',*,*,#556,.T.);
#768=ORIENTED_EDGE('',*,*,#558,.T.);
#769=ORIENTED_EDGE('',*,*,#578,.F.);
#770=ORIENTED_EDGE('',*,*,#579,.F.);
#771=ORIENTED_EDGE('',*,*,#491,.T.);
#772=ORIENTED_EDGE('',*,*,#574,.T.);
#773=ORIENTED_EDGE('',*,*,#569,.T.);
#774=ORIENTED_EDGE('',*,*,#580,.F.);
#775=ORIENTED_EDGE('',*,*,#551,.T.);
#776=ORIENTED_EDGE('',*,*,#581,.F.);
#777=ORIENTED_EDGE('',*,*,#565,.T.);
#778=ORIENTED_EDGE('',*,*,#567,.T.);
#779=ORIENTED_EDGE('',*,*,#576,.F.);
#780=ORIENTED_EDGE('',*,*,#582,.F.);
#781=ORIENTED_EDGE('',*,*,#578,.T.);
#782=ORIENTED_EDGE('',*,*,#557,.T.);
#783=ORIENTED_EDGE('',*,*,#543,.T.);
#784=ORIENTED_EDGE('',*,*,#577,.T.);
#785=ORIENTED_EDGE('',*,*,#559,.T.);
#786=ORIENTED_EDGE('',*,*,#563,.T.);
#787=ORIENTED_EDGE('',*,*,#581,.T.);
#788=ORIENTED_EDGE('',*,*,#550,.T.);
#789=ORIENTED_EDGE('',*,*,#554,.T.);
#790=ORIENTED_EDGE('',*,*,#580,.T.);
#791=ORIENTED_EDGE('',*,*,#568,.T.);
#792=ORIENTED_EDGE('',*,*,#572,.T.);
#793=ORIENTED_EDGE('',*,*,#488,.T.);
#794=ORIENTED_EDGE('',*,*,#547,.T.);
#795=ORIENTED_EDGE('',*,*,#493,.T.);
#796=ORIENTED_EDGE('',*,*,#494,.T.);
#797=ORIENTED_EDGE('',*,*,#514,.F.);
#798=ORIENTED_EDGE('',*,*,#583,.F.);
#799=ORIENTED_EDGE('',*,*,#584,.F.);
#800=ORIENTED_EDGE('',*,*,#511,.F.);
#801=ORIENTED_EDGE('',*,*,#505,.F.);
#802=ORIENTED_EDGE('',*,*,#512,.T.);
#803=ORIENTED_EDGE('',*,*,#584,.T.);
#804=ORIENTED_EDGE('',*,*,#585,.F.);
#805=ORIENTED_EDGE('',*,*,#504,.F.);
#806=ORIENTED_EDGE('',*,*,#585,.T.);
#807=ORIENTED_EDGE('',*,*,#583,.T.);
#808=ORIENTED_EDGE('',*,*,#513,.F.);
#809=ORIENTED_EDGE('',*,*,#516,.T.);
#810=ORIENTED_EDGE('',*,*,#586,.T.);
#811=ORIENTED_EDGE('',*,*,#587,.F.);
#812=ORIENTED_EDGE('',*,*,#588,.F.);
#813=ORIENTED_EDGE('',*,*,#517,.T.);
#814=ORIENTED_EDGE('',*,*,#588,.T.);
#815=ORIENTED_EDGE('',*,*,#589,.F.);
#816=ORIENTED_EDGE('',*,*,#590,.F.);
#817=ORIENTED_EDGE('',*,*,#518,.T.);
#818=ORIENTED_EDGE('',*,*,#590,.T.);
#819=ORIENTED_EDGE('',*,*,#591,.F.);
#820=ORIENTED_EDGE('',*,*,#592,.F.);
#821=ORIENTED_EDGE('',*,*,#593,.F.);
#822=ORIENTED_EDGE('',*,*,#594,.F.);
#823=ORIENTED_EDGE('',*,*,#519,.T.);
#824=ORIENTED_EDGE('',*,*,#592,.T.);
#825=ORIENTED_EDGE('',*,*,#595,.F.);
#826=ORIENTED_EDGE('',*,*,#474,.F.);
#827=ORIENTED_EDGE('',*,*,#483,.T.);
#828=ORIENTED_EDGE('',*,*,#478,.F.);
#829=ORIENTED_EDGE('',*,*,#520,.T.);
#830=ORIENTED_EDGE('',*,*,#594,.T.);
#831=ORIENTED_EDGE('',*,*,#596,.F.);
#832=ORIENTED_EDGE('',*,*,#597,.F.);
#833=ORIENTED_EDGE('',*,*,#521,.T.);
#834=ORIENTED_EDGE('',*,*,#597,.T.);
#835=ORIENTED_EDGE('',*,*,#598,.F.);
#836=ORIENTED_EDGE('',*,*,#599,.F.);
#837=ORIENTED_EDGE('',*,*,#522,.T.);
#838=ORIENTED_EDGE('',*,*,#599,.T.);
#839=ORIENTED_EDGE('',*,*,#600,.F.);
#840=ORIENTED_EDGE('',*,*,#601,.F.);
#841=ORIENTED_EDGE('',*,*,#515,.T.);
#842=ORIENTED_EDGE('',*,*,#601,.T.);
#843=ORIENTED_EDGE('',*,*,#602,.F.);
#844=ORIENTED_EDGE('',*,*,#586,.F.);
#845=ORIENTED_EDGE('',*,*,#481,.T.);
#846=ORIENTED_EDGE('',*,*,#492,.T.);
#847=ORIENTED_EDGE('',*,*,#579,.T.);
#848=ORIENTED_EDGE('',*,*,#582,.T.);
#849=ORIENTED_EDGE('',*,*,#575,.T.);
#850=ORIENTED_EDGE('',*,*,#484,.T.);
#851=ORIENTED_EDGE('',*,*,#475,.T.);
#852=ORIENTED_EDGE('',*,*,#595,.T.);
#853=ORIENTED_EDGE('',*,*,#591,.T.);
#854=ORIENTED_EDGE('',*,*,#589,.T.);
#855=ORIENTED_EDGE('',*,*,#587,.T.);
#856=ORIENTED_EDGE('',*,*,#602,.T.);
#857=ORIENTED_EDGE('',*,*,#600,.T.);
#858=ORIENTED_EDGE('',*,*,#598,.T.);
#859=ORIENTED_EDGE('',*,*,#596,.T.);
#860=ORIENTED_EDGE('',*,*,#593,.T.);
#861=CYLINDRICAL_SURFACE('',#987,2.);
#862=CYLINDRICAL_SURFACE('',#990,2.);
#863=CYLINDRICAL_SURFACE('',#995,2.5);
#864=CYLINDRICAL_SURFACE('',#1011,1.);
#865=CYLINDRICAL_SURFACE('',#1017,1.00000000000001);
#866=CYLINDRICAL_SURFACE('',#1023,1.);
#867=CYLINDRICAL_SURFACE('',#1029,1.);
#868=CYLINDRICAL_SURFACE('',#1053,1.99999999999999);
#869=CYLINDRICAL_SURFACE('',#1056,2.);
#870=CYLINDRICAL_SURFACE('',#1059,1.99999999999999);
#871=CYLINDRICAL_SURFACE('',#1062,2.0000000000001);
#872=STYLED_ITEM('',(#1608),#920);
#873=STYLED_ITEM('',(#1608),#921);
#874=STYLED_ITEM('',(#1608),#922);
#875=STYLED_ITEM('',(#1608),#923);
#876=STYLED_ITEM('',(#1608),#924);
#877=STYLED_ITEM('',(#1608),#925);
#878=STYLED_ITEM('',(#1608),#926);
#879=STYLED_ITEM('',(#1608),#927);
#880=STYLED_ITEM('',(#1608),#928);
#881=STYLED_ITEM('',(#1608),#929);
#882=STYLED_ITEM('',(#1608),#930);
#883=STYLED_ITEM('',(#1608),#931);
#884=STYLED_ITEM('',(#1608),#932);
#885=STYLED_ITEM('',(#1608),#933);
#886=STYLED_ITEM('',(#1608),#934);
#887=STYLED_ITEM('',(#1608),#935);
#888=STYLED_ITEM('',(#1608),#936);
#889=STYLED_ITEM('',(#1608),#937);
#890=STYLED_ITEM('',(#1608),#938);
#891=STYLED_ITEM('',(#1608),#939);
#892=STYLED_ITEM('',(#1608),#940);
#893=STYLED_ITEM('',(#1608),#941);
#894=STYLED_ITEM('',(#1608),#942);
#895=STYLED_ITEM('',(#1608),#943);
#896=STYLED_ITEM('',(#1608),#944);
#897=STYLED_ITEM('',(#1608),#945);
#898=STYLED_ITEM('',(#1608),#946);
#899=STYLED_ITEM('',(#1608),#947);
#900=STYLED_ITEM('',(#1608),#948);
#901=STYLED_ITEM('',(#1608),#949);
#902=STYLED_ITEM('',(#1608),#950);
#903=STYLED_ITEM('',(#1608),#951);
#904=STYLED_ITEM('',(#1608),#952);
#905=STYLED_ITEM('',(#1608),#953);
#906=STYLED_ITEM('',(#1608),#954);
#907=STYLED_ITEM('',(#1608),#955);
#908=STYLED_ITEM('',(#1608),#956);
#909=STYLED_ITEM('',(#1608),#957);
#910=STYLED_ITEM('',(#1608),#958);
#911=STYLED_ITEM('',(#1608),#959);
#912=STYLED_ITEM('',(#1608),#960);
#913=STYLED_ITEM('',(#1608),#961);
#914=STYLED_ITEM('',(#1608),#962);
#915=STYLED_ITEM('',(#1608),#963);
#916=STYLED_ITEM('',(#1608),#964);
#917=STYLED_ITEM('',(#1608),#965);
#918=STYLED_ITEM('',(#1608),#966);
#919=STYLED_ITEM('',(#1607),#13);
#920=ADVANCED_FACE('',(#58),#861,.F.);
#921=ADVANCED_FACE('',(#59),#862,.F.);
#922=ADVANCED_FACE('',(#60),#22,.F.);
#923=ADVANCED_FACE('',(#61),#23,.F.);
#924=ADVANCED_FACE('',(#62),#863,.F.);
#925=ADVANCED_FACE('',(#63),#24,.T.);
#926=ADVANCED_FACE('',(#64),#25,.T.);
#927=ADVANCED_FACE('',(#65),#26,.T.);
#928=ADVANCED_FACE('',(#66),#27,.T.);
#929=ADVANCED_FACE('',(#67),#28,.T.);
#930=ADVANCED_FACE('',(#68),#29,.T.);
#931=ADVANCED_FACE('',(#69,#14,#15),#30,.F.);
#932=ADVANCED_FACE('',(#70),#864,.F.);
#933=ADVANCED_FACE('',(#71),#31,.T.);
#934=ADVANCED_FACE('',(#72),#865,.F.);
#935=ADVANCED_FACE('',(#73),#32,.T.);
#936=ADVANCED_FACE('',(#74),#866,.F.);
#937=ADVANCED_FACE('',(#75),#33,.T.);
#938=ADVANCED_FACE('',(#76),#867,.F.);
#939=ADVANCED_FACE('',(#77),#34,.T.);
#940=ADVANCED_FACE('',(#78),#35,.T.);
#941=ADVANCED_FACE('',(#79),#36,.T.);
#942=ADVANCED_FACE('',(#80,#16),#37,.T.);
#943=ADVANCED_FACE('',(#81),#38,.T.);
#944=ADVANCED_FACE('',(#82),#39,.T.);
#945=ADVANCED_FACE('',(#83,#17),#40,.T.);
#946=ADVANCED_FACE('',(#84),#41,.T.);
#947=ADVANCED_FACE('',(#85),#42,.T.);
#948=ADVANCED_FACE('',(#86,#18),#43,.T.);
#949=ADVANCED_FACE('',(#87),#44,.T.);
#950=ADVANCED_FACE('',(#88),#45,.T.);
#951=ADVANCED_FACE('',(#89,#19),#46,.T.);
#952=ADVANCED_FACE('',(#90),#47,.F.);
#953=ADVANCED_FACE('',(#91),#48,.F.);
#954=ADVANCED_FACE('',(#92),#49,.F.);
#955=ADVANCED_FACE('',(#93,#20,#21),#50,.T.);
#956=ADVANCED_FACE('',(#94),#51,.T.);
#957=ADVANCED_FACE('',(#95),#52,.T.);
#958=ADVANCED_FACE('',(#96),#868,.T.);
#959=ADVANCED_FACE('',(#97),#53,.T.);
#960=ADVANCED_FACE('',(#98),#869,.T.);
#961=ADVANCED_FACE('',(#99),#54,.T.);
#962=ADVANCED_FACE('',(#100),#870,.T.);
#963=ADVANCED_FACE('',(#101),#55,.T.);
#964=ADVANCED_FACE('',(#102),#871,.T.);
#965=ADVANCED_FACE('',(#103),#56,.T.);
#966=ADVANCED_FACE('',(#104),#57,.T.);
#967=CLOSED_SHELL('',(#920,#921,#922,#923,#924,#925,#926,#927,#928,#929,
#930,#931,#932,#933,#934,#935,#936,#937,#938,#939,#940,#941,#942,#943,#944,
#945,#946,#947,#948,#949,#950,#951,#952,#953,#954,#955,#956,#957,#958,#959,
#960,#961,#962,#963,#964,#965,#966));
#968=DERIVED_UNIT_ELEMENT(#970,1.);
#969=DERIVED_UNIT_ELEMENT(#1593,3.);
#970=(
MASS_UNIT()
NAMED_UNIT(*)
SI_UNIT($,.GRAM.)
);
#971=DERIVED_UNIT((#968,#969));
#972=MEASURE_REPRESENTATION_ITEM('density measure',
POSITIVE_RATIO_MEASURE(1.),#971);
#973=PROPERTY_DEFINITION_REPRESENTATION(#978,#975);
#974=PROPERTY_DEFINITION_REPRESENTATION(#979,#976);
#975=REPRESENTATION('material name',(#977),#1590);
#976=REPRESENTATION('density',(#972),#1590);
#977=DESCRIPTIVE_REPRESENTATION_ITEM('Generisch','Generisch');
#978=PROPERTY_DEFINITION('material property','material name',#1600);
#979=PROPERTY_DEFINITION('material property','density of part',#1600);
#980=DATE_TIME_ROLE('creation_date');
#981=APPLIED_DATE_AND_TIME_ASSIGNMENT(#982,#980,(#1600));
#982=DATE_AND_TIME(#983,#984);
#983=CALENDAR_DATE(2023,3,6);
#984=LOCAL_TIME(0,0,0.,#985);
#985=COORDINATED_UNIVERSAL_TIME_OFFSET(0,0,.BEHIND.);
#986=AXIS2_PLACEMENT_3D('placement',#1323,#1066,#1067);
#987=AXIS2_PLACEMENT_3D('',#1324,#1068,#1069);
#988=AXIS2_PLACEMENT_3D('',#1327,#1070,#1071);
#989=AXIS2_PLACEMENT_3D('',#1331,#1073,#1074);
#990=AXIS2_PLACEMENT_3D('',#1333,#1076,#1077);
#991=AXIS2_PLACEMENT_3D('',#1336,#1078,#1079);
#992=AXIS2_PLACEMENT_3D('',#1340,#1081,#1082);
#993=AXIS2_PLACEMENT_3D('',#1342,#1084,#1085);
#994=AXIS2_PLACEMENT_3D('',#1345,#1088,#1089);
#995=AXIS2_PLACEMENT_3D('',#1363,#1099,#1100);
#996=AXIS2_PLACEMENT_3D('',#1366,#1101,#1102);
#997=AXIS2_PLACEMENT_3D('',#1367,#1103,#1104);
#998=AXIS2_PLACEMENT_3D('',#1371,#1106,#1107);
#999=AXIS2_PLACEMENT_3D('',#1372,#1108,#1109);
#1000=AXIS2_PLACEMENT_3D('',#1373,#1110,#1111);
#1001=AXIS2_PLACEMENT_3D('',#1382,#1116,#1117);
#1002=AXIS2_PLACEMENT_3D('',#1388,#1121,#1122);
#1003=AXIS2_PLACEMENT_3D('',#1394,#1126,#1127);
#1004=AXIS2_PLACEMENT_3D('',#1397,#1130,#1131);
#1005=AXIS2_PLACEMENT_3D('',#1403,#1135,#1136);
#1006=AXIS2_PLACEMENT_3D('',#1407,#1139,#1140);
#1007=AXIS2_PLACEMENT_3D('',#1412,#1142,#1143);
#1008=AXIS2_PLACEMENT_3D('',#1416,#1145,#1146);
#1009=AXIS2_PLACEMENT_3D('',#1420,#1148,#1149);
#1010=AXIS2_PLACEMENT_3D('',#1423,#1151,#1152);
#1011=AXIS2_PLACEMENT_3D('',#1424,#1153,#1154);
#1012=AXIS2_PLACEMENT_3D('',#1427,#1155,#1156);
#1013=AXIS2_PLACEMENT_3D('',#1428,#1157,#1158);
#1014=AXIS2_PLACEMENT_3D('',#1432,#1160,#1161);
#1015=AXIS2_PLACEMENT_3D('',#1433,#1162,#1163);
#1016=AXIS2_PLACEMENT_3D('',#1434,#1164,#1165);
#1017=AXIS2_PLACEMENT_3D('',#1435,#1166,#1167);
#1018=AXIS2_PLACEMENT_3D('',#1438,#1168,#1169);
#1019=AXIS2_PLACEMENT_3D('',#1439,#1170,#1171);
#1020=AXIS2_PLACEMENT_3D('',#1443,#1173,#1174);
#1021=AXIS2_PLACEMENT_3D('',#1444,#1175,#1176);
#1022=AXIS2_PLACEMENT_3D('',#1445,#1177,#1178);
#1023=AXIS2_PLACEMENT_3D('',#1446,#1179,#1180);
#1024=AXIS2_PLACEMENT_3D('',#1449,#1181,#1182);
#1025=AXIS2_PLACEMENT_3D('',#1450,#1183,#1184);
#1026=AXIS2_PLACEMENT_3D('',#1454,#1186,#1187);
#1027=AXIS2_PLACEMENT_3D('',#1455,#1188,#1189);
#1028=AXIS2_PLACEMENT_3D('',#1456,#1190,#1191);
#1029=AXIS2_PLACEMENT_3D('',#1457,#1192,#1193);
#1030=AXIS2_PLACEMENT_3D('',#1460,#1194,#1195);
#1031=AXIS2_PLACEMENT_3D('',#1461,#1196,#1197);
#1032=AXIS2_PLACEMENT_3D('',#1465,#1199,#1200);
#1033=AXIS2_PLACEMENT_3D('',#1466,#1201,#1202);
#1034=AXIS2_PLACEMENT_3D('',#1467,#1203,#1204);
#1035=AXIS2_PLACEMENT_3D('',#1468,#1205,#1206);
#1036=AXIS2_PLACEMENT_3D('',#1477,#1211,#1212);
#1037=AXIS2_PLACEMENT_3D('',#1480,#1215,#1216);
#1038=AXIS2_PLACEMENT_3D('',#1482,#1218,#1219);
#1039=AXIS2_PLACEMENT_3D('',#1491,#1224,#1225);
#1040=AXIS2_PLACEMENT_3D('',#1497,#1229,#1230);
#1041=AXIS2_PLACEMENT_3D('',#1501,#1233,#1234);
#1042=AXIS2_PLACEMENT_3D('',#1510,#1239,#1240);
#1043=AXIS2_PLACEMENT_3D('',#1516,#1244,#1245);
#1044=AXIS2_PLACEMENT_3D('',#1520,#1248,#1249);
#1045=AXIS2_PLACEMENT_3D('',#1529,#1254,#1255);
#1046=AXIS2_PLACEMENT_3D('',#1532,#1258,#1259);
#1047=AXIS2_PLACEMENT_3D('',#1534,#1261,#1262);
#1048=AXIS2_PLACEMENT_3D('',#1539,#1266,#1267);
#1049=AXIS2_PLACEMENT_3D('',#1544,#1271,#1272);
#1050=AXIS2_PLACEMENT_3D('',#1547,#1275,#1276);
#1051=AXIS2_PLACEMENT_3D('',#1551,#1279,#1280);
#1052=AXIS2_PLACEMENT_3D('',#1553,#1282,#1283);
#1053=AXIS2_PLACEMENT_3D('',#1554,#1284,#1285);
#1054=AXIS2_PLACEMENT_3D('',#1558,#1287,#1288);
#1055=AXIS2_PLACEMENT_3D('',#1560,#1290,#1291);
#1056=AXIS2_PLACEMENT_3D('',#1564,#1294,#1295);
#1057=AXIS2_PLACEMENT_3D('',#1566,#1296,#1297);
#1058=AXIS2_PLACEMENT_3D('',#1568,#1299,#1300);
#1059=AXIS2_PLACEMENT_3D('',#1573,#1304,#1305);
#1060=AXIS2_PLACEMENT_3D('',#1575,#1306,#1307);
#1061=AXIS2_PLACEMENT_3D('',#1577,#1309,#1310);
#1062=AXIS2_PLACEMENT_3D('',#1581,#1313,#1314);
#1063=AXIS2_PLACEMENT_3D('',#1583,#1315,#1316);
#1064=AXIS2_PLACEMENT_3D('',#1585,#1318,#1319);
#1065=AXIS2_PLACEMENT_3D('',#1587,#1321,#1322);
#1066=DIRECTION('axis',(0.,0.,1.));
#1067=DIRECTION('refdir',(1.,0.,0.));
#1068=DIRECTION('center_axis',(0.,0.,-1.));
#1069=DIRECTION('ref_axis',(0.707106781186549,-0.707106781186546,0.));
#1070=DIRECTION('center_axis',(0.,0.,1.));
#1071=DIRECTION('ref_axis',(0.707106781186549,-0.707106781186546,0.));
#1072=DIRECTION('',(0.,0.,1.));
#1073=DIRECTION('center_axis',(0.,0.,-1.));
#1074=DIRECTION('ref_axis',(0.707106781186549,-0.707106781186546,0.));
#1075=DIRECTION('',(0.,0.,1.));
#1076=DIRECTION('center_axis',(0.,0.,-1.));
#1077=DIRECTION('ref_axis',(-0.707106781186546,-0.707106781186549,0.));
#1078=DIRECTION('center_axis',(0.,0.,1.));
#1079=DIRECTION('ref_axis',(-0.707106781186546,-0.707106781186549,0.));
#1080=DIRECTION('',(0.,0.,-1.));
#1081=DIRECTION('center_axis',(0.,0.,-1.));
#1082=DIRECTION('ref_axis',(-0.707106781186546,-0.707106781186549,0.));
#1083=DIRECTION('',(0.,0.,-1.));
#1084=DIRECTION('center_axis',(-2.56205313375036E-16,-1.,0.));
#1085=DIRECTION('ref_axis',(-1.,2.56205313375036E-16,0.));
#1086=DIRECTION('',(1.,-2.56205313375036E-16,0.));
#1087=DIRECTION('',(-1.,2.56205313375036E-16,0.));
#1088=DIRECTION('center_axis',(0.,0.,1.));
#1089=DIRECTION('ref_axis',(1.,0.,0.));
#1090=DIRECTION('',(-1.,0.,0.));
#1091=DIRECTION('',(0.,-1.,0.));
#1092=DIRECTION('',(-1.,0.,0.));
#1093=DIRECTION('',(0.,-1.,0.));
#1094=DIRECTION('',(-1.,0.,0.));
#1095=DIRECTION('',(0.,1.,0.));
#1096=DIRECTION('',(-1.,0.,0.));
#1097=DIRECTION('',(0.,-1.,0.));
#1098=DIRECTION('',(-1.,0.,0.));
#1099=DIRECTION('center_axis',(0.,-1.,0.));
#1100=DIRECTION('ref_axis',(1.,0.,-4.22942104619107E-16));
#1101=DIRECTION('center_axis',(0.,-1.,0.));
#1102=DIRECTION('ref_axis',(1.,0.,-4.22942104619107E-16));
#1103=DIRECTION('center_axis',(0.,-1.,0.));
#1104=DIRECTION('ref_axis',(1.,0.,-4.22942104619107E-16));
#1105=DIRECTION('',(0.,-1.,0.));
#1106=DIRECTION('center_axis',(0.,1.,0.));
#1107=DIRECTION('ref_axis',(1.,0.,-4.22942104619107E-16));
#1108=DIRECTION('center_axis',(0.,1.,0.));
#1109=DIRECTION('ref_axis',(1.,0.,-4.22942104619107E-16));
#1110=DIRECTION('center_axis',(0.707106781186555,-0.70710678118654,-4.68102099483367E-16));
#1111=DIRECTION('ref_axis',(-6.6199633766469E-16,0.,-1.));
#1112=DIRECTION('',(6.6199633766469E-16,0.,1.));
#1113=DIRECTION('',(-0.577350269189616,-0.577350269189628,0.577350269189634));
#1114=DIRECTION('',(-6.6199633766469E-16,0.,-1.));
#1115=DIRECTION('',(0.577350269189622,0.577350269189624,0.577350269189632));
#1116=DIRECTION('center_axis',(5.40246867504081E-16,-0.707106781186565,
0.70710678118653));
#1117=DIRECTION('ref_axis',(1.,0.,-7.64024447053871E-16));
#1118=DIRECTION('',(1.,0.,-7.64024447053871E-16));
#1119=DIRECTION('',(-0.577350269189615,0.577350269189617,0.577350269189646));
#1120=DIRECTION('',(-1.,0.,7.64024447053871E-16));
#1121=DIRECTION('center_axis',(-0.707106781186549,-0.707106781186546,4.68102099483362E-16));
#1122=DIRECTION('ref_axis',(6.6199633766469E-16,0.,1.));
#1123=DIRECTION('',(-6.6199633766469E-16,0.,-1.));
#1124=DIRECTION('',(6.6199633766469E-16,0.,1.));
#1125=DIRECTION('',(-0.577350269189623,0.577350269189625,-0.577350269189629));
#1126=DIRECTION('center_axis',(-3.03888862971052E-16,-0.70710678118655,
-0.707106781186545));
#1127=DIRECTION('ref_axis',(-1.,0.,4.29763751467802E-16));
#1128=DIRECTION('',(1.,0.,-4.29763751467802E-16));
#1129=DIRECTION('',(-1.,0.,4.29763751467802E-16));
#1130=DIRECTION('center_axis',(-4.29763751467802E-16,0.,-1.));
#1131=DIRECTION('ref_axis',(-1.,0.,4.29763751467802E-16));
#1132=DIRECTION('',(0.,1.,0.));
#1133=DIRECTION('',(1.,0.,-4.29763751467802E-16));
#1134=DIRECTION('',(0.,1.,0.));
#1135=DIRECTION('center_axis',(1.,0.,-6.6199633766469E-16));
#1136=DIRECTION('ref_axis',(-6.6199633766469E-16,0.,-1.));
#1137=DIRECTION('',(0.,1.,0.));
#1138=DIRECTION('',(6.6199633766469E-16,0.,1.));
#1139=DIRECTION('center_axis',(0.,1.,0.));
#1140=DIRECTION('ref_axis',(0.,0.,1.));
#1141=DIRECTION('',(-1.,0.,6.125368411725E-16));
#1142=DIRECTION('center_axis',(0.,1.,0.));
#1143=DIRECTION('ref_axis',(1.,0.,0.));
#1144=DIRECTION('',(0.,0.,-1.));
#1145=DIRECTION('center_axis',(0.,1.,0.));
#1146=DIRECTION('ref_axis',(0.,0.,1.));
#1147=DIRECTION('',(1.,0.,0.));
#1148=DIRECTION('center_axis',(0.,1.,0.));
#1149=DIRECTION('ref_axis',(-1.,0.,-3.33066907387548E-15));
#1150=DIRECTION('',(0.,0.,1.));
#1151=DIRECTION('center_axis',(0.,1.,0.));
#1152=DIRECTION('ref_axis',(0.,0.,-1.));
#1153=DIRECTION('center_axis',(0.,-1.,0.));
#1154=DIRECTION('ref_axis',(1.,0.,-3.0626842058625E-16));
#1155=DIRECTION('center_axis',(0.,-1.,0.));
#1156=DIRECTION('ref_axis',(1.,0.,-3.0626842058625E-16));
#1157=DIRECTION('center_axis',(0.,-1.,0.));
#1158=DIRECTION('ref_axis',(1.,0.,-3.0626842058625E-16));
#1159=DIRECTION('',(0.,-1.,0.));
#1160=DIRECTION('center_axis',(0.,-1.,0.));
#1161=DIRECTION('ref_axis',(1.,0.,-3.0626842058625E-16));
#1162=DIRECTION('center_axis',(0.,-1.,0.));
#1163=DIRECTION('ref_axis',(1.,0.,-3.0626842058625E-16));
#1164=DIRECTION('center_axis',(0.,1.,0.));
#1165=DIRECTION('ref_axis',(0.,0.,1.));
#1166=DIRECTION('center_axis',(0.,-1.,0.));
#1167=DIRECTION('ref_axis',(1.,0.,-3.0626842058625E-16));
#1168=DIRECTION('center_axis',(0.,-1.,0.));
#1169=DIRECTION('ref_axis',(1.,0.,-3.0626842058625E-16));
#1170=DIRECTION('center_axis',(0.,-1.,0.));
#1171=DIRECTION('ref_axis',(1.,0.,-3.0626842058625E-16));
#1172=DIRECTION('',(0.,-1.,0.));
#1173=DIRECTION('center_axis',(0.,-1.,0.));
#1174=DIRECTION('ref_axis',(1.,0.,-3.0626842058625E-16));
#1175=DIRECTION('center_axis',(0.,-1.,0.));
#1176=DIRECTION('ref_axis',(1.,0.,-3.0626842058625E-16));
#1177=DIRECTION('center_axis',(0.,1.,0.));
#1178=DIRECTION('ref_axis',(0.,0.,1.));
#1179=DIRECTION('center_axis',(0.,-1.,0.));
#1180=DIRECTION('ref_axis',(1.,0.,-3.0626842058625E-16));
#1181=DIRECTION('center_axis',(0.,-1.,0.));
#1182=DIRECTION('ref_axis',(1.,0.,-3.0626842058625E-16));
#1183=DIRECTION('center_axis',(0.,-1.,0.));
#1184=DIRECTION('ref_axis',(1.,0.,-3.0626842058625E-16));
#1185=DIRECTION('',(0.,-1.,0.));
#1186=DIRECTION('center_axis',(0.,-1.,0.));
#1187=DIRECTION('ref_axis',(1.,0.,-3.0626842058625E-16));
#1188=DIRECTION('center_axis',(0.,-1.,0.));
#1189=DIRECTION('ref_axis',(1.,0.,-3.0626842058625E-16));
#1190=DIRECTION('center_axis',(0.,1.,0.));
#1191=DIRECTION('ref_axis',(0.,0.,1.));
#1192=DIRECTION('center_axis',(0.,-1.,0.));
#1193=DIRECTION('ref_axis',(1.,0.,-3.0626842058625E-16));
#1194=DIRECTION('center_axis',(0.,-1.,0.));
#1195=DIRECTION('ref_axis',(1.,0.,-3.0626842058625E-16));
#1196=DIRECTION('center_axis',(0.,-1.,0.));
#1197=DIRECTION('ref_axis',(1.,0.,-3.0626842058625E-16));
#1198=DIRECTION('',(0.,-1.,0.));
#1199=DIRECTION('center_axis',(0.,-1.,0.));
#1200=DIRECTION('ref_axis',(1.,0.,-3.0626842058625E-16));
#1201=DIRECTION('center_axis',(0.,-1.,0.));
#1202=DIRECTION('ref_axis',(1.,0.,-3.0626842058625E-16));
#1203=DIRECTION('center_axis',(0.,1.,0.));
#1204=DIRECTION('ref_axis',(0.,0.,1.));
#1205=DIRECTION('center_axis',(-3.0626842058625E-16,0.,-1.));
#1206=DIRECTION('ref_axis',(-1.,0.,3.0626842058625E-16));
#1207=DIRECTION('',(1.,0.,-3.0626842058625E-16));
#1208=DIRECTION('',(0.,1.,0.));
#1209=DIRECTION('',(-1.,0.,3.0626842058625E-16));
#1210=DIRECTION('',(0.,1.,0.));
#1211=DIRECTION('center_axis',(-1.,0.,3.0626842058625E-16));
#1212=DIRECTION('ref_axis',(3.0626842058625E-16,0.,1.));
#1213=DIRECTION('',(-3.0626842058625E-16,0.,-1.));
#1214=DIRECTION('',(3.0626842058625E-16,0.,1.));
#1215=DIRECTION('center_axis',(0.,1.,0.));
#1216=DIRECTION('ref_axis',(0.,0.,1.));
#1217=DIRECTION('',(0.,0.,1.));
#1218=DIRECTION('center_axis',(1.,0.,-3.0626842058625E-16));
#1219=DIRECTION('ref_axis',(-3.0626842058625E-16,0.,-1.));
#1220=DIRECTION('',(3.0626842058625E-16,0.,1.));
#1221=DIRECTION('',(0.,-1.,0.));
#1222=DIRECTION('',(-3.0626842058625E-16,0.,-1.));
#1223=DIRECTION('',(0.,1.,0.));
#1224=DIRECTION('center_axis',(-5.26398847882619E-16,0.,1.));
#1225=DIRECTION('ref_axis',(1.,0.,5.26398847882619E-16));
#1226=DIRECTION('',(-1.,0.,-5.26398847882619E-16));
#1227=DIRECTION('',(1.,0.,5.26398847882619E-16));
#1228=DIRECTION('',(0.,1.,0.));
#1229=DIRECTION('center_axis',(0.,1.,0.));
#1230=DIRECTION('ref_axis',(0.,0.,1.));
#1231=DIRECTION('',(1.,0.,-6.125368411725E-16));
#1232=DIRECTION('',(0.,0.,-1.));
#1233=DIRECTION('center_axis',(2.943048104071E-15,0.,1.));
#1234=DIRECTION('ref_axis',(1.,0.,-2.943048104071E-15));
#1235=DIRECTION('',(-1.,0.,2.943048104071E-15));
#1236=DIRECTION('',(0.,-1.,0.));
#1237=DIRECTION('',(1.,0.,-2.943048104071E-15));
#1238=DIRECTION('',(0.,1.,0.));
#1239=DIRECTION('center_axis',(-1.,0.,3.0626842058625E-16));
#1240=DIRECTION('ref_axis',(3.0626842058625E-16,0.,1.));
#1241=DIRECTION('',(-3.0626842058625E-16,0.,-1.));
#1242=DIRECTION('',(3.0626842058625E-16,0.,1.));
#1243=DIRECTION('',(0.,1.,0.));
#1244=DIRECTION('center_axis',(0.,1.,0.));
#1245=DIRECTION('ref_axis',(0.,0.,1.));
#1246=DIRECTION('',(0.,0.,1.));
#1247=DIRECTION('',(1.,0.,-6.125368411725E-16));
#1248=DIRECTION('center_axis',(-3.0626842058625E-16,0.,-1.));
#1249=DIRECTION('ref_axis',(-1.,0.,3.0626842058625E-16));
#1250=DIRECTION('',(1.,0.,-3.0626842058625E-16));
#1251=DIRECTION('',(0.,-1.,0.));
#1252=DIRECTION('',(-1.,0.,3.0626842058625E-16));
#1253=DIRECTION('',(0.,1.,0.));
#1254=DIRECTION('center_axis',(1.,0.,-5.17739472895804E-16));
#1255=DIRECTION('ref_axis',(-5.17739472895804E-16,0.,-1.));
#1256=DIRECTION('',(5.17739472895804E-16,0.,1.));
#1257=DIRECTION('',(-5.17739472895804E-16,0.,-1.));
#1258=DIRECTION('center_axis',(0.,1.,0.));
#1259=DIRECTION('ref_axis',(0.,0.,1.));
#1260=DIRECTION('',(0.,0.,-1.));
#1261=DIRECTION('center_axis',(1.,0.,0.));
#1262=DIRECTION('ref_axis',(0.,0.,-1.));
#1263=DIRECTION('',(0.,0.,1.));
#1264=DIRECTION('',(0.,1.,0.));
#1265=DIRECTION('',(0.,0.,1.));
#1266=DIRECTION('center_axis',(-1.,0.,0.));
#1267=DIRECTION('ref_axis',(0.,0.,1.));
#1268=DIRECTION('',(0.,-1.,0.));
#1269=DIRECTION('',(0.,0.,-1.));
#1270=DIRECTION('',(0.,0.,-1.));
#1271=DIRECTION('center_axis',(-6.125368411725E-16,0.,-1.));
#1272=DIRECTION('ref_axis',(-1.,0.,6.125368411725E-16));
#1273=DIRECTION('',(1.,0.,-6.125368411725E-16));
#1274=DIRECTION('',(1.,0.,-6.125368411725E-16));
#1275=DIRECTION('center_axis',(0.,1.,0.));
#1276=DIRECTION('ref_axis',(0.,0.,1.));
#1277=DIRECTION('',(-1.,0.,7.64024447053871E-16));
#1278=DIRECTION('',(-6.6199633766469E-16,0.,-1.));
#1279=DIRECTION('center_axis',(-1.,0.,6.6199633766469E-16));
#1280=DIRECTION('ref_axis',(6.6199633766469E-16,0.,1.));
#1281=DIRECTION('',(0.,1.,0.));
#1282=DIRECTION('center_axis',(7.64024447053871E-16,0.,1.));
#1283=DIRECTION('ref_axis',(1.,0.,-7.64024447053871E-16));
#1284=DIRECTION('center_axis',(0.,1.,0.));
#1285=DIRECTION('ref_axis',(1.,0.,0.));
#1286=DIRECTION('',(0.,1.,0.));
#1287=DIRECTION('center_axis',(0.,1.,0.));
#1288=DIRECTION('ref_axis',(1.,0.,0.));
#1289=DIRECTION('',(0.,1.,0.));
#1290=DIRECTION('center_axis',(1.,0.,0.));
#1291=DIRECTION('ref_axis',(0.,0.,-1.));
#1292=DIRECTION('',(0.,0.,-1.));
#1293=DIRECTION('',(0.,1.,0.));
#1294=DIRECTION('center_axis',(0.,1.,0.));
#1295=DIRECTION('ref_axis',(0.,0.,1.));
#1296=DIRECTION('center_axis',(0.,1.,0.));
#1297=DIRECTION('ref_axis',(0.,0.,1.));
#1298=DIRECTION('',(0.,1.,0.));
#1299=DIRECTION('center_axis',(0.,0.,1.));
#1300=DIRECTION('ref_axis',(1.,0.,0.));
#1301=DIRECTION('',(1.,0.,0.));
#1302=DIRECTION('',(0.,1.,0.));
#1303=DIRECTION('',(1.,0.,0.));
#1304=DIRECTION('center_axis',(0.,1.,0.));
#1305=DIRECTION('ref_axis',(-1.,0.,-3.33066907387548E-15));
#1306=DIRECTION('center_axis',(0.,1.,0.));
#1307=DIRECTION('ref_axis',(-1.,0.,-3.33066907387548E-15));
#1308=DIRECTION('',(0.,1.,0.));
#1309=DIRECTION('center_axis',(-1.,0.,0.));
#1310=DIRECTION('ref_axis',(0.,0.,1.));
#1311=DIRECTION('',(0.,0.,1.));
#1312=DIRECTION('',(0.,1.,0.));
#1313=DIRECTION('center_axis',(0.,1.,0.));
#1314=DIRECTION('ref_axis',(0.,0.,-1.));
#1315=DIRECTION('center_axis',(0.,1.,0.));
#1316=DIRECTION('ref_axis',(0.,0.,-1.));
#1317=DIRECTION('',(0.,1.,0.));
#1318=DIRECTION('center_axis',(-6.125368411725E-16,0.,-1.));
#1319=DIRECTION('ref_axis',(-1.,0.,6.125368411725E-16));
#1320=DIRECTION('',(-1.,0.,6.125368411725E-16));
#1321=DIRECTION('center_axis',(0.,1.,0.));
#1322=DIRECTION('ref_axis',(0.,0.,1.));
#1323=CARTESIAN_POINT('',(0.,0.,0.));
#1324=CARTESIAN_POINT('Origin',(-57.5,9.2,0.));
#1325=CARTESIAN_POINT('',(-57.5,7.2,0.));
#1326=CARTESIAN_POINT('',(-55.5,9.2,0.));
#1327=CARTESIAN_POINT('Origin',(-57.5,9.2,0.));
#1328=CARTESIAN_POINT('',(-55.5,9.2,-2.));
#1329=CARTESIAN_POINT('',(-55.5,9.2,-47.25));
#1330=CARTESIAN_POINT('',(-57.5,7.2,-2.));
#1331=CARTESIAN_POINT('Origin',(-57.5,9.2,-2.));
#1332=CARTESIAN_POINT('',(-57.5,7.2,0.));
#1333=CARTESIAN_POINT('Origin',(-66.5,9.2,0.));
#1334=CARTESIAN_POINT('',(-68.5,9.2,0.));
#1335=CARTESIAN_POINT('',(-66.5,7.2,0.));
#1336=CARTESIAN_POINT('Origin',(-66.5,9.2,0.));
#1337=CARTESIAN_POINT('',(-66.5,7.2,-2.));
#1338=CARTESIAN_POINT('',(-66.5,7.2,0.));
#1339=CARTESIAN_POINT('',(-68.5,9.2,-2.));
#1340=CARTESIAN_POINT('Origin',(-66.5,9.2,-2.));
#1341=CARTESIAN_POINT('',(-68.5,9.2,-47.25));
#1342=CARTESIAN_POINT('Origin',(-55.5,7.2,0.));
#1343=CARTESIAN_POINT('',(-86.75,7.20000000000001,-2.));
#1344=CARTESIAN_POINT('',(-86.75,7.20000000000001,0.));
#1345=CARTESIAN_POINT('Origin',(-118.,0.,-2.));
#1346=CARTESIAN_POINT('',(-2.,9.2,-2.));
#1347=CARTESIAN_POINT('',(-89.,9.2,-1.99999999999999));
#1348=CARTESIAN_POINT('',(-1.99999999999999,7.6,-1.99999999999999));
#1349=CARTESIAN_POINT('',(-1.99999999999999,0.,-2.));
#1350=CARTESIAN_POINT('',(-18.,7.6,-1.99999999999999));
#1351=CARTESIAN_POINT('',(-64.,7.6,-2.));
#1352=CARTESIAN_POINT('',(-18.,2.,-1.99999999999999));
#1353=CARTESIAN_POINT('',(-18.,1.,-2.));
#1354=CARTESIAN_POINT('',(-102.,2.,-1.99999999999999));
#1355=CARTESIAN_POINT('',(-89.,2.,-1.99999999999999));
#1356=CARTESIAN_POINT('',(-102.,7.6,-1.99999999999999));
#1357=CARTESIAN_POINT('',(-102.,1.,-2.));
#1358=CARTESIAN_POINT('',(-118.,7.6,-1.99999999999999));
#1359=CARTESIAN_POINT('',(-114.,7.6,-2.));
#1360=CARTESIAN_POINT('',(-118.,9.2,-2.));
#1361=CARTESIAN_POINT('',(-118.,0.,-1.99999999999999));
#1362=CARTESIAN_POINT('',(-89.,9.2,-1.99999999999999));
#1363=CARTESIAN_POINT('Origin',(-4.99999999999995,2.,-94.5));
#1364=CARTESIAN_POINT('',(-2.49999999999995,2.,-94.5));
#1365=CARTESIAN_POINT('',(-7.49999999999994,2.,-94.5));
#1366=CARTESIAN_POINT('Origin',(-4.99999999999995,2.,-94.5));
#1367=CARTESIAN_POINT('Origin',(-4.99999999999995,2.,-94.5));
#1368=CARTESIAN_POINT('',(-7.49999999999994,0.,-94.5));
#1369=CARTESIAN_POINT('',(-7.49999999999994,2.,-94.5));
#1370=CARTESIAN_POINT('',(-2.49999999999995,0.,-94.5));
#1371=CARTESIAN_POINT('Origin',(-4.99999999999995,0.,-94.5));
#1372=CARTESIAN_POINT('Origin',(-4.99999999999995,0.,-94.5));
#1373=CARTESIAN_POINT('Origin',(-106.5,0.5,-54.25));
#1374=CARTESIAN_POINT('',(-106.,1.,-175.));
#1375=CARTESIAN_POINT('',(-106.,1.,-14.));
#1376=CARTESIAN_POINT('',(-106.,1.,-54.25));
#1377=CARTESIAN_POINT('',(-107.,0.,-13.));
#1378=CARTESIAN_POINT('',(-106.,1.,-14.));
#1379=CARTESIAN_POINT('',(-107.,0.,-176.));
#1380=CARTESIAN_POINT('',(-107.,0.,-54.25));
#1381=CARTESIAN_POINT('',(-107.,0.,-176.));
#1382=CARTESIAN_POINT('Origin',(-83.0000000000001,0.5,-175.5));
#1383=CARTESIAN_POINT('',(-12.,0.,-176.));
#1384=CARTESIAN_POINT('',(-83.0000000000001,0.,-176.));
#1385=CARTESIAN_POINT('',(-13.,1.,-175.));
#1386=CARTESIAN_POINT('',(-12.,0.,-176.));
#1387=CARTESIAN_POINT('',(-83.0000000000001,1.,-175.));
#1388=CARTESIAN_POINT('Origin',(-12.5,0.5,-134.75));
#1389=CARTESIAN_POINT('',(-12.9999999999999,1.,-14.));
#1390=CARTESIAN_POINT('',(-13.,1.,-134.75));
#1391=CARTESIAN_POINT('',(-11.9999999999999,0.,-13.));
#1392=CARTESIAN_POINT('',(-12.,0.,-134.75));
#1393=CARTESIAN_POINT('',(-11.9999999999999,0.,-13.));
#1394=CARTESIAN_POINT('Origin',(-36.5,0.5,-13.5));
#1395=CARTESIAN_POINT('',(-36.5,1.,-14.));
#1396=CARTESIAN_POINT('',(-36.5,0.,-13.));
#1397=CARTESIAN_POINT('Origin',(-12.9999999999999,0.,-14.));
#1398=CARTESIAN_POINT('',(-106.,2.,-14.));
#1399=CARTESIAN_POINT('',(-106.,0.,-14.));
#1400=CARTESIAN_POINT('',(-12.9999999999999,2.,-14.));
#1401=CARTESIAN_POINT('',(-36.5,2.,-14.));
#1402=CARTESIAN_POINT('',(-12.9999999999999,0.,-14.));
#1403=CARTESIAN_POINT('Origin',(-106.,0.,-14.));
#1404=CARTESIAN_POINT('',(-106.,2.,-175.));
#1405=CARTESIAN_POINT('',(-106.,0.,-175.));
#1406=CARTESIAN_POINT('',(-106.,2.,-54.25));
#1407=CARTESIAN_POINT('Origin',(-60.0000000000001,0.,-94.5));
#1408=CARTESIAN_POINT('',(-2.,0.,-189.));
#1409=CARTESIAN_POINT('',(-118.,0.,-189.));
#1410=CARTESIAN_POINT('',(-2.00000000000001,0.,-189.));
#1411=CARTESIAN_POINT('',(0.,0.,-187.));
#1412=CARTESIAN_POINT('Origin',(-2.,0.,-187.));
#1413=CARTESIAN_POINT('',(0.,0.,-1.99999999999999));
#1414=CARTESIAN_POINT('',(0.,0.,-1.99999999999999));
#1415=CARTESIAN_POINT('',(-2.,0.,0.));
#1416=CARTESIAN_POINT('Origin',(-2.,0.,-2.));
#1417=CARTESIAN_POINT('',(-118.,0.,0.));
#1418=CARTESIAN_POINT('',(-118.,0.,0.));
#1419=CARTESIAN_POINT('',(-120.,0.,-2.));
#1420=CARTESIAN_POINT('Origin',(-118.,0.,-1.99999999999999));
#1421=CARTESIAN_POINT('',(-120.,0.,-187.));
#1422=CARTESIAN_POINT('',(-120.,0.,-187.));
#1423=CARTESIAN_POINT('Origin',(-118.,0.,-187.));
#1424=CARTESIAN_POINT('Origin',(-112.4,7.6,-8.79999999999999));
#1425=CARTESIAN_POINT('',(-111.4,7.6,-8.79999999999999));
#1426=CARTESIAN_POINT('',(-113.4,7.6,-8.79999999999999));
#1427=CARTESIAN_POINT('Origin',(-112.4,7.6,-8.79999999999999));
#1428=CARTESIAN_POINT('Origin',(-112.4,7.6,-8.79999999999999));
#1429=CARTESIAN_POINT('',(-113.4,2.6,-8.79999999999999));
#1430=CARTESIAN_POINT('',(-113.4,7.6,-8.79999999999999));
#1431=CARTESIAN_POINT('',(-111.4,2.6,-8.79999999999999));
#1432=CARTESIAN_POINT('Origin',(-112.4,2.6,-8.79999999999999));
#1433=CARTESIAN_POINT('Origin',(-112.4,2.6,-8.79999999999999));
#1434=CARTESIAN_POINT('Origin',(-112.4,2.6,-8.79999999999999));
#1435=CARTESIAN_POINT('Origin',(-11.4,7.6,-8.79999999999999));
#1436=CARTESIAN_POINT('',(-10.4,7.6,-8.79999999999999));
#1437=CARTESIAN_POINT('',(-12.4,7.6,-8.79999999999999));
#1438=CARTESIAN_POINT('Origin',(-11.4,7.6,-8.79999999999999));
#1439=CARTESIAN_POINT('Origin',(-11.4,7.6,-8.79999999999999));
#1440=CARTESIAN_POINT('',(-12.4,2.6,-8.79999999999999));
#1441=CARTESIAN_POINT('',(-12.4,7.6,-8.79999999999999));
#1442=CARTESIAN_POINT('',(-10.4,2.6,-8.79999999999999));
#1443=CARTESIAN_POINT('Origin',(-11.4,2.6,-8.79999999999999));
#1444=CARTESIAN_POINT('Origin',(-11.4,2.6,-8.79999999999999));
#1445=CARTESIAN_POINT('Origin',(-11.4,2.6,-8.79999999999999));
#1446=CARTESIAN_POINT('Origin',(-112.4,7.6,-182.8));
#1447=CARTESIAN_POINT('',(-111.4,7.6,-182.8));
#1448=CARTESIAN_POINT('',(-113.4,7.6,-182.8));
#1449=CARTESIAN_POINT('Origin',(-112.4,7.6,-182.8));
#1450=CARTESIAN_POINT('Origin',(-112.4,7.6,-182.8));
#1451=CARTESIAN_POINT('',(-113.4,2.6,-182.8));
#1452=CARTESIAN_POINT('',(-113.4,7.6,-182.8));
#1453=CARTESIAN_POINT('',(-111.4,2.6,-182.8));
#1454=CARTESIAN_POINT('Origin',(-112.4,2.6,-182.8));
#1455=CARTESIAN_POINT('Origin',(-112.4,2.6,-182.8));
#1456=CARTESIAN_POINT('Origin',(-112.4,2.6,-182.8));
#1457=CARTESIAN_POINT('Origin',(-11.4,7.6,-182.8));
#1458=CARTESIAN_POINT('',(-10.4,7.6,-182.8));
#1459=CARTESIAN_POINT('',(-12.4,7.6,-182.8));
#1460=CARTESIAN_POINT('Origin',(-11.4,7.6,-182.8));
#1461=CARTESIAN_POINT('Origin',(-11.4,7.6,-182.8));
#1462=CARTESIAN_POINT('',(-12.4,2.6,-182.8));
#1463=CARTESIAN_POINT('',(-12.4,7.6,-182.8));
#1464=CARTESIAN_POINT('',(-10.4,2.6,-182.8));
#1465=CARTESIAN_POINT('Origin',(-11.4,2.6,-182.8));
#1466=CARTESIAN_POINT('Origin',(-11.4,2.6,-182.8));
#1467=CARTESIAN_POINT('Origin',(-11.4,2.6,-182.8));
#1468=CARTESIAN_POINT('Origin',(-1.99999999999999,2.,-12.5));
#1469=CARTESIAN_POINT('',(-18.,2.,-12.5));
#1470=CARTESIAN_POINT('',(-1.99999999999999,2.,-12.5));
#1471=CARTESIAN_POINT('',(-31.,2.,-12.5));
#1472=CARTESIAN_POINT('',(-18.,7.6,-12.5));
#1473=CARTESIAN_POINT('',(-18.,2.,-12.5));
#1474=CARTESIAN_POINT('',(-1.99999999999999,7.6,-12.5));
#1475=CARTESIAN_POINT('',(-1.99999999999999,7.6,-12.5));
#1476=CARTESIAN_POINT('',(-2.,1.,-12.5));
#1477=CARTESIAN_POINT('Origin',(-18.,2.,-12.5));
#1478=CARTESIAN_POINT('',(-18.,2.,-53.5));
#1479=CARTESIAN_POINT('',(-18.,7.6,-12.5));
#1480=CARTESIAN_POINT('Origin',(-9.99999999999999,7.6,-7.25));
#1481=CARTESIAN_POINT('',(-2.,7.6,-4.62499999999999));
#1482=CARTESIAN_POINT('Origin',(-102.,2.,-179.));
#1483=CARTESIAN_POINT('',(-102.,2.,-187.));
#1484=CARTESIAN_POINT('',(-102.,2.,-179.));
#1485=CARTESIAN_POINT('',(-102.,2.,-136.75));
#1486=CARTESIAN_POINT('',(-102.,7.6,-187.));
#1487=CARTESIAN_POINT('',(-102.,1.,-187.));
#1488=CARTESIAN_POINT('',(-102.,7.6,-179.));
#1489=CARTESIAN_POINT('',(-102.,7.6,-179.));
#1490=CARTESIAN_POINT('',(-102.,2.,-179.));
#1491=CARTESIAN_POINT('Origin',(-118.,2.,-179.));
#1492=CARTESIAN_POINT('',(-118.,2.,-179.));
#1493=CARTESIAN_POINT('',(-89.,2.,-179.));
#1494=CARTESIAN_POINT('',(-118.,7.6,-179.));
#1495=CARTESIAN_POINT('',(-118.,7.6,-179.));
#1496=CARTESIAN_POINT('',(-118.,1.,-179.));
#1497=CARTESIAN_POINT('Origin',(-110.,7.6,-183.));
#1498=CARTESIAN_POINT('',(-118.,7.6,-187.));
#1499=CARTESIAN_POINT('',(-56.,7.6,-187.));
#1500=CARTESIAN_POINT('',(-118.,7.6,-185.));
#1501=CARTESIAN_POINT('Origin',(-18.,2.,-179.));
#1502=CARTESIAN_POINT('',(-1.99999999999996,2.,-179.));
#1503=CARTESIAN_POINT('',(-18.,2.,-179.));
#1504=CARTESIAN_POINT('',(-39.0000000000002,2.,-179.));
#1505=CARTESIAN_POINT('',(-1.99999999999996,7.6,-179.));
#1506=CARTESIAN_POINT('',(-2.,1.,-179.));
#1507=CARTESIAN_POINT('',(-18.,7.6,-179.));
#1508=CARTESIAN_POINT('',(-18.,7.6,-179.));
#1509=CARTESIAN_POINT('',(-18.,2.,-179.));
#1510=CARTESIAN_POINT('Origin',(-18.,2.,-187.));
#1511=CARTESIAN_POINT('',(-18.,2.,-187.));
#1512=CARTESIAN_POINT('',(-18.,2.,-140.75));
#1513=CARTESIAN_POINT('',(-18.,7.6,-187.));
#1514=CARTESIAN_POINT('',(-18.,7.6,-187.));
#1515=CARTESIAN_POINT('',(-18.,1.,-187.));
#1516=CARTESIAN_POINT('Origin',(-9.99999999999998,7.6,-183.));
#1517=CARTESIAN_POINT('',(-1.99999999999999,7.6,-187.));
#1518=CARTESIAN_POINT('',(-2.,7.6,-92.5));
#1519=CARTESIAN_POINT('',(-5.99999999999999,7.6,-187.));
#1520=CARTESIAN_POINT('Origin',(-102.,2.,-12.4999999999999));
#1521=CARTESIAN_POINT('',(-118.,2.,-12.4999999999999));
#1522=CARTESIAN_POINT('',(-102.,2.,-12.4999999999999));
#1523=CARTESIAN_POINT('',(-81.,2.,-12.4999999999999));
#1524=CARTESIAN_POINT('',(-118.,7.6,-12.4999999999999));
#1525=CARTESIAN_POINT('',(-118.,1.,-12.4999999999999));
#1526=CARTESIAN_POINT('',(-102.,7.6,-12.4999999999999));
#1527=CARTESIAN_POINT('',(-102.,7.6,-12.4999999999999));
#1528=CARTESIAN_POINT('',(-102.,2.,-12.4999999999999));
#1529=CARTESIAN_POINT('Origin',(-102.,2.,-1.99999999999999));
#1530=CARTESIAN_POINT('',(-102.,2.,-48.25));
#1531=CARTESIAN_POINT('',(-102.,7.6,-1.99999999999996));
#1532=CARTESIAN_POINT('Origin',(-110.,7.6,-7.24999999999996));
#1533=CARTESIAN_POINT('',(-118.,7.6,-97.1249999999999));
#1534=CARTESIAN_POINT('Origin',(-2.,0.,-1.99999999999999));
#1535=CARTESIAN_POINT('',(-2.,9.2,-187.));
#1536=CARTESIAN_POINT('',(-2.,9.2,-48.25));
#1537=CARTESIAN_POINT('',(-2.,0.,-187.));
#1538=CARTESIAN_POINT('',(-2.,2.,-48.25));
#1539=CARTESIAN_POINT('Origin',(-118.,0.,-187.));
#1540=CARTESIAN_POINT('',(-118.,9.2,-187.));
#1541=CARTESIAN_POINT('',(-118.,0.,-187.));
#1542=CARTESIAN_POINT('',(-118.,9.2,-140.75));
#1543=CARTESIAN_POINT('',(-118.,2.,-140.75));
#1544=CARTESIAN_POINT('Origin',(-2.,0.,-187.));
#1545=CARTESIAN_POINT('',(-31.0000000000001,2.,-187.));
#1546=CARTESIAN_POINT('',(-31.0000000000001,9.2,-187.));
#1547=CARTESIAN_POINT('Origin',(-60.0000000000001,2.,-94.5));
#1548=CARTESIAN_POINT('',(-13.,2.,-175.));
#1549=CARTESIAN_POINT('',(-83.0000000000001,2.,-175.));
#1550=CARTESIAN_POINT('',(-13.,2.,-134.75));
#1551=CARTESIAN_POINT('Origin',(-13.,0.,-175.));
#1552=CARTESIAN_POINT('',(-13.,0.,-175.));
#1553=CARTESIAN_POINT('Origin',(-106.,0.,-175.));
#1554=CARTESIAN_POINT('Origin',(-2.,0.,-187.));
#1555=CARTESIAN_POINT('',(-2.,9.2,-189.));
#1556=CARTESIAN_POINT('',(-2.,0.,-189.));
#1557=CARTESIAN_POINT('',(0.,9.2,-187.));
#1558=CARTESIAN_POINT('Origin',(-2.,9.2,-187.));
#1559=CARTESIAN_POINT('',(0.,0.,-187.));
#1560=CARTESIAN_POINT('Origin',(0.,0.,-1.99999999999999));
#1561=CARTESIAN_POINT('',(0.,9.2,-1.99999999999999));
#1562=CARTESIAN_POINT('',(0.,9.2,-1.99999999999999));
#1563=CARTESIAN_POINT('',(0.,0.,-1.99999999999999));
#1564=CARTESIAN_POINT('Origin',(-2.,0.,-2.));
#1565=CARTESIAN_POINT('',(-2.,9.2,0.));
#1566=CARTESIAN_POINT('Origin',(-2.,9.2,-2.));
#1567=CARTESIAN_POINT('',(-2.,0.,0.));
#1568=CARTESIAN_POINT('Origin',(-118.,0.,0.));
#1569=CARTESIAN_POINT('',(-118.,9.2,0.));
#1570=CARTESIAN_POINT('',(-118.,9.2,0.));
#1571=CARTESIAN_POINT('',(-118.,0.,0.));
#1572=CARTESIAN_POINT('',(-118.,9.2,0.));
#1573=CARTESIAN_POINT('Origin',(-118.,0.,-1.99999999999999));
#1574=CARTESIAN_POINT('',(-120.,9.2,-1.99999999999999));
#1575=CARTESIAN_POINT('Origin',(-118.,9.2,-1.99999999999999));
#1576=CARTESIAN_POINT('',(-120.,0.,-2.));
#1577=CARTESIAN_POINT('Origin',(-120.,0.,-187.));
#1578=CARTESIAN_POINT('',(-120.,9.2,-187.));
#1579=CARTESIAN_POINT('',(-120.,9.2,-187.));
#1580=CARTESIAN_POINT('',(-120.,0.,-187.));
#1581=CARTESIAN_POINT('Origin',(-118.,0.,-187.));
#1582=CARTESIAN_POINT('',(-118.,9.2,-189.));
#1583=CARTESIAN_POINT('Origin',(-118.,9.2,-187.));
#1584=CARTESIAN_POINT('',(-118.,0.,-189.));
#1585=CARTESIAN_POINT('Origin',(-2.,0.,-189.));
#1586=CARTESIAN_POINT('',(-2.00000000000001,9.2,-189.));
#1587=CARTESIAN_POINT('Origin',(-60.0000000000001,9.2,-94.5));
#1588=UNCERTAINTY_MEASURE_WITH_UNIT(LENGTH_MEASURE(0.01),#1592,
'DISTANCE_ACCURACY_VALUE',
'Maximum model space distance between geometric entities at asserted c
onnectivities');
#1589=UNCERTAINTY_MEASURE_WITH_UNIT(LENGTH_MEASURE(0.01),#1592,
'DISTANCE_ACCURACY_VALUE',
'Maximum model space distance between geometric entities at asserted c
onnectivities');
#1590=(
GEOMETRIC_REPRESENTATION_CONTEXT(3)
GLOBAL_UNCERTAINTY_ASSIGNED_CONTEXT((#1588))
GLOBAL_UNIT_ASSIGNED_CONTEXT((#1592,#1594,#1595))
REPRESENTATION_CONTEXT('','3D')
);
#1591=(
GEOMETRIC_REPRESENTATION_CONTEXT(3)
GLOBAL_UNCERTAINTY_ASSIGNED_CONTEXT((#1589))
GLOBAL_UNIT_ASSIGNED_CONTEXT((#1592,#1594,#1595))
REPRESENTATION_CONTEXT('','3D')
);
#1592=(
LENGTH_UNIT()
NAMED_UNIT(*)
SI_UNIT(.MILLI.,.METRE.)
);
#1593=(
LENGTH_UNIT()
NAMED_UNIT(*)
SI_UNIT(.CENTI.,.METRE.)
);
#1594=(
NAMED_UNIT(*)
PLANE_ANGLE_UNIT()
SI_UNIT($,.RADIAN.)
);
#1595=(
NAMED_UNIT(*)
SI_UNIT($,.STERADIAN.)
SOLID_ANGLE_UNIT()
);
#1596=SHAPE_DEFINITION_REPRESENTATION(#1597,#1598);
#1597=PRODUCT_DEFINITION_SHAPE('',$,#1600);
#1598=SHAPE_REPRESENTATION('',(#986),#1590);
#1599=PRODUCT_DEFINITION_CONTEXT('part definition',#1604,'design');
#1600=PRODUCT_DEFINITION('Front','Front',#1601,#1599);
#1601=PRODUCT_DEFINITION_FORMATION('',$,#1606);
#1602=PRODUCT_RELATED_PRODUCT_CATEGORY('Front','Front',(#1606));
#1603=APPLICATION_PROTOCOL_DEFINITION('international standard',
'automotive_design',2009,#1604);
#1604=APPLICATION_CONTEXT(
'Core Data for Automotive Mechanical Design Process');
#1605=PRODUCT_CONTEXT('part definition',#1604,'mechanical');
#1606=PRODUCT('Front','Front',$,(#1605));
#1607=PRESENTATION_STYLE_ASSIGNMENT((#1609));
#1608=PRESENTATION_STYLE_ASSIGNMENT((#1610));
#1609=SURFACE_STYLE_USAGE(.BOTH.,#1615);
#1610=SURFACE_STYLE_USAGE(.BOTH.,#1616);
#1611=SURFACE_STYLE_RENDERING_WITH_PROPERTIES($,#1623,(#1613));
#1612=SURFACE_STYLE_RENDERING_WITH_PROPERTIES($,#1624,(#1614));
#1613=SURFACE_STYLE_TRANSPARENT(0.);
#1614=SURFACE_STYLE_TRANSPARENT(0.);
#1615=SURFACE_SIDE_STYLE('',(#1617,#1611));
#1616=SURFACE_SIDE_STYLE('',(#1618,#1612));
#1617=SURFACE_STYLE_FILL_AREA(#1619);
#1618=SURFACE_STYLE_FILL_AREA(#1620);
#1619=FILL_AREA_STYLE('',(#1621));
#1620=FILL_AREA_STYLE('',(#1622));
#1621=FILL_AREA_STYLE_COLOUR('',#1623);
#1622=FILL_AREA_STYLE_COLOUR('',#1624);
#1623=COLOUR_RGB('',0.749019607843137,0.749019607843137,0.749019607843137);
#1624=COLOUR_RGB('',0.698039215686274,0.,0.);
ENDSEC;
END-ISO-10303-21;
