ISO-10303-21;
HEADER;
/* Generated by software containing ST-Developer
 * from STEP Tools, Inc. (www.steptools.com) 
 */

FILE_DESCRIPTION(
/* description */ (''),
/* implementation_level */ '2;1');

FILE_NAME(
/* name */ 
'Blende.stp',
/* time_stamp */ '2024-09-01T09:41:26+02:00',
/* author */ ('Harald'),
/* organization */ (''),
/* preprocessor_version */ 'ST-DEVELOPER v18.1',
/* authorisation */ '');

FILE_SCHEMA (('AUTOMOTIVE_DESIGN { 1 0 10303 214 3 1 1 }'));
ENDSEC;

DATA;
#10=MECHANICAL_DESIGN_GEOMETRIC_PRESENTATION_REPRESENTATION('',(#185,#186,
#187,#188,#189,#190,#191,#192,#193,#194,#195,#196),#342);
#11=SHAPE_REPRESENTATION_RELATIONSHIP('SRR','None',#349,#12);
#12=ADVANCED_BREP_SHAPE_REPRESENTATION('',(#13),#341);
#13=MANIFOLD_SOLID_BREP('Volumenk\X\F6rper1',#208);
#14=FACE_BOUND('',#36,.T.);
#15=FACE_OUTER_BOUND('',#26,.T.);
#16=FACE_OUTER_BOUND('',#27,.T.);
#17=FACE_OUTER_BOUND('',#28,.T.);
#18=FACE_OUTER_BOUND('',#29,.T.);
#19=FACE_OUTER_BOUND('',#30,.T.);
#20=FACE_OUTER_BOUND('',#31,.T.);
#21=FACE_OUTER_BOUND('',#32,.T.);
#22=FACE_OUTER_BOUND('',#33,.T.);
#23=FACE_OUTER_BOUND('',#34,.T.);
#24=FACE_OUTER_BOUND('',#35,.T.);
#25=FACE_OUTER_BOUND('',#37,.T.);
#26=EDGE_LOOP('',(#126,#127,#128,#129));
#27=EDGE_LOOP('',(#130,#131,#132,#133));
#28=EDGE_LOOP('',(#134,#135,#136,#137));
#29=EDGE_LOOP('',(#138,#139,#140,#141));
#30=EDGE_LOOP('',(#142,#143,#144,#145));
#31=EDGE_LOOP('',(#146,#147,#148,#149));
#32=EDGE_LOOP('',(#150,#151,#152,#153));
#33=EDGE_LOOP('',(#154,#155,#156,#157));
#34=EDGE_LOOP('',(#158,#159,#160,#161));
#35=EDGE_LOOP('',(#162,#163,#164,#165));
#36=EDGE_LOOP('',(#166,#167,#168,#169));
#37=EDGE_LOOP('',(#170,#171,#172,#173));
#38=LINE('',#291,#62);
#39=LINE('',#293,#63);
#40=LINE('',#295,#64);
#41=LINE('',#296,#65);
#42=LINE('',#299,#66);
#43=LINE('',#301,#67);
#44=LINE('',#302,#68);
#45=LINE('',#305,#69);
#46=LINE('',#307,#70);
#47=LINE('',#308,#71);
#48=LINE('',#310,#72);
#49=LINE('',#311,#73);
#50=LINE('',#316,#74);
#51=LINE('',#318,#75);
#52=LINE('',#320,#76);
#53=LINE('',#321,#77);
#54=LINE('',#324,#78);
#55=LINE('',#326,#79);
#56=LINE('',#327,#80);
#57=LINE('',#330,#81);
#58=LINE('',#332,#82);
#59=LINE('',#333,#83);
#60=LINE('',#335,#84);
#61=LINE('',#336,#85);
#62=VECTOR('',#243,10.);
#63=VECTOR('',#244,10.);
#64=VECTOR('',#245,10.);
#65=VECTOR('',#246,10.);
#66=VECTOR('',#249,10.);
#67=VECTOR('',#250,10.);
#68=VECTOR('',#251,10.);
#69=VECTOR('',#254,10.);
#70=VECTOR('',#255,10.);
#71=VECTOR('',#256,10.);
#72=VECTOR('',#259,10.);
#73=VECTOR('',#260,10.);
#74=VECTOR('',#265,10.);
#75=VECTOR('',#266,10.);
#76=VECTOR('',#267,10.);
#77=VECTOR('',#268,10.);
#78=VECTOR('',#271,10.);
#79=VECTOR('',#272,10.);
#80=VECTOR('',#273,10.);
#81=VECTOR('',#276,10.);
#82=VECTOR('',#277,10.);
#83=VECTOR('',#278,10.);
#84=VECTOR('',#281,10.);
#85=VECTOR('',#282,10.);
#86=VERTEX_POINT('',#289);
#87=VERTEX_POINT('',#290);
#88=VERTEX_POINT('',#292);
#89=VERTEX_POINT('',#294);
#90=VERTEX_POINT('',#298);
#91=VERTEX_POINT('',#300);
#92=VERTEX_POINT('',#304);
#93=VERTEX_POINT('',#306);
#94=VERTEX_POINT('',#314);
#95=VERTEX_POINT('',#315);
#96=VERTEX_POINT('',#317);
#97=VERTEX_POINT('',#319);
#98=VERTEX_POINT('',#323);
#99=VERTEX_POINT('',#325);
#100=VERTEX_POINT('',#329);
#101=VERTEX_POINT('',#331);
#102=EDGE_CURVE('',#86,#87,#38,.T.);
#103=EDGE_CURVE('',#86,#88,#39,.T.);
#104=EDGE_CURVE('',#89,#88,#40,.T.);
#105=EDGE_CURVE('',#87,#89,#41,.T.);
#106=EDGE_CURVE('',#87,#90,#42,.T.);
#107=EDGE_CURVE('',#91,#89,#43,.T.);
#108=EDGE_CURVE('',#90,#91,#44,.T.);
#109=EDGE_CURVE('',#90,#92,#45,.T.);
#110=EDGE_CURVE('',#93,#91,#46,.T.);
#111=EDGE_CURVE('',#92,#93,#47,.T.);
#112=EDGE_CURVE('',#92,#86,#48,.T.);
#113=EDGE_CURVE('',#88,#93,#49,.T.);
#114=EDGE_CURVE('',#94,#95,#50,.T.);
#115=EDGE_CURVE('',#95,#96,#51,.T.);
#116=EDGE_CURVE('',#97,#96,#52,.T.);
#117=EDGE_CURVE('',#94,#97,#53,.T.);
#118=EDGE_CURVE('',#98,#94,#54,.T.);
#119=EDGE_CURVE('',#99,#97,#55,.T.);
#120=EDGE_CURVE('',#98,#99,#56,.T.);
#121=EDGE_CURVE('',#100,#98,#57,.T.);
#122=EDGE_CURVE('',#101,#99,#58,.T.);
#123=EDGE_CURVE('',#100,#101,#59,.T.);
#124=EDGE_CURVE('',#95,#100,#60,.T.);
#125=EDGE_CURVE('',#96,#101,#61,.T.);
#126=ORIENTED_EDGE('',*,*,#102,.F.);
#127=ORIENTED_EDGE('',*,*,#103,.T.);
#128=ORIENTED_EDGE('',*,*,#104,.F.);
#129=ORIENTED_EDGE('',*,*,#105,.F.);
#130=ORIENTED_EDGE('',*,*,#106,.F.);
#131=ORIENTED_EDGE('',*,*,#105,.T.);
#132=ORIENTED_EDGE('',*,*,#107,.F.);
#133=ORIENTED_EDGE('',*,*,#108,.F.);
#134=ORIENTED_EDGE('',*,*,#109,.F.);
#135=ORIENTED_EDGE('',*,*,#108,.T.);
#136=ORIENTED_EDGE('',*,*,#110,.F.);
#137=ORIENTED_EDGE('',*,*,#111,.F.);
#138=ORIENTED_EDGE('',*,*,#112,.F.);
#139=ORIENTED_EDGE('',*,*,#111,.T.);
#140=ORIENTED_EDGE('',*,*,#113,.F.);
#141=ORIENTED_EDGE('',*,*,#103,.F.);
#142=ORIENTED_EDGE('',*,*,#113,.T.);
#143=ORIENTED_EDGE('',*,*,#110,.T.);
#144=ORIENTED_EDGE('',*,*,#107,.T.);
#145=ORIENTED_EDGE('',*,*,#104,.T.);
#146=ORIENTED_EDGE('',*,*,#114,.T.);
#147=ORIENTED_EDGE('',*,*,#115,.T.);
#148=ORIENTED_EDGE('',*,*,#116,.F.);
#149=ORIENTED_EDGE('',*,*,#117,.F.);
#150=ORIENTED_EDGE('',*,*,#118,.T.);
#151=ORIENTED_EDGE('',*,*,#117,.T.);
#152=ORIENTED_EDGE('',*,*,#119,.F.);
#153=ORIENTED_EDGE('',*,*,#120,.F.);
#154=ORIENTED_EDGE('',*,*,#121,.T.);
#155=ORIENTED_EDGE('',*,*,#120,.T.);
#156=ORIENTED_EDGE('',*,*,#122,.F.);
#157=ORIENTED_EDGE('',*,*,#123,.F.);
#158=ORIENTED_EDGE('',*,*,#124,.T.);
#159=ORIENTED_EDGE('',*,*,#123,.T.);
#160=ORIENTED_EDGE('',*,*,#125,.F.);
#161=ORIENTED_EDGE('',*,*,#115,.F.);
#162=ORIENTED_EDGE('',*,*,#125,.T.);
#163=ORIENTED_EDGE('',*,*,#122,.T.);
#164=ORIENTED_EDGE('',*,*,#119,.T.);
#165=ORIENTED_EDGE('',*,*,#116,.T.);
#166=ORIENTED_EDGE('',*,*,#102,.T.);
#167=ORIENTED_EDGE('',*,*,#106,.T.);
#168=ORIENTED_EDGE('',*,*,#109,.T.);
#169=ORIENTED_EDGE('',*,*,#112,.T.);
#170=ORIENTED_EDGE('',*,*,#124,.F.);
#171=ORIENTED_EDGE('',*,*,#114,.F.);
#172=ORIENTED_EDGE('',*,*,#118,.F.);
#173=ORIENTED_EDGE('',*,*,#121,.F.);
#174=PLANE('',#228);
#175=PLANE('',#229);
#176=PLANE('',#230);
#177=PLANE('',#231);
#178=PLANE('',#232);
#179=PLANE('',#233);
#180=PLANE('',#234);
#181=PLANE('',#235);
#182=PLANE('',#236);
#183=PLANE('',#237);
#184=PLANE('',#238);
#185=STYLED_ITEM('',(#359),#197);
#186=STYLED_ITEM('',(#359),#198);
#187=STYLED_ITEM('',(#359),#199);
#188=STYLED_ITEM('',(#359),#200);
#189=STYLED_ITEM('',(#359),#201);
#190=STYLED_ITEM('',(#359),#202);
#191=STYLED_ITEM('',(#359),#203);
#192=STYLED_ITEM('',(#359),#204);
#193=STYLED_ITEM('',(#359),#205);
#194=STYLED_ITEM('',(#359),#206);
#195=STYLED_ITEM('',(#359),#207);
#196=STYLED_ITEM('',(#358),#13);
#197=ADVANCED_FACE('',(#15),#174,.T.);
#198=ADVANCED_FACE('',(#16),#175,.T.);
#199=ADVANCED_FACE('',(#17),#176,.T.);
#200=ADVANCED_FACE('',(#18),#177,.T.);
#201=ADVANCED_FACE('',(#19),#178,.T.);
#202=ADVANCED_FACE('',(#20),#179,.T.);
#203=ADVANCED_FACE('',(#21),#180,.T.);
#204=ADVANCED_FACE('',(#22),#181,.T.);
#205=ADVANCED_FACE('',(#23),#182,.T.);
#206=ADVANCED_FACE('',(#24,#14),#183,.T.);
#207=ADVANCED_FACE('',(#25),#184,.F.);
#208=CLOSED_SHELL('',(#197,#198,#199,#200,#201,#202,#203,#204,#205,#206,
#207));
#209=DERIVED_UNIT_ELEMENT(#211,1.);
#210=DERIVED_UNIT_ELEMENT(#344,3.);
#211=(
MASS_UNIT()
NAMED_UNIT(*)
SI_UNIT($,.GRAM.)
);
#212=DERIVED_UNIT((#209,#210));
#213=MEASURE_REPRESENTATION_ITEM('density measure',
POSITIVE_RATIO_MEASURE(1.),#212);
#214=PROPERTY_DEFINITION_REPRESENTATION(#219,#216);
#215=PROPERTY_DEFINITION_REPRESENTATION(#220,#217);
#216=REPRESENTATION('material name',(#218),#341);
#217=REPRESENTATION('density',(#213),#341);
#218=DESCRIPTIVE_REPRESENTATION_ITEM('Generisch','Generisch');
#219=PROPERTY_DEFINITION('material property','material name',#351);
#220=PROPERTY_DEFINITION('material property','density of part',#351);
#221=DATE_TIME_ROLE('creation_date');
#222=APPLIED_DATE_AND_TIME_ASSIGNMENT(#223,#221,(#351));
#223=DATE_AND_TIME(#224,#225);
#224=CALENDAR_DATE(2024,1,8);
#225=LOCAL_TIME(0,0,0.,#226);
#226=COORDINATED_UNIVERSAL_TIME_OFFSET(0,0,.BEHIND.);
#227=AXIS2_PLACEMENT_3D('placement',#287,#239,#240);
#228=AXIS2_PLACEMENT_3D('',#288,#241,#242);
#229=AXIS2_PLACEMENT_3D('',#297,#247,#248);
#230=AXIS2_PLACEMENT_3D('',#303,#252,#253);
#231=AXIS2_PLACEMENT_3D('',#309,#257,#258);
#232=AXIS2_PLACEMENT_3D('',#312,#261,#262);
#233=AXIS2_PLACEMENT_3D('',#313,#263,#264);
#234=AXIS2_PLACEMENT_3D('',#322,#269,#270);
#235=AXIS2_PLACEMENT_3D('',#328,#274,#275);
#236=AXIS2_PLACEMENT_3D('',#334,#279,#280);
#237=AXIS2_PLACEMENT_3D('',#337,#283,#284);
#238=AXIS2_PLACEMENT_3D('',#338,#285,#286);
#239=DIRECTION('axis',(0.,0.,1.));
#240=DIRECTION('refdir',(1.,0.,0.));
#241=DIRECTION('center_axis',(3.11860400175605E-17,0.,1.));
#242=DIRECTION('ref_axis',(1.,0.,-3.11860400175605E-17));
#243=DIRECTION('',(-1.,0.,3.11860400175605E-17));
#244=DIRECTION('',(0.,1.,0.));
#245=DIRECTION('',(1.,0.,-3.11860400175605E-17));
#246=DIRECTION('',(0.,1.,0.));
#247=DIRECTION('center_axis',(-1.,0.,2.980464495638E-16));
#248=DIRECTION('ref_axis',(2.980464495638E-16,0.,1.));
#249=DIRECTION('',(-2.980464495638E-16,0.,-1.));
#250=DIRECTION('',(2.980464495638E-16,0.,1.));
#251=DIRECTION('',(0.,1.,0.));
#252=DIRECTION('center_axis',(0.,0.,-1.));
#253=DIRECTION('ref_axis',(-1.,0.,0.));
#254=DIRECTION('',(1.,0.,0.));
#255=DIRECTION('',(-1.,0.,0.));
#256=DIRECTION('',(0.,1.,0.));
#257=DIRECTION('center_axis',(1.,0.,-2.2353483717285E-16));
#258=DIRECTION('ref_axis',(-2.2353483717285E-16,0.,-1.));
#259=DIRECTION('',(2.2353483717285E-16,0.,1.));
#260=DIRECTION('',(-2.2353483717285E-16,0.,-1.));
#261=DIRECTION('center_axis',(0.,1.,0.));
#262=DIRECTION('ref_axis',(0.,0.,1.));
#263=DIRECTION('center_axis',(1.,0.,-1.84307471626426E-16));
#264=DIRECTION('ref_axis',(-1.84307471626426E-16,0.,-1.));
#265=DIRECTION('',(-1.84307471626426E-16,0.,-1.));
#266=DIRECTION('',(0.,1.,0.));
#267=DIRECTION('',(-1.84307471626426E-16,0.,-1.));
#268=DIRECTION('',(0.,1.,0.));
#269=DIRECTION('center_axis',(-4.69560062631555E-32,0.,1.));
#270=DIRECTION('ref_axis',(1.,0.,4.69560062631555E-32));
#271=DIRECTION('',(1.,0.,4.69560062631555E-32));
#272=DIRECTION('',(1.,0.,4.69560062631555E-32));
#273=DIRECTION('',(0.,1.,0.));
#274=DIRECTION('center_axis',(-1.,0.,2.3373116307898E-16));
#275=DIRECTION('ref_axis',(2.3373116307898E-16,0.,1.));
#276=DIRECTION('',(2.3373116307898E-16,0.,1.));
#277=DIRECTION('',(2.3373116307898E-16,0.,1.));
#278=DIRECTION('',(0.,1.,0.));
#279=DIRECTION('center_axis',(0.,0.,-1.));
#280=DIRECTION('ref_axis',(-1.,0.,0.));
#281=DIRECTION('',(-1.,0.,0.));
#282=DIRECTION('',(-1.,0.,0.));
#283=DIRECTION('center_axis',(0.,1.,0.));
#284=DIRECTION('ref_axis',(0.,0.,1.));
#285=DIRECTION('center_axis',(0.,1.,0.));
#286=DIRECTION('ref_axis',(0.,0.,1.));
#287=CARTESIAN_POINT('',(0.,0.,0.));
#288=CARTESIAN_POINT('Origin',(-9.5,0.4,-2.05));
#289=CARTESIAN_POINT('',(-0.599999999999991,0.4,-2.05));
#290=CARTESIAN_POINT('',(-9.5,0.4,-2.05));
#291=CARTESIAN_POINT('',(-7.375,0.4,-2.05));
#292=CARTESIAN_POINT('',(-0.599999999999991,2.4,-2.05));
#293=CARTESIAN_POINT('',(-0.599999999999991,0.4,-2.05));
#294=CARTESIAN_POINT('',(-9.5,2.4,-2.05));
#295=CARTESIAN_POINT('',(-9.5,2.4,-2.05));
#296=CARTESIAN_POINT('',(-9.5,0.4,-2.05));
#297=CARTESIAN_POINT('Origin',(-9.50000000000001,0.4,-16.95));
#298=CARTESIAN_POINT('',(-9.50000000000001,0.4,-16.95));
#299=CARTESIAN_POINT('',(-9.50000000000001,0.4,-13.225));
#300=CARTESIAN_POINT('',(-9.50000000000001,2.4,-16.95));
#301=CARTESIAN_POINT('',(-9.50000000000001,2.4,-16.95));
#302=CARTESIAN_POINT('',(-9.50000000000001,0.4,-16.95));
#303=CARTESIAN_POINT('Origin',(-0.599999999999994,0.4,-16.95));
#304=CARTESIAN_POINT('',(-0.599999999999994,0.4,-16.95));
#305=CARTESIAN_POINT('',(-2.925,0.4,-16.95));
#306=CARTESIAN_POINT('',(-0.599999999999994,2.4,-16.95));
#307=CARTESIAN_POINT('',(-0.599999999999994,2.4,-16.95));
#308=CARTESIAN_POINT('',(-0.599999999999994,0.4,-16.95));
#309=CARTESIAN_POINT('Origin',(-0.599999999999991,0.4,-2.05));
#310=CARTESIAN_POINT('',(-0.599999999999991,0.4,-5.775));
#311=CARTESIAN_POINT('',(-0.599999999999991,2.4,-2.05));
#312=CARTESIAN_POINT('Origin',(-5.05,2.4,-9.5));
#313=CARTESIAN_POINT('Origin',(0.,0.,0.));
#314=CARTESIAN_POINT('',(0.,0.,0.));
#315=CARTESIAN_POINT('',(-3.5018419609021E-15,0.,-19.));
#316=CARTESIAN_POINT('',(0.,0.,0.));
#317=CARTESIAN_POINT('',(-3.5018419609021E-15,0.4,-19.));
#318=CARTESIAN_POINT('',(-3.5018419609021E-15,0.,-19.));
#319=CARTESIAN_POINT('',(0.,0.4,0.));
#320=CARTESIAN_POINT('',(0.,0.4,0.));
#321=CARTESIAN_POINT('',(0.,0.,0.));
#322=CARTESIAN_POINT('Origin',(-10.5,0.,-4.93038065763132E-31));
#323=CARTESIAN_POINT('',(-10.5,0.,-4.93038065763132E-31));
#324=CARTESIAN_POINT('',(-10.5,0.,-4.93038065763132E-31));
#325=CARTESIAN_POINT('',(-10.5,0.4,0.));
#326=CARTESIAN_POINT('',(-10.5,0.4,-4.93038065763132E-31));
#327=CARTESIAN_POINT('',(-10.5,0.,-4.93038065763132E-31));
#328=CARTESIAN_POINT('Origin',(-10.5,0.,-19.));
#329=CARTESIAN_POINT('',(-10.5,0.,-19.));
#330=CARTESIAN_POINT('',(-10.5,0.,-19.));
#331=CARTESIAN_POINT('',(-10.5,0.4,-19.));
#332=CARTESIAN_POINT('',(-10.5,0.4,-19.));
#333=CARTESIAN_POINT('',(-10.5,0.,-19.));
#334=CARTESIAN_POINT('Origin',(-3.5018419609021E-15,0.,-19.));
#335=CARTESIAN_POINT('',(-4.44089209850063E-15,0.,-19.));
#336=CARTESIAN_POINT('',(-4.44089209850063E-15,0.4,-19.));
#337=CARTESIAN_POINT('Origin',(-5.25,0.4,-9.5));
#338=CARTESIAN_POINT('Origin',(-5.25,0.,-9.5));
#339=UNCERTAINTY_MEASURE_WITH_UNIT(LENGTH_MEASURE(0.01),#343,
'DISTANCE_ACCURACY_VALUE',
'Maximum model space distance between geometric entities at asserted c
onnectivities');
#340=UNCERTAINTY_MEASURE_WITH_UNIT(LENGTH_MEASURE(0.01),#343,
'DISTANCE_ACCURACY_VALUE',
'Maximum model space distance between geometric entities at asserted c
onnectivities');
#341=(
GEOMETRIC_REPRESENTATION_CONTEXT(3)
GLOBAL_UNCERTAINTY_ASSIGNED_CONTEXT((#339))
GLOBAL_UNIT_ASSIGNED_CONTEXT((#343,#345,#346))
REPRESENTATION_CONTEXT('','3D')
);
#342=(
GEOMETRIC_REPRESENTATION_CONTEXT(3)
GLOBAL_UNCERTAINTY_ASSIGNED_CONTEXT((#340))
GLOBAL_UNIT_ASSIGNED_CONTEXT((#343,#345,#346))
REPRESENTATION_CONTEXT('','3D')
);
#343=(
LENGTH_UNIT()
NAMED_UNIT(*)
SI_UNIT(.MILLI.,.METRE.)
);
#344=(
LENGTH_UNIT()
NAMED_UNIT(*)
SI_UNIT(.CENTI.,.METRE.)
);
#345=(
NAMED_UNIT(*)
PLANE_ANGLE_UNIT()
SI_UNIT($,.RADIAN.)
);
#346=(
NAMED_UNIT(*)
SI_UNIT($,.STERADIAN.)
SOLID_ANGLE_UNIT()
);
#347=SHAPE_DEFINITION_REPRESENTATION(#348,#349);
#348=PRODUCT_DEFINITION_SHAPE('',$,#351);
#349=SHAPE_REPRESENTATION('',(#227),#341);
#350=PRODUCT_DEFINITION_CONTEXT('part definition',#355,'design');
#351=PRODUCT_DEFINITION('Blende','Blende',#352,#350);
#352=PRODUCT_DEFINITION_FORMATION('',$,#357);
#353=PRODUCT_RELATED_PRODUCT_CATEGORY('Blende','Blende',(#357));
#354=APPLICATION_PROTOCOL_DEFINITION('international standard',
'automotive_design',2009,#355);
#355=APPLICATION_CONTEXT(
'Core Data for Automotive Mechanical Design Process');
#356=PRODUCT_CONTEXT('part definition',#355,'mechanical');
#357=PRODUCT('Blende','Blende',$,(#356));
#358=PRESENTATION_STYLE_ASSIGNMENT((#360));
#359=PRESENTATION_STYLE_ASSIGNMENT((#361));
#360=SURFACE_STYLE_USAGE(.BOTH.,#366);
#361=SURFACE_STYLE_USAGE(.BOTH.,#367);
#362=SURFACE_STYLE_RENDERING_WITH_PROPERTIES($,#374,(#364));
#363=SURFACE_STYLE_RENDERING_WITH_PROPERTIES($,#375,(#365));
#364=SURFACE_STYLE_TRANSPARENT(0.);
#365=SURFACE_STYLE_TRANSPARENT(0.);
#366=SURFACE_SIDE_STYLE('',(#368,#362));
#367=SURFACE_SIDE_STYLE('',(#369,#363));
#368=SURFACE_STYLE_FILL_AREA(#370);
#369=SURFACE_STYLE_FILL_AREA(#371);
#370=FILL_AREA_STYLE('',(#372));
#371=FILL_AREA_STYLE('',(#373));
#372=FILL_AREA_STYLE_COLOUR('',#374);
#373=FILL_AREA_STYLE_COLOUR('',#375);
#374=COLOUR_RGB('',0.749019607843137,0.749019607843137,0.749019607843137);
#375=COLOUR_RGB('',0.96078431372549,0.96078431372549,0.96078431372549);
ENDSEC;
END-ISO-10303-21;
