ISO-10303-21;
HEADER;
/* Generated by software containing ST-Developer
 * from STEP Tools, Inc. (www.steptools.com) 
 */

FILE_DESCRIPTION(
/* description */ (''),
/* implementation_level */ '2;1');

FILE_NAME(
/* name */ 
'Fuss.stp',
/* time_stamp */ '2024-09-01T09:41:49+02:00',
/* author */ ('Harald'),
/* organization */ (''),
/* preprocessor_version */ 'ST-DEVELOPER v18.1',
/* authorisation */ '');

FILE_SCHEMA (('AUTOMOTIVE_DESIGN { 1 0 10303 214 3 1 1 }'));
ENDSEC;

DATA;
#10=MECHANICAL_DESIGN_GEOMETRIC_PRESENTATION_REPRESENTATION('',(#13),#820);
#11=SHAPE_REPRESENTATION_RELATIONSHIP('SRR','None',#827,#12);
#12=ADVANCED_BREP_SHAPE_REPRESENTATION('',(#14),#819);
#13=STYLED_ITEM('',(#836),#14);
#14=MANIFOLD_SOLID_BREP('Volumenk\X\F6rper1',#488);
#15=FACE_BOUND('',#81,.T.);
#16=ELLIPSE('',#523,1.41421356237309,1.);
#17=ELLIPSE('',#524,1.4142135623731,1.);
#18=ELLIPSE('',#526,1.4142135623731,1.);
#19=ELLIPSE('',#528,1.41421356237309,1.);
#20=PLANE('',#511);
#21=PLANE('',#515);
#22=PLANE('',#516);
#23=PLANE('',#517);
#24=PLANE('',#518);
#25=PLANE('',#519);
#26=PLANE('',#520);
#27=PLANE('',#521);
#28=PLANE('',#530);
#29=PLANE('',#531);
#30=PLANE('',#537);
#31=PLANE('',#538);
#32=PLANE('',#539);
#33=PLANE('',#540);
#34=PLANE('',#541);
#35=PLANE('',#542);
#36=PLANE('',#543);
#37=PLANE('',#544);
#38=PLANE('',#545);
#39=FACE_OUTER_BOUND('',#65,.T.);
#40=FACE_OUTER_BOUND('',#66,.T.);
#41=FACE_OUTER_BOUND('',#67,.T.);
#42=FACE_OUTER_BOUND('',#68,.T.);
#43=FACE_OUTER_BOUND('',#69,.T.);
#44=FACE_OUTER_BOUND('',#70,.T.);
#45=FACE_OUTER_BOUND('',#71,.T.);
#46=FACE_OUTER_BOUND('',#72,.T.);
#47=FACE_OUTER_BOUND('',#73,.T.);
#48=FACE_OUTER_BOUND('',#74,.T.);
#49=FACE_OUTER_BOUND('',#75,.T.);
#50=FACE_OUTER_BOUND('',#76,.T.);
#51=FACE_OUTER_BOUND('',#77,.T.);
#52=FACE_OUTER_BOUND('',#78,.T.);
#53=FACE_OUTER_BOUND('',#79,.T.);
#54=FACE_OUTER_BOUND('',#80,.T.);
#55=FACE_OUTER_BOUND('',#82,.T.);
#56=FACE_OUTER_BOUND('',#83,.T.);
#57=FACE_OUTER_BOUND('',#84,.T.);
#58=FACE_OUTER_BOUND('',#85,.T.);
#59=FACE_OUTER_BOUND('',#86,.T.);
#60=FACE_OUTER_BOUND('',#87,.T.);
#61=FACE_OUTER_BOUND('',#88,.T.);
#62=FACE_OUTER_BOUND('',#89,.T.);
#63=FACE_OUTER_BOUND('',#90,.T.);
#64=FACE_OUTER_BOUND('',#91,.T.);
#65=EDGE_LOOP('',(#321,#322,#323,#324));
#66=EDGE_LOOP('',(#325,#326,#327,#328,#329,#330));
#67=EDGE_LOOP('',(#331,#332,#333,#334));
#68=EDGE_LOOP('',(#335,#336,#337,#338,#339,#340));
#69=EDGE_LOOP('',(#341,#342,#343,#344));
#70=EDGE_LOOP('',(#345,#346,#347,#348));
#71=EDGE_LOOP('',(#349,#350,#351,#352,#353));
#72=EDGE_LOOP('',(#354,#355,#356,#357));
#73=EDGE_LOOP('',(#358,#359,#360,#361,#362));
#74=EDGE_LOOP('',(#363,#364,#365,#366,#367,#368));
#75=EDGE_LOOP('',(#369,#370,#371,#372));
#76=EDGE_LOOP('',(#373,#374,#375,#376));
#77=EDGE_LOOP('',(#377,#378,#379,#380));
#78=EDGE_LOOP('',(#381,#382,#383,#384));
#79=EDGE_LOOP('',(#385,#386,#387,#388));
#80=EDGE_LOOP('',(#389,#390,#391,#392));
#81=EDGE_LOOP('',(#393,#394));
#82=EDGE_LOOP('',(#395,#396,#397,#398,#399,#400));
#83=EDGE_LOOP('',(#401,#402));
#84=EDGE_LOOP('',(#403,#404,#405,#406));
#85=EDGE_LOOP('',(#407,#408,#409,#410,#411));
#86=EDGE_LOOP('',(#412,#413,#414,#415,#416));
#87=EDGE_LOOP('',(#417,#418,#419,#420,#421,#422,#423,#424));
#88=EDGE_LOOP('',(#425,#426,#427,#428,#429,#430,#431,#432,#433,#434));
#89=EDGE_LOOP('',(#435,#436,#437,#438,#439,#440));
#90=EDGE_LOOP('',(#441,#442,#443,#444,#445,#446,#447,#448,#449,#450));
#91=EDGE_LOOP('',(#451,#452,#453,#454));
#92=LINE('',#685,#147);
#93=LINE('',#688,#148);
#94=LINE('',#691,#149);
#95=LINE('',#693,#150);
#96=LINE('',#695,#151);
#97=LINE('',#697,#152);
#98=LINE('',#698,#153);
#99=LINE('',#704,#154);
#100=LINE('',#707,#155);
#101=LINE('',#710,#156);
#102=LINE('',#712,#157);
#103=LINE('',#714,#158);
#104=LINE('',#716,#159);
#105=LINE('',#717,#160);
#106=LINE('',#720,#161);
#107=LINE('',#722,#162);
#108=LINE('',#723,#163);
#109=LINE('',#726,#164);
#110=LINE('',#728,#165);
#111=LINE('',#729,#166);
#112=LINE('',#732,#167);
#113=LINE('',#733,#168);
#114=LINE('',#737,#169);
#115=LINE('',#739,#170);
#116=LINE('',#741,#171);
#117=LINE('',#742,#172);
#118=LINE('',#745,#173);
#119=LINE('',#747,#174);
#120=LINE('',#749,#175);
#121=LINE('',#750,#176);
#122=LINE('',#752,#177);
#123=LINE('',#754,#178);
#124=LINE('',#755,#179);
#125=LINE('',#759,#180);
#126=LINE('',#762,#181);
#127=LINE('',#766,#182);
#128=LINE('',#769,#183);
#129=LINE('',#772,#184);
#130=LINE('',#774,#185);
#131=LINE('',#776,#186);
#132=LINE('',#779,#187);
#133=LINE('',#780,#188);
#134=LINE('',#788,#189);
#135=LINE('',#795,#190);
#136=LINE('',#796,#191);
#137=LINE('',#799,#192);
#138=LINE('',#800,#193);
#139=LINE('',#803,#194);
#140=LINE('',#804,#195);
#141=LINE('',#806,#196);
#142=LINE('',#807,#197);
#143=LINE('',#809,#198);
#144=LINE('',#812,#199);
#145=LINE('',#813,#200);
#146=LINE('',#815,#201);
#147=VECTOR('',#552,10.);
#148=VECTOR('',#555,10.);
#149=VECTOR('',#558,10.);
#150=VECTOR('',#559,10.);
#151=VECTOR('',#560,10.);
#152=VECTOR('',#561,10.);
#153=VECTOR('',#562,10.);
#154=VECTOR('',#567,10.);
#155=VECTOR('',#570,10.);
#156=VECTOR('',#573,10.);
#157=VECTOR('',#574,10.);
#158=VECTOR('',#575,10.);
#159=VECTOR('',#576,10.);
#160=VECTOR('',#577,10.);
#161=VECTOR('',#580,10.);
#162=VECTOR('',#581,10.);
#163=VECTOR('',#582,10.);
#164=VECTOR('',#585,10.);
#165=VECTOR('',#586,10.);
#166=VECTOR('',#587,10.);
#167=VECTOR('',#590,10.);
#168=VECTOR('',#591,10.);
#169=VECTOR('',#594,10.);
#170=VECTOR('',#595,10.);
#171=VECTOR('',#596,10.);
#172=VECTOR('',#597,10.);
#173=VECTOR('',#600,10.);
#174=VECTOR('',#601,10.);
#175=VECTOR('',#602,10.);
#176=VECTOR('',#603,10.);
#177=VECTOR('',#606,10.);
#178=VECTOR('',#607,10.);
#179=VECTOR('',#608,10.);
#180=VECTOR('',#611,10.);
#181=VECTOR('',#614,10.);
#182=VECTOR('',#619,10.);
#183=VECTOR('',#622,10.);
#184=VECTOR('',#625,10.);
#185=VECTOR('',#628,10.);
#186=VECTOR('',#631,10.);
#187=VECTOR('',#634,10.);
#188=VECTOR('',#635,10.);
#189=VECTOR('',#644,1.7);
#190=VECTOR('',#653,10.);
#191=VECTOR('',#654,10.);
#192=VECTOR('',#657,10.);
#193=VECTOR('',#658,10.);
#194=VECTOR('',#661,10.);
#195=VECTOR('',#662,10.);
#196=VECTOR('',#665,10.);
#197=VECTOR('',#666,10.);
#198=VECTOR('',#669,10.);
#199=VECTOR('',#672,10.);
#200=VECTOR('',#673,10.);
#201=VECTOR('',#676,10.);
#202=CIRCLE('',#509,24.);
#203=CIRCLE('',#510,24.);
#204=CIRCLE('',#513,24.);
#205=CIRCLE('',#514,24.);
#206=CIRCLE('',#532,1.7);
#207=CIRCLE('',#533,1.7);
#208=CIRCLE('',#535,1.7);
#209=CIRCLE('',#536,1.7);
#210=VERTEX_POINT('',#681);
#211=VERTEX_POINT('',#682);
#212=VERTEX_POINT('',#684);
#213=VERTEX_POINT('',#686);
#214=VERTEX_POINT('',#690);
#215=VERTEX_POINT('',#692);
#216=VERTEX_POINT('',#694);
#217=VERTEX_POINT('',#696);
#218=VERTEX_POINT('',#700);
#219=VERTEX_POINT('',#701);
#220=VERTEX_POINT('',#703);
#221=VERTEX_POINT('',#705);
#222=VERTEX_POINT('',#709);
#223=VERTEX_POINT('',#711);
#224=VERTEX_POINT('',#713);
#225=VERTEX_POINT('',#715);
#226=VERTEX_POINT('',#719);
#227=VERTEX_POINT('',#721);
#228=VERTEX_POINT('',#725);
#229=VERTEX_POINT('',#727);
#230=VERTEX_POINT('',#731);
#231=VERTEX_POINT('',#735);
#232=VERTEX_POINT('',#736);
#233=VERTEX_POINT('',#738);
#234=VERTEX_POINT('',#740);
#235=VERTEX_POINT('',#744);
#236=VERTEX_POINT('',#746);
#237=VERTEX_POINT('',#748);
#238=VERTEX_POINT('',#753);
#239=VERTEX_POINT('',#757);
#240=VERTEX_POINT('',#758);
#241=VERTEX_POINT('',#760);
#242=VERTEX_POINT('',#765);
#243=VERTEX_POINT('',#767);
#244=VERTEX_POINT('',#771);
#245=VERTEX_POINT('',#778);
#246=VERTEX_POINT('',#782);
#247=VERTEX_POINT('',#783);
#248=VERTEX_POINT('',#787);
#249=VERTEX_POINT('',#789);
#250=VERTEX_POINT('',#794);
#251=VERTEX_POINT('',#798);
#252=VERTEX_POINT('',#802);
#253=VERTEX_POINT('',#811);
#254=EDGE_CURVE('',#210,#211,#202,.T.);
#255=EDGE_CURVE('',#211,#212,#92,.T.);
#256=EDGE_CURVE('',#212,#213,#203,.T.);
#257=EDGE_CURVE('',#213,#210,#93,.T.);
#258=EDGE_CURVE('',#211,#214,#94,.T.);
#259=EDGE_CURVE('',#214,#215,#95,.T.);
#260=EDGE_CURVE('',#216,#215,#96,.T.);
#261=EDGE_CURVE('',#216,#217,#97,.T.);
#262=EDGE_CURVE('',#212,#217,#98,.T.);
#263=EDGE_CURVE('',#218,#219,#204,.T.);
#264=EDGE_CURVE('',#219,#220,#99,.T.);
#265=EDGE_CURVE('',#220,#221,#205,.T.);
#266=EDGE_CURVE('',#221,#218,#100,.T.);
#267=EDGE_CURVE('',#222,#219,#101,.T.);
#268=EDGE_CURVE('',#223,#222,#102,.T.);
#269=EDGE_CURVE('',#224,#223,#103,.T.);
#270=EDGE_CURVE('',#225,#224,#104,.T.);
#271=EDGE_CURVE('',#220,#225,#105,.T.);
#272=EDGE_CURVE('',#223,#226,#106,.T.);
#273=EDGE_CURVE('',#226,#227,#107,.T.);
#274=EDGE_CURVE('',#227,#224,#108,.T.);
#275=EDGE_CURVE('',#226,#228,#109,.T.);
#276=EDGE_CURVE('',#229,#228,#110,.T.);
#277=EDGE_CURVE('',#227,#229,#111,.T.);
#278=EDGE_CURVE('',#222,#230,#112,.T.);
#279=EDGE_CURVE('',#228,#230,#113,.T.);
#280=EDGE_CURVE('',#231,#232,#114,.T.);
#281=EDGE_CURVE('',#232,#233,#115,.T.);
#282=EDGE_CURVE('',#233,#234,#116,.T.);
#283=EDGE_CURVE('',#234,#231,#117,.T.);
#284=EDGE_CURVE('',#231,#235,#118,.T.);
#285=EDGE_CURVE('',#235,#236,#119,.T.);
#286=EDGE_CURVE('',#237,#236,#120,.T.);
#287=EDGE_CURVE('',#232,#237,#121,.T.);
#288=EDGE_CURVE('',#235,#213,#122,.T.);
#289=EDGE_CURVE('',#238,#234,#123,.T.);
#290=EDGE_CURVE('',#210,#238,#124,.T.);
#291=EDGE_CURVE('',#239,#240,#125,.T.);
#292=EDGE_CURVE('',#240,#241,#16,.T.);
#293=EDGE_CURVE('',#241,#216,#126,.T.);
#294=EDGE_CURVE('',#239,#216,#17,.T.);
#295=EDGE_CURVE('',#240,#242,#127,.T.);
#296=EDGE_CURVE('',#242,#243,#18,.T.);
#297=EDGE_CURVE('',#243,#241,#128,.T.);
#298=EDGE_CURVE('',#242,#244,#129,.T.);
#299=EDGE_CURVE('',#244,#215,#19,.T.);
#300=EDGE_CURVE('',#215,#243,#130,.T.);
#301=EDGE_CURVE('',#244,#239,#131,.T.);
#302=EDGE_CURVE('',#245,#241,#132,.T.);
#303=EDGE_CURVE('',#217,#245,#133,.T.);
#304=EDGE_CURVE('',#246,#247,#206,.T.);
#305=EDGE_CURVE('',#247,#246,#207,.T.);
#306=EDGE_CURVE('',#247,#248,#134,.T.);
#307=EDGE_CURVE('',#249,#248,#208,.T.);
#308=EDGE_CURVE('',#248,#249,#209,.T.);
#309=EDGE_CURVE('',#250,#237,#135,.T.);
#310=EDGE_CURVE('',#233,#250,#136,.T.);
#311=EDGE_CURVE('',#251,#250,#137,.T.);
#312=EDGE_CURVE('',#238,#251,#138,.T.);
#313=EDGE_CURVE('',#252,#229,#139,.T.);
#314=EDGE_CURVE('',#225,#252,#140,.T.);
#315=EDGE_CURVE('',#236,#252,#141,.T.);
#316=EDGE_CURVE('',#230,#251,#142,.T.);
#317=EDGE_CURVE('',#245,#221,#143,.T.);
#318=EDGE_CURVE('',#253,#243,#144,.T.);
#319=EDGE_CURVE('',#253,#218,#145,.T.);
#320=EDGE_CURVE('',#214,#253,#146,.T.);
#321=ORIENTED_EDGE('',*,*,#254,.T.);
#322=ORIENTED_EDGE('',*,*,#255,.T.);
#323=ORIENTED_EDGE('',*,*,#256,.T.);
#324=ORIENTED_EDGE('',*,*,#257,.T.);
#325=ORIENTED_EDGE('',*,*,#255,.F.);
#326=ORIENTED_EDGE('',*,*,#258,.T.);
#327=ORIENTED_EDGE('',*,*,#259,.T.);
#328=ORIENTED_EDGE('',*,*,#260,.F.);
#329=ORIENTED_EDGE('',*,*,#261,.T.);
#330=ORIENTED_EDGE('',*,*,#262,.F.);
#331=ORIENTED_EDGE('',*,*,#263,.T.);
#332=ORIENTED_EDGE('',*,*,#264,.T.);
#333=ORIENTED_EDGE('',*,*,#265,.T.);
#334=ORIENTED_EDGE('',*,*,#266,.T.);
#335=ORIENTED_EDGE('',*,*,#264,.F.);
#336=ORIENTED_EDGE('',*,*,#267,.F.);
#337=ORIENTED_EDGE('',*,*,#268,.F.);
#338=ORIENTED_EDGE('',*,*,#269,.F.);
#339=ORIENTED_EDGE('',*,*,#270,.F.);
#340=ORIENTED_EDGE('',*,*,#271,.F.);
#341=ORIENTED_EDGE('',*,*,#272,.T.);
#342=ORIENTED_EDGE('',*,*,#273,.T.);
#343=ORIENTED_EDGE('',*,*,#274,.T.);
#344=ORIENTED_EDGE('',*,*,#269,.T.);
#345=ORIENTED_EDGE('',*,*,#273,.F.);
#346=ORIENTED_EDGE('',*,*,#275,.T.);
#347=ORIENTED_EDGE('',*,*,#276,.F.);
#348=ORIENTED_EDGE('',*,*,#277,.F.);
#349=ORIENTED_EDGE('',*,*,#272,.F.);
#350=ORIENTED_EDGE('',*,*,#268,.T.);
#351=ORIENTED_EDGE('',*,*,#278,.T.);
#352=ORIENTED_EDGE('',*,*,#279,.F.);
#353=ORIENTED_EDGE('',*,*,#275,.F.);
#354=ORIENTED_EDGE('',*,*,#280,.T.);
#355=ORIENTED_EDGE('',*,*,#281,.T.);
#356=ORIENTED_EDGE('',*,*,#282,.T.);
#357=ORIENTED_EDGE('',*,*,#283,.T.);
#358=ORIENTED_EDGE('',*,*,#280,.F.);
#359=ORIENTED_EDGE('',*,*,#284,.T.);
#360=ORIENTED_EDGE('',*,*,#285,.T.);
#361=ORIENTED_EDGE('',*,*,#286,.F.);
#362=ORIENTED_EDGE('',*,*,#287,.F.);
#363=ORIENTED_EDGE('',*,*,#257,.F.);
#364=ORIENTED_EDGE('',*,*,#288,.F.);
#365=ORIENTED_EDGE('',*,*,#284,.F.);
#366=ORIENTED_EDGE('',*,*,#283,.F.);
#367=ORIENTED_EDGE('',*,*,#289,.F.);
#368=ORIENTED_EDGE('',*,*,#290,.F.);
#369=ORIENTED_EDGE('',*,*,#291,.T.);
#370=ORIENTED_EDGE('',*,*,#292,.T.);
#371=ORIENTED_EDGE('',*,*,#293,.T.);
#372=ORIENTED_EDGE('',*,*,#294,.F.);
#373=ORIENTED_EDGE('',*,*,#295,.T.);
#374=ORIENTED_EDGE('',*,*,#296,.T.);
#375=ORIENTED_EDGE('',*,*,#297,.T.);
#376=ORIENTED_EDGE('',*,*,#292,.F.);
#377=ORIENTED_EDGE('',*,*,#298,.T.);
#378=ORIENTED_EDGE('',*,*,#299,.T.);
#379=ORIENTED_EDGE('',*,*,#300,.T.);
#380=ORIENTED_EDGE('',*,*,#296,.F.);
#381=ORIENTED_EDGE('',*,*,#260,.T.);
#382=ORIENTED_EDGE('',*,*,#299,.F.);
#383=ORIENTED_EDGE('',*,*,#301,.T.);
#384=ORIENTED_EDGE('',*,*,#294,.T.);
#385=ORIENTED_EDGE('',*,*,#293,.F.);
#386=ORIENTED_EDGE('',*,*,#302,.F.);
#387=ORIENTED_EDGE('',*,*,#303,.F.);
#388=ORIENTED_EDGE('',*,*,#261,.F.);
#389=ORIENTED_EDGE('',*,*,#291,.F.);
#390=ORIENTED_EDGE('',*,*,#301,.F.);
#391=ORIENTED_EDGE('',*,*,#298,.F.);
#392=ORIENTED_EDGE('',*,*,#295,.F.);
#393=ORIENTED_EDGE('',*,*,#304,.T.);
#394=ORIENTED_EDGE('',*,*,#305,.T.);
#395=ORIENTED_EDGE('',*,*,#304,.F.);
#396=ORIENTED_EDGE('',*,*,#305,.F.);
#397=ORIENTED_EDGE('',*,*,#306,.T.);
#398=ORIENTED_EDGE('',*,*,#307,.F.);
#399=ORIENTED_EDGE('',*,*,#308,.F.);
#400=ORIENTED_EDGE('',*,*,#306,.F.);
#401=ORIENTED_EDGE('',*,*,#307,.T.);
#402=ORIENTED_EDGE('',*,*,#308,.T.);
#403=ORIENTED_EDGE('',*,*,#281,.F.);
#404=ORIENTED_EDGE('',*,*,#287,.T.);
#405=ORIENTED_EDGE('',*,*,#309,.F.);
#406=ORIENTED_EDGE('',*,*,#310,.F.);
#407=ORIENTED_EDGE('',*,*,#282,.F.);
#408=ORIENTED_EDGE('',*,*,#310,.T.);
#409=ORIENTED_EDGE('',*,*,#311,.F.);
#410=ORIENTED_EDGE('',*,*,#312,.F.);
#411=ORIENTED_EDGE('',*,*,#289,.T.);
#412=ORIENTED_EDGE('',*,*,#274,.F.);
#413=ORIENTED_EDGE('',*,*,#277,.T.);
#414=ORIENTED_EDGE('',*,*,#313,.F.);
#415=ORIENTED_EDGE('',*,*,#314,.F.);
#416=ORIENTED_EDGE('',*,*,#270,.T.);
#417=ORIENTED_EDGE('',*,*,#315,.T.);
#418=ORIENTED_EDGE('',*,*,#313,.T.);
#419=ORIENTED_EDGE('',*,*,#276,.T.);
#420=ORIENTED_EDGE('',*,*,#279,.T.);
#421=ORIENTED_EDGE('',*,*,#316,.T.);
#422=ORIENTED_EDGE('',*,*,#311,.T.);
#423=ORIENTED_EDGE('',*,*,#309,.T.);
#424=ORIENTED_EDGE('',*,*,#286,.T.);
#425=ORIENTED_EDGE('',*,*,#303,.T.);
#426=ORIENTED_EDGE('',*,*,#317,.T.);
#427=ORIENTED_EDGE('',*,*,#265,.F.);
#428=ORIENTED_EDGE('',*,*,#271,.T.);
#429=ORIENTED_EDGE('',*,*,#314,.T.);
#430=ORIENTED_EDGE('',*,*,#315,.F.);
#431=ORIENTED_EDGE('',*,*,#285,.F.);
#432=ORIENTED_EDGE('',*,*,#288,.T.);
#433=ORIENTED_EDGE('',*,*,#256,.F.);
#434=ORIENTED_EDGE('',*,*,#262,.T.);
#435=ORIENTED_EDGE('',*,*,#266,.F.);
#436=ORIENTED_EDGE('',*,*,#317,.F.);
#437=ORIENTED_EDGE('',*,*,#302,.T.);
#438=ORIENTED_EDGE('',*,*,#297,.F.);
#439=ORIENTED_EDGE('',*,*,#318,.F.);
#440=ORIENTED_EDGE('',*,*,#319,.T.);
#441=ORIENTED_EDGE('',*,*,#320,.F.);
#442=ORIENTED_EDGE('',*,*,#258,.F.);
#443=ORIENTED_EDGE('',*,*,#254,.F.);
#444=ORIENTED_EDGE('',*,*,#290,.T.);
#445=ORIENTED_EDGE('',*,*,#312,.T.);
#446=ORIENTED_EDGE('',*,*,#316,.F.);
#447=ORIENTED_EDGE('',*,*,#278,.F.);
#448=ORIENTED_EDGE('',*,*,#267,.T.);
#449=ORIENTED_EDGE('',*,*,#263,.F.);
#450=ORIENTED_EDGE('',*,*,#319,.F.);
#451=ORIENTED_EDGE('',*,*,#300,.F.);
#452=ORIENTED_EDGE('',*,*,#259,.F.);
#453=ORIENTED_EDGE('',*,*,#320,.T.);
#454=ORIENTED_EDGE('',*,*,#318,.T.);
#455=CYLINDRICAL_SURFACE('',#508,24.);
#456=CYLINDRICAL_SURFACE('',#512,24.);
#457=CYLINDRICAL_SURFACE('',#522,1.);
#458=CYLINDRICAL_SURFACE('',#525,1.);
#459=CYLINDRICAL_SURFACE('',#527,1.);
#460=CYLINDRICAL_SURFACE('',#529,1.);
#461=CYLINDRICAL_SURFACE('',#534,1.7);
#462=ADVANCED_FACE('',(#39),#455,.F.);
#463=ADVANCED_FACE('',(#40),#20,.T.);
#464=ADVANCED_FACE('',(#41),#456,.F.);
#465=ADVANCED_FACE('',(#42),#21,.F.);
#466=ADVANCED_FACE('',(#43),#22,.T.);
#467=ADVANCED_FACE('',(#44),#23,.T.);
#468=ADVANCED_FACE('',(#45),#24,.T.);
#469=ADVANCED_FACE('',(#46),#25,.T.);
#470=ADVANCED_FACE('',(#47),#26,.T.);
#471=ADVANCED_FACE('',(#48),#27,.F.);
#472=ADVANCED_FACE('',(#49),#457,.T.);
#473=ADVANCED_FACE('',(#50),#458,.T.);
#474=ADVANCED_FACE('',(#51),#459,.T.);
#475=ADVANCED_FACE('',(#52),#460,.T.);
#476=ADVANCED_FACE('',(#53),#28,.T.);
#477=ADVANCED_FACE('',(#54,#15),#29,.T.);
#478=ADVANCED_FACE('',(#55),#461,.F.);
#479=ADVANCED_FACE('',(#56),#30,.T.);
#480=ADVANCED_FACE('',(#57),#31,.T.);
#481=ADVANCED_FACE('',(#58),#32,.T.);
#482=ADVANCED_FACE('',(#59),#33,.T.);
#483=ADVANCED_FACE('',(#60),#34,.T.);
#484=ADVANCED_FACE('',(#61),#35,.T.);
#485=ADVANCED_FACE('',(#62),#36,.T.);
#486=ADVANCED_FACE('',(#63),#37,.F.);
#487=ADVANCED_FACE('',(#64),#38,.T.);
#488=CLOSED_SHELL('',(#462,#463,#464,#465,#466,#467,#468,#469,#470,#471,
#472,#473,#474,#475,#476,#477,#478,#479,#480,#481,#482,#483,#484,#485,#486,
#487));
#489=DERIVED_UNIT_ELEMENT(#491,1.);
#490=DERIVED_UNIT_ELEMENT(#822,3.);
#491=(
MASS_UNIT()
NAMED_UNIT(*)
SI_UNIT($,.GRAM.)
);
#492=DERIVED_UNIT((#489,#490));
#493=MEASURE_REPRESENTATION_ITEM('density measure',
POSITIVE_RATIO_MEASURE(1.),#492);
#494=PROPERTY_DEFINITION_REPRESENTATION(#499,#496);
#495=PROPERTY_DEFINITION_REPRESENTATION(#500,#497);
#496=REPRESENTATION('material name',(#498),#819);
#497=REPRESENTATION('density',(#493),#819);
#498=DESCRIPTIVE_REPRESENTATION_ITEM('Generisch','Generisch');
#499=PROPERTY_DEFINITION('material property','material name',#829);
#500=PROPERTY_DEFINITION('material property','density of part',#829);
#501=DATE_TIME_ROLE('creation_date');
#502=APPLIED_DATE_AND_TIME_ASSIGNMENT(#503,#501,(#829));
#503=DATE_AND_TIME(#504,#505);
#504=CALENDAR_DATE(2024,2,8);
#505=LOCAL_TIME(0,0,0.,#506);
#506=COORDINATED_UNIVERSAL_TIME_OFFSET(0,0,.BEHIND.);
#507=AXIS2_PLACEMENT_3D('placement',#679,#546,#547);
#508=AXIS2_PLACEMENT_3D('',#680,#548,#549);
#509=AXIS2_PLACEMENT_3D('',#683,#550,#551);
#510=AXIS2_PLACEMENT_3D('',#687,#553,#554);
#511=AXIS2_PLACEMENT_3D('',#689,#556,#557);
#512=AXIS2_PLACEMENT_3D('',#699,#563,#564);
#513=AXIS2_PLACEMENT_3D('',#702,#565,#566);
#514=AXIS2_PLACEMENT_3D('',#706,#568,#569);
#515=AXIS2_PLACEMENT_3D('',#708,#571,#572);
#516=AXIS2_PLACEMENT_3D('',#718,#578,#579);
#517=AXIS2_PLACEMENT_3D('',#724,#583,#584);
#518=AXIS2_PLACEMENT_3D('',#730,#588,#589);
#519=AXIS2_PLACEMENT_3D('',#734,#592,#593);
#520=AXIS2_PLACEMENT_3D('',#743,#598,#599);
#521=AXIS2_PLACEMENT_3D('',#751,#604,#605);
#522=AXIS2_PLACEMENT_3D('',#756,#609,#610);
#523=AXIS2_PLACEMENT_3D('',#761,#612,#613);
#524=AXIS2_PLACEMENT_3D('',#763,#615,#616);
#525=AXIS2_PLACEMENT_3D('',#764,#617,#618);
#526=AXIS2_PLACEMENT_3D('',#768,#620,#621);
#527=AXIS2_PLACEMENT_3D('',#770,#623,#624);
#528=AXIS2_PLACEMENT_3D('',#773,#626,#627);
#529=AXIS2_PLACEMENT_3D('',#775,#629,#630);
#530=AXIS2_PLACEMENT_3D('',#777,#632,#633);
#531=AXIS2_PLACEMENT_3D('',#781,#636,#637);
#532=AXIS2_PLACEMENT_3D('',#784,#638,#639);
#533=AXIS2_PLACEMENT_3D('',#785,#640,#641);
#534=AXIS2_PLACEMENT_3D('',#786,#642,#643);
#535=AXIS2_PLACEMENT_3D('',#790,#645,#646);
#536=AXIS2_PLACEMENT_3D('',#791,#647,#648);
#537=AXIS2_PLACEMENT_3D('',#792,#649,#650);
#538=AXIS2_PLACEMENT_3D('',#793,#651,#652);
#539=AXIS2_PLACEMENT_3D('',#797,#655,#656);
#540=AXIS2_PLACEMENT_3D('',#801,#659,#660);
#541=AXIS2_PLACEMENT_3D('',#805,#663,#664);
#542=AXIS2_PLACEMENT_3D('',#808,#667,#668);
#543=AXIS2_PLACEMENT_3D('',#810,#670,#671);
#544=AXIS2_PLACEMENT_3D('',#814,#674,#675);
#545=AXIS2_PLACEMENT_3D('',#816,#677,#678);
#546=DIRECTION('axis',(0.,0.,1.));
#547=DIRECTION('refdir',(1.,0.,0.));
#548=DIRECTION('center_axis',(0.,-0.898794046299167,0.438371146789077));
#549=DIRECTION('ref_axis',(-0.707106781186547,-0.30997521057108,-0.635543365028237));
#550=DIRECTION('center_axis',(0.,0.898794046299167,-0.438371146789077));
#551=DIRECTION('ref_axis',(-0.707106781186547,-0.30997521057108,-0.635543365028237));
#552=DIRECTION('',(0.,-0.898794046299167,0.438371146789077));
#553=DIRECTION('center_axis',(0.,-0.898794046299167,0.438371146789077));
#554=DIRECTION('ref_axis',(-0.707106781186547,-0.30997521057108,-0.635543365028237));
#555=DIRECTION('',(0.,0.898794046299167,-0.438371146789077));
#556=DIRECTION('center_axis',(1.,0.,0.));
#557=DIRECTION('ref_axis',(0.,0.,-1.));
#558=DIRECTION('',(1.77635683940025E-16,0.438371146789077,0.898794046299167));
#559=DIRECTION('',(0.,1.,0.));
#560=DIRECTION('',(0.,0.,-1.));
#561=DIRECTION('',(0.,-1.,0.));
#562=DIRECTION('',(1.77635683940025E-16,0.438371146789077,0.898794046299167));
#563=DIRECTION('center_axis',(2.12926761467248E-17,-0.898794046299167,0.438371146789077));
#564=DIRECTION('ref_axis',(0.707106781186547,-0.30997521057108,-0.635543365028237));
#565=DIRECTION('center_axis',(0.,0.898794046299167,-0.438371146789077));
#566=DIRECTION('ref_axis',(0.707106781186547,-0.30997521057108,-0.635543365028237));
#567=DIRECTION('',(2.12926761467248E-17,-0.898794046299167,0.438371146789077));
#568=DIRECTION('center_axis',(0.,-0.898794046299167,0.438371146789077));
#569=DIRECTION('ref_axis',(0.707106781186547,-0.30997521057108,-0.635543365028237));
#570=DIRECTION('',(-2.12926761467248E-17,0.898794046299167,-0.438371146789077));
#571=DIRECTION('center_axis',(0.,-0.438371146789077,-0.898794046299167));
#572=DIRECTION('ref_axis',(-1.,0.,0.));
#573=DIRECTION('',(1.,-1.41926282848791E-16,6.92220733193713E-17));
#574=DIRECTION('',(0.499999999999998,-0.778378476865287,0.379640549405458));
#575=DIRECTION('',(0.86602540378444,0.449397023149581,-0.219185573394537));
#576=DIRECTION('',(-0.499999999999998,0.778378476865287,-0.379640549405458));
#577=DIRECTION('',(-1.,1.28296522876801E-16,-6.25743952067016E-17));
#578=DIRECTION('center_axis',(-0.353553390593272,0.860371909892181,0.36709695813025));
#579=DIRECTION('ref_axis',(0.720268630098601,0.,0.693695250449276));
#580=DIRECTION('',(-0.353553390593272,0.240421488750021,-0.903989771926223));
#581=DIRECTION('',(-0.86602540378444,-0.449397023149581,0.219185573394537));
#582=DIRECTION('',(0.353553390593272,-0.24042148875002,0.903989771926223));
#583=DIRECTION('center_axis',(-0.499999999999997,0.778378476865287,-0.379640549405458));
#584=DIRECTION('ref_axis',(0.86602540378444,0.449397023149581,-0.219185573394537));
#585=DIRECTION('',(0.,-0.438371146789077,-0.898794046299167));
#586=DIRECTION('',(0.86602540378444,0.449397023149581,-0.219185573394537));
#587=DIRECTION('',(0.,-0.438371146789077,-0.898794046299167));
#588=DIRECTION('center_axis',(0.86602540378444,0.449397023149582,-0.219185573394537));
#589=DIRECTION('ref_axis',(0.499999999999998,-0.778378476865287,0.379640549405458));
#590=DIRECTION('',(0.,-0.438371146789077,-0.898794046299167));
#591=DIRECTION('',(0.499999999999998,-0.778378476865287,0.379640549405459));
#592=DIRECTION('center_axis',(0.353553390593274,0.860371909892179,0.367096958130251));
#593=DIRECTION('ref_axis',(0.7202686300986,0.,-0.693695250449278));
#594=DIRECTION('',(0.356269312535723,0.239010058155795,-0.903297497530956));
#595=DIRECTION('',(-0.866025403784438,0.449397023149584,-0.219185573394539));
#596=DIRECTION('',(-0.353553390593274,-0.24042148875002,0.903989771926222));
#597=DIRECTION('',(0.866025403784438,-0.449397023149584,0.219185573394539));
#598=DIRECTION('center_axis',(0.863797924130304,-0.452846965770836,0.220868222839605));
#599=DIRECTION('ref_axis',(-0.503838412854933,-0.776376431413897,0.378664086595025));
#600=DIRECTION('',(-0.503838412854933,-0.776376431413897,0.378664086595025));
#601=DIRECTION('',(0.,-0.438371146789077,-0.898794046299167));
#602=DIRECTION('',(-0.503838412854933,-0.776376431413897,0.378664086595025));
#603=DIRECTION('',(0.,-0.438371146789077,-0.898794046299167));
#604=DIRECTION('center_axis',(0.,-0.438371146789077,-0.898794046299167));
#605=DIRECTION('ref_axis',(-1.,0.,0.));
#606=DIRECTION('',(-1.,1.28296522876801E-16,-6.25743952067016E-17));
#607=DIRECTION('',(0.5,0.778378476865285,-0.379640549405458));
#608=DIRECTION('',(1.,-1.41926282848791E-16,6.92220733193713E-17));
#609=DIRECTION('center_axis',(1.,0.,0.));
#610=DIRECTION('ref_axis',(0.,0.707106781186548,0.707106781186547));
#611=DIRECTION('',(-1.,0.,0.));
#612=DIRECTION('center_axis',(0.707106781186548,-1.96261557335472E-16,0.707106781186547));
#613=DIRECTION('ref_axis',(-0.707106781186547,-1.96261557335472E-16,0.707106781186548));
#614=DIRECTION('',(1.,0.,0.));
#615=DIRECTION('center_axis',(0.707106781186548,0.,-0.707106781186547));
#616=DIRECTION('ref_axis',(0.707106781186547,0.,0.707106781186548));
#617=DIRECTION('center_axis',(4.85722573273506E-17,0.,1.));
#618=DIRECTION('ref_axis',(-0.707106781186547,0.707106781186548,0.));
#619=DIRECTION('',(-4.85722573273506E-17,0.,-1.));
#620=DIRECTION('center_axis',(-0.707106781186548,2.94392336003208E-16,0.707106781186548));
#621=DIRECTION('ref_axis',(-0.707106781186548,2.94392336003208E-16,-0.707106781186548));
#622=DIRECTION('',(4.85722573273506E-17,0.,1.));
#623=DIRECTION('center_axis',(-1.,0.,2.22044604925031E-16));
#624=DIRECTION('ref_axis',(0.,0.707106781186548,-0.707106781186548));
#625=DIRECTION('',(1.,0.,-2.22044604925031E-16));
#626=DIRECTION('center_axis',(-0.707106781186548,0.,-0.707106781186547));
#627=DIRECTION('ref_axis',(0.707106781186547,0.,-0.707106781186548));
#628=DIRECTION('',(-1.,0.,2.22044604925031E-16));
#629=DIRECTION('center_axis',(0.,0.,-1.));
#630=DIRECTION('ref_axis',(0.707106781186547,0.707106781186548,0.));
#631=DIRECTION('',(0.,0.,1.));
#632=DIRECTION('center_axis',(0.,0.,1.));
#633=DIRECTION('ref_axis',(1.,0.,0.));
#634=DIRECTION('',(0.,1.,0.));
#635=DIRECTION('',(-1.,0.,0.));
#636=DIRECTION('center_axis',(0.,1.,0.));
#637=DIRECTION('ref_axis',(0.,0.,1.));
#638=DIRECTION('center_axis',(0.,-1.,0.));
#639=DIRECTION('ref_axis',(1.,0.,0.));
#640=DIRECTION('center_axis',(0.,-1.,0.));
#641=DIRECTION('ref_axis',(1.,0.,0.));
#642=DIRECTION('center_axis',(0.,1.,0.));
#643=DIRECTION('ref_axis',(1.,0.,0.));
#644=DIRECTION('',(0.,-1.,0.));
#645=DIRECTION('center_axis',(0.,1.,0.));
#646=DIRECTION('ref_axis',(1.,0.,0.));
#647=DIRECTION('center_axis',(0.,1.,0.));
#648=DIRECTION('ref_axis',(1.,0.,0.));
#649=DIRECTION('center_axis',(0.,1.,0.));
#650=DIRECTION('ref_axis',(1.,0.,0.));
#651=DIRECTION('center_axis',(0.5,0.778378476865286,-0.379640549405458));
#652=DIRECTION('ref_axis',(0.866025403784438,-0.449397023149584,0.219185573394539));
#653=DIRECTION('',(0.866025403784438,-0.449397023149584,0.219185573394539));
#654=DIRECTION('',(0.,-0.438371146789077,-0.898794046299167));
#655=DIRECTION('center_axis',(-0.866025403784438,0.449397023149584,-0.219185573394539));
#656=DIRECTION('ref_axis',(0.5,0.778378476865285,-0.379640549405458));
#657=DIRECTION('',(0.5,0.778378476865285,-0.379640549405458));
#658=DIRECTION('',(0.,-0.438371146789077,-0.898794046299167));
#659=DIRECTION('center_axis',(-0.86602540378444,-0.449397023149582,0.219185573394538));
#660=DIRECTION('ref_axis',(-0.499999999999998,0.778378476865287,-0.379640549405458));
#661=DIRECTION('',(-0.499999999999998,0.778378476865287,-0.379640549405458));
#662=DIRECTION('',(0.,-0.438371146789077,-0.898794046299167));
#663=DIRECTION('center_axis',(0.,-0.438371146789077,-0.898794046299167));
#664=DIRECTION('ref_axis',(-1.,0.,0.));
#665=DIRECTION('',(-1.,1.28296522876801E-16,-6.25743952067016E-17));
#666=DIRECTION('',(1.,-1.41926282848791E-16,6.92220733193713E-17));
#667=DIRECTION('center_axis',(0.,-0.898794046299167,0.438371146789077));
#668=DIRECTION('ref_axis',(0.,-0.438371146789077,-0.898794046299167));
#669=DIRECTION('',(-5.51091059616309E-17,-0.438371146789077,-0.898794046299167));
#670=DIRECTION('center_axis',(-1.,0.,4.85722573273506E-17));
#671=DIRECTION('ref_axis',(4.85722573273506E-17,0.,1.));
#672=DIRECTION('',(0.,1.,0.));
#673=DIRECTION('',(-5.51091059616309E-17,-0.438371146789077,-0.898794046299167));
#674=DIRECTION('center_axis',(0.,-0.898794046299167,0.438371146789077));
#675=DIRECTION('ref_axis',(0.,-0.438371146789077,-0.898794046299167));
#676=DIRECTION('',(-1.,0.,0.));
#677=DIRECTION('center_axis',(-2.22044604925031E-16,0.,-1.));
#678=DIRECTION('ref_axis',(-1.,0.,2.22044604925031E-16));
#679=CARTESIAN_POINT('',(0.,0.,0.));
#680=CARTESIAN_POINT('Origin',(34.,-5.29910388467408,-26.3431047976034));
#681=CARTESIAN_POINT('',(34.,-21.9185573394539,-44.9397023149584));
#682=CARTESIAN_POINT('',(10.,-11.397649816516,-23.3686452037783));
#683=CARTESIAN_POINT('Origin',(34.,-11.397649816516,-23.3686452037783));
#684=CARTESIAN_POINT('',(10.,-20.3855902795077,-18.9849337358876));
#685=CARTESIAN_POINT('',(10.,-5.29910388467408,-26.3431047976034));
#686=CARTESIAN_POINT('',(34.,-30.9064978024455,-40.5559908470676));
#687=CARTESIAN_POINT('Origin',(34.,-20.3855902795077,-18.9849337358876));
#688=CARTESIAN_POINT('',(34.,-15.8200114076119,-47.9141619087834));
#689=CARTESIAN_POINT('Origin',(10.,0.,0.));
#690=CARTESIAN_POINT('',(10.,-4.87732588565862,-10.));
#691=CARTESIAN_POINT('',(10.,-21.9185573394539,-44.9397023149584));
#692=CARTESIAN_POINT('',(10.,14.,-10.));
#693=CARTESIAN_POINT('',(10.,0.,-10.));
#694=CARTESIAN_POINT('',(10.,14.,0.));
#695=CARTESIAN_POINT('',(10.,14.,-2.5));
#696=CARTESIAN_POINT('',(10.,-11.1260194047519,0.));
#697=CARTESIAN_POINT('',(10.,-3.75,0.));
#698=CARTESIAN_POINT('',(10.,-30.9064978024455,-40.5559908470676));
#699=CARTESIAN_POINT('Origin',(-24.,-3.32907700065727,-27.3039511092893));
#700=CARTESIAN_POINT('',(-1.4328367550024E-15,-11.397649816516,-23.3686452037783));
#701=CARTESIAN_POINT('',(-24.,-21.9185573394539,-44.9397023149584));
#702=CARTESIAN_POINT('Origin',(-24.,-11.397649816516,-23.3686452037783));
#703=CARTESIAN_POINT('',(-24.,-30.9064978024455,-40.5559908470676));
#704=CARTESIAN_POINT('',(-24.,-13.8499845235951,-48.8750082204693));
#705=CARTESIAN_POINT('',(-1.4328367550024E-15,-20.3855902795077,-18.9849337358876));
#706=CARTESIAN_POINT('Origin',(-24.,-20.3855902795077,-18.9849337358876));
#707=CARTESIAN_POINT('',(0.,-3.32907700065727,-27.3039511092893));
#708=CARTESIAN_POINT('Origin',(5.12500000000003,-9.72146547577001,-50.8886215026085));
#709=CARTESIAN_POINT('',(-24.2264973081037,-21.9185573394539,-44.9397023149584));
#710=CARTESIAN_POINT('',(-30.,-21.9185573394539,-44.9397023149584));
#711=CARTESIAN_POINT('',(-44.6698729810777,9.90680989717495,-60.4619710593385));
#712=CARTESIAN_POINT('',(-45.6698729810777,11.4635668509055,-61.2212521581494));
#713=CARTESIAN_POINT('',(-53.3301270189221,5.41283966567914,-58.2701153253931));
#714=CARTESIAN_POINT('',(-35.0550873255089,14.8961047064868,-62.8954127318024));
#715=CARTESIAN_POINT('',(-30.,-30.9064978024455,-40.5559908470676));
#716=CARTESIAN_POINT('',(-30.,-30.9064978024455,-40.5559908470676));
#717=CARTESIAN_POINT('',(40.,-30.9064978024455,-40.5559908470676));
#718=CARTESIAN_POINT('Origin',(-35.5550873255089,15.236112036563,-64.173847327507));
#719=CARTESIAN_POINT('',(-45.6698729810777,10.5868245573274,-63.0188402507477));
#720=CARTESIAN_POINT('',(-45.1698729810777,10.2468172272512,-61.7404056550431));
#721=CARTESIAN_POINT('',(-54.3301270189221,6.09285432583156,-60.8269845168024));
#722=CARTESIAN_POINT('',(-36.0550873255089,15.5761193666393,-65.4522819232116));
#723=CARTESIAN_POINT('',(-47.7475952641916,1.61663623169596,-43.9963118716587));
#724=CARTESIAN_POINT('Origin',(-54.3301270189221,6.96959661940971,-59.029396424204));
#725=CARTESIAN_POINT('',(-45.6698729810777,9.27171111696015,-65.7152223896452));
#726=CARTESIAN_POINT('',(-45.6698729810777,11.4635668509055,-61.2212521581494));
#727=CARTESIAN_POINT('',(-54.3301270189221,4.77774088546433,-63.5233666556999));
#728=CARTESIAN_POINT('',(-54.3301270189221,4.77774088546433,-63.5233666556999));
#729=CARTESIAN_POINT('',(-54.3301270189221,6.96959661940971,-59.029396424204));
#730=CARTESIAN_POINT('Origin',(-45.6698729810777,11.4635668509055,-61.2212521581494));
#731=CARTESIAN_POINT('',(-24.2264973081037,-24.1104130733992,-49.4336725464542));
#732=CARTESIAN_POINT('',(-24.2264973081037,-21.9185573394539,-44.9397023149584));
#733=CARTESIAN_POINT('',(-45.6698729810777,9.27171111696014,-65.7152223896452));
#734=CARTESIAN_POINT('Origin',(41.4749603065868,17.4830971523109,-65.2697751944797));
#735=CARTESIAN_POINT('',(63.5724402699773,5.41682846563623,-58.2720607931214));
#736=CARTESIAN_POINT('',(64.5801270189222,6.09285432583149,-60.8269845168023));
#737=CARTESIAN_POINT('',(64.0616974253872,5.74505595268908,-59.5125402522848));
#738=CARTESIAN_POINT('',(55.9198729810778,10.5868245573273,-63.0188402507477));
#739=CARTESIAN_POINT('',(41.9749603065868,17.8231044823871,-66.5482097901843));
#740=CARTESIAN_POINT('',(54.9198729810778,9.90680989717491,-60.4619710593384));
#741=CARTESIAN_POINT('',(50.0590290628343,6.6013647720566,-48.0334290005326));
#742=CARTESIAN_POINT('',(40.9749603065868,17.1430898222347,-63.991340598775));
#743=CARTESIAN_POINT('Origin',(64.5801270189222,6.96959661940965,-59.029396424204));
#744=CARTESIAN_POINT('',(40.,-30.9064978024455,-40.5559908470676));
#745=CARTESIAN_POINT('',(64.5801270189222,6.96959661940964,-59.029396424204));
#746=CARTESIAN_POINT('',(40.,-33.0983535363909,-45.0499610785634));
#747=CARTESIAN_POINT('',(40.,-30.9064978024455,-40.5559908470676));
#748=CARTESIAN_POINT('',(64.5801270189222,4.77774088546427,-63.5233666556998));
#749=CARTESIAN_POINT('',(64.5801270189222,4.77774088546426,-63.5233666556998));
#750=CARTESIAN_POINT('',(64.5801270189222,6.96959661940965,-59.029396424204));
#751=CARTESIAN_POINT('Origin',(5.12500000000003,-9.72146547577001,-50.8886215026085));
#752=CARTESIAN_POINT('',(40.,-30.9064978024455,-40.5559908470676));
#753=CARTESIAN_POINT('',(34.4764973081037,-21.9185573394539,-44.9397023149584));
#754=CARTESIAN_POINT('',(34.4764973081037,-21.9185573394539,-44.9397023149584));
#755=CARTESIAN_POINT('',(-30.,-21.9185573394539,-44.9397023149584));
#756=CARTESIAN_POINT('Origin',(2.5,14.,-1.));
#757=CARTESIAN_POINT('',(9.,15.,-1.));
#758=CARTESIAN_POINT('',(1.,15.,-1.));
#759=CARTESIAN_POINT('',(2.5,15.,-1.));
#760=CARTESIAN_POINT('',(0.,14.,0.));
#761=CARTESIAN_POINT('Origin',(1.,14.,-1.));
#762=CARTESIAN_POINT('',(2.5,14.,0.));
#763=CARTESIAN_POINT('Origin',(9.,14.,-1.));
#764=CARTESIAN_POINT('Origin',(1.,14.,-7.50000000000001));
#765=CARTESIAN_POINT('',(1.,15.,-9.00000000000001));
#766=CARTESIAN_POINT('',(1.,15.,-7.50000000000001));
#767=CARTESIAN_POINT('',(-4.85722573273506E-16,14.,-10.));
#768=CARTESIAN_POINT('Origin',(0.999999999999999,14.,-9.00000000000001));
#769=CARTESIAN_POINT('',(-4.16333634234434E-16,14.,-7.50000000000001));
#770=CARTESIAN_POINT('Origin',(7.5,14.,-9.00000000000001));
#771=CARTESIAN_POINT('',(9.,15.,-9.00000000000001));
#772=CARTESIAN_POINT('',(7.5,15.,-9.00000000000001));
#773=CARTESIAN_POINT('Origin',(9.,14.,-9.00000000000001));
#774=CARTESIAN_POINT('',(7.5,14.,-10.));
#775=CARTESIAN_POINT('Origin',(9.,14.,-2.5));
#776=CARTESIAN_POINT('',(9.,15.,-2.5));
#777=CARTESIAN_POINT('Origin',(0.,0.,0.));
#778=CARTESIAN_POINT('',(-6.81272202564037E-16,-11.1260194047519,0.));
#779=CARTESIAN_POINT('',(0.,0.,0.));
#780=CARTESIAN_POINT('',(5.,-11.1260194047519,0.));
#781=CARTESIAN_POINT('Origin',(5.,15.,-5.));
#782=CARTESIAN_POINT('',(6.7,15.,-5.));
#783=CARTESIAN_POINT('',(3.3,15.,-5.));
#784=CARTESIAN_POINT('Origin',(5.,15.,-5.));
#785=CARTESIAN_POINT('Origin',(5.,15.,-5.));
#786=CARTESIAN_POINT('Origin',(5.,12.,-5.));
#787=CARTESIAN_POINT('',(3.3,9.,-5.));
#788=CARTESIAN_POINT('',(3.3,12.,-5.));
#789=CARTESIAN_POINT('',(6.7,9.,-5.));
#790=CARTESIAN_POINT('Origin',(5.,9.,-5.));
#791=CARTESIAN_POINT('Origin',(5.,9.,-5.));
#792=CARTESIAN_POINT('Origin',(5.,9.,-5.));
#793=CARTESIAN_POINT('Origin',(55.9198729810778,11.4635668509055,-61.2212521581494));
#794=CARTESIAN_POINT('',(55.9198729810778,9.2717111169601,-65.7152223896452));
#795=CARTESIAN_POINT('',(55.9198729810778,9.2717111169601,-65.7152223896452));
#796=CARTESIAN_POINT('',(55.9198729810778,11.4635668509055,-61.2212521581494));
#797=CARTESIAN_POINT('Origin',(34.4764973081037,-21.9185573394539,-44.9397023149584));
#798=CARTESIAN_POINT('',(34.4764973081037,-24.1104130733993,-49.4336725464542));
#799=CARTESIAN_POINT('',(34.4764973081037,-24.1104130733993,-49.4336725464542));
#800=CARTESIAN_POINT('',(34.4764973081037,-21.9185573394539,-44.9397023149584));
#801=CARTESIAN_POINT('Origin',(-30.,-30.9064978024455,-40.5559908470676));
#802=CARTESIAN_POINT('',(-30.,-33.0983535363909,-45.0499610785634));
#803=CARTESIAN_POINT('',(-30.,-33.0983535363909,-45.0499610785634));
#804=CARTESIAN_POINT('',(-30.,-30.9064978024455,-40.5559908470676));
#805=CARTESIAN_POINT('Origin',(5.12500000000003,-11.9133212097154,-55.3825917341043));
#806=CARTESIAN_POINT('',(40.,-33.0983535363909,-45.0499610785634));
#807=CARTESIAN_POINT('',(-30.,-24.1104130733992,-49.4336725464542));
#808=CARTESIAN_POINT('Origin',(5.,-19.9472191327186,-18.0861396895884));
#809=CARTESIAN_POINT('',(0.,-8.98794046299167,4.38371146789077));
#810=CARTESIAN_POINT('Origin',(-4.85722573273506E-16,0.,-10.));
#811=CARTESIAN_POINT('',(0.,-4.87732588565862,-10.));
#812=CARTESIAN_POINT('',(-4.85722573273506E-16,0.,-10.));
#813=CARTESIAN_POINT('',(0.,0.,0.));
#814=CARTESIAN_POINT('Origin',(5.,-10.9592786697269,-22.4698511574792));
#815=CARTESIAN_POINT('',(2.5,-4.87732588565862,-10.));
#816=CARTESIAN_POINT('Origin',(10.,0.,-10.));
#817=UNCERTAINTY_MEASURE_WITH_UNIT(LENGTH_MEASURE(0.01),#821,
'DISTANCE_ACCURACY_VALUE',
'Maximum model space distance between geometric entities at asserted c
onnectivities');
#818=UNCERTAINTY_MEASURE_WITH_UNIT(LENGTH_MEASURE(0.01),#821,
'DISTANCE_ACCURACY_VALUE',
'Maximum model space distance between geometric entities at asserted c
onnectivities');
#819=(
GEOMETRIC_REPRESENTATION_CONTEXT(3)
GLOBAL_UNCERTAINTY_ASSIGNED_CONTEXT((#817))
GLOBAL_UNIT_ASSIGNED_CONTEXT((#821,#823,#824))
REPRESENTATION_CONTEXT('','3D')
);
#820=(
GEOMETRIC_REPRESENTATION_CONTEXT(3)
GLOBAL_UNCERTAINTY_ASSIGNED_CONTEXT((#818))
GLOBAL_UNIT_ASSIGNED_CONTEXT((#821,#823,#824))
REPRESENTATION_CONTEXT('','3D')
);
#821=(
LENGTH_UNIT()
NAMED_UNIT(*)
SI_UNIT(.MILLI.,.METRE.)
);
#822=(
LENGTH_UNIT()
NAMED_UNIT(*)
SI_UNIT(.CENTI.,.METRE.)
);
#823=(
NAMED_UNIT(*)
PLANE_ANGLE_UNIT()
SI_UNIT($,.RADIAN.)
);
#824=(
NAMED_UNIT(*)
SI_UNIT($,.STERADIAN.)
SOLID_ANGLE_UNIT()
);
#825=SHAPE_DEFINITION_REPRESENTATION(#826,#827);
#826=PRODUCT_DEFINITION_SHAPE('',$,#829);
#827=SHAPE_REPRESENTATION('',(#507),#819);
#828=PRODUCT_DEFINITION_CONTEXT('part definition',#833,'design');
#829=PRODUCT_DEFINITION('Fuss','Fuss',#830,#828);
#830=PRODUCT_DEFINITION_FORMATION('',$,#835);
#831=PRODUCT_RELATED_PRODUCT_CATEGORY('Fuss','Fuss',(#835));
#832=APPLICATION_PROTOCOL_DEFINITION('international standard',
'automotive_design',2009,#833);
#833=APPLICATION_CONTEXT(
'Core Data for Automotive Mechanical Design Process');
#834=PRODUCT_CONTEXT('part definition',#833,'mechanical');
#835=PRODUCT('Fuss','Fuss',$,(#834));
#836=PRESENTATION_STYLE_ASSIGNMENT((#837));
#837=SURFACE_STYLE_USAGE(.BOTH.,#840);
#838=SURFACE_STYLE_RENDERING_WITH_PROPERTIES($,#844,(#839));
#839=SURFACE_STYLE_TRANSPARENT(0.);
#840=SURFACE_SIDE_STYLE('',(#841,#838));
#841=SURFACE_STYLE_FILL_AREA(#842);
#842=FILL_AREA_STYLE('',(#843));
#843=FILL_AREA_STYLE_COLOUR('',#844);
#844=COLOUR_RGB('',0.749019607843137,0.749019607843137,0.749019607843137);
ENDSEC;
END-ISO-10303-21;
