ISO-10303-21;
HEADER;
/* Generated by software containing ST-Developer
 * from STEP Tools, Inc. (www.steptools.com) 
 */

FILE_DESCRIPTION(
/* description */ (''),
/* implementation_level */ '2;1');

FILE_NAME(
/* name */ 
'C:\\Users\\Harald\\Documents\\Projekte\\Wetterstation-2.0\\Inventor\\
Lichtsensor.stp',
/* time_stamp */ '2024-07-23T23:50:02+02:00',
/* author */ ('Harald'),
/* organization */ (''),
/* preprocessor_version */ 'ST-DEVELOPER v18.1',
/* originating_system */ 'Autodesk Inventor 2021',
/* authorisation */ '');

FILE_SCHEMA (('AUTOMOTIVE_DESIGN { 1 0 10303 214 3 1 1 }'));
ENDSEC;

DATA;
#10=MECHANICAL_DESIGN_GEOMETRIC_PRESENTATION_REPRESENTATION('',(#13),#461);
#11=SHAPE_REPRESENTATION_RELATIONSHIP('SRR','None',#468,#12);
#12=ADVANCED_BREP_SHAPE_REPRESENTATION('',(#14),#460);
#13=STYLED_ITEM('',(#477),#14);
#14=MANIFOLD_SOLID_BREP('Volumenk\X\F6rper1',#267);
#15=FACE_BOUND('',#53,.T.);
#16=FACE_BOUND('',#61,.T.);
#17=FACE_BOUND('',#63,.T.);
#18=PLANE('',#292);
#19=PLANE('',#293);
#20=PLANE('',#294);
#21=PLANE('',#295);
#22=PLANE('',#296);
#23=PLANE('',#297);
#24=PLANE('',#303);
#25=PLANE('',#304);
#26=PLANE('',#305);
#27=PLANE('',#306);
#28=PLANE('',#307);
#29=PLANE('',#308);
#30=PLANE('',#309);
#31=FACE_OUTER_BOUND('',#46,.T.);
#32=FACE_OUTER_BOUND('',#47,.T.);
#33=FACE_OUTER_BOUND('',#48,.T.);
#34=FACE_OUTER_BOUND('',#49,.T.);
#35=FACE_OUTER_BOUND('',#50,.T.);
#36=FACE_OUTER_BOUND('',#51,.T.);
#37=FACE_OUTER_BOUND('',#52,.T.);
#38=FACE_OUTER_BOUND('',#54,.T.);
#39=FACE_OUTER_BOUND('',#55,.T.);
#40=FACE_OUTER_BOUND('',#56,.T.);
#41=FACE_OUTER_BOUND('',#57,.T.);
#42=FACE_OUTER_BOUND('',#58,.T.);
#43=FACE_OUTER_BOUND('',#59,.T.);
#44=FACE_OUTER_BOUND('',#60,.T.);
#45=FACE_OUTER_BOUND('',#62,.T.);
#46=EDGE_LOOP('',(#182,#183,#184,#185,#186,#187));
#47=EDGE_LOOP('',(#188,#189));
#48=EDGE_LOOP('',(#190,#191,#192,#193));
#49=EDGE_LOOP('',(#194,#195,#196,#197));
#50=EDGE_LOOP('',(#198,#199,#200,#201));
#51=EDGE_LOOP('',(#202,#203,#204,#205));
#52=EDGE_LOOP('',(#206,#207,#208,#209));
#53=EDGE_LOOP('',(#210,#211));
#54=EDGE_LOOP('',(#212,#213,#214,#215,#216,#217));
#55=EDGE_LOOP('',(#218,#219));
#56=EDGE_LOOP('',(#220,#221,#222,#223));
#57=EDGE_LOOP('',(#224,#225,#226,#227));
#58=EDGE_LOOP('',(#228,#229,#230,#231));
#59=EDGE_LOOP('',(#232,#233,#234,#235));
#60=EDGE_LOOP('',(#236,#237,#238,#239));
#61=EDGE_LOOP('',(#240,#241));
#62=EDGE_LOOP('',(#242,#243,#244,#245));
#63=EDGE_LOOP('',(#246,#247,#248,#249));
#64=LINE('',#391,#90);
#65=LINE('',#399,#91);
#66=LINE('',#401,#92);
#67=LINE('',#403,#93);
#68=LINE('',#404,#94);
#69=LINE('',#407,#95);
#70=LINE('',#409,#96);
#71=LINE('',#410,#97);
#72=LINE('',#413,#98);
#73=LINE('',#415,#99);
#74=LINE('',#416,#100);
#75=LINE('',#418,#101);
#76=LINE('',#419,#102);
#77=LINE('',#427,#103);
#78=LINE('',#435,#104);
#79=LINE('',#437,#105);
#80=LINE('',#439,#106);
#81=LINE('',#440,#107);
#82=LINE('',#443,#108);
#83=LINE('',#445,#109);
#84=LINE('',#446,#110);
#85=LINE('',#449,#111);
#86=LINE('',#451,#112);
#87=LINE('',#452,#113);
#88=LINE('',#454,#114);
#89=LINE('',#455,#115);
#90=VECTOR('',#318,2.);
#91=VECTOR('',#327,10.);
#92=VECTOR('',#328,10.);
#93=VECTOR('',#329,10.);
#94=VECTOR('',#330,10.);
#95=VECTOR('',#333,10.);
#96=VECTOR('',#334,10.);
#97=VECTOR('',#335,10.);
#98=VECTOR('',#338,10.);
#99=VECTOR('',#339,10.);
#100=VECTOR('',#340,10.);
#101=VECTOR('',#343,10.);
#102=VECTOR('',#344,10.);
#103=VECTOR('',#353,2.4);
#104=VECTOR('',#362,10.);
#105=VECTOR('',#363,10.);
#106=VECTOR('',#364,10.);
#107=VECTOR('',#365,10.);
#108=VECTOR('',#368,10.);
#109=VECTOR('',#369,10.);
#110=VECTOR('',#370,10.);
#111=VECTOR('',#373,10.);
#112=VECTOR('',#374,10.);
#113=VECTOR('',#375,10.);
#114=VECTOR('',#378,10.);
#115=VECTOR('',#379,10.);
#116=CIRCLE('',#288,2.);
#117=CIRCLE('',#289,2.);
#118=CIRCLE('',#290,2.);
#119=CIRCLE('',#291,2.);
#120=CIRCLE('',#299,2.4);
#121=CIRCLE('',#300,2.4);
#122=CIRCLE('',#301,2.4);
#123=CIRCLE('',#302,2.4);
#124=VERTEX_POINT('',#386);
#125=VERTEX_POINT('',#387);
#126=VERTEX_POINT('',#390);
#127=VERTEX_POINT('',#392);
#128=VERTEX_POINT('',#397);
#129=VERTEX_POINT('',#398);
#130=VERTEX_POINT('',#400);
#131=VERTEX_POINT('',#402);
#132=VERTEX_POINT('',#406);
#133=VERTEX_POINT('',#408);
#134=VERTEX_POINT('',#412);
#135=VERTEX_POINT('',#414);
#136=VERTEX_POINT('',#422);
#137=VERTEX_POINT('',#423);
#138=VERTEX_POINT('',#426);
#139=VERTEX_POINT('',#428);
#140=VERTEX_POINT('',#433);
#141=VERTEX_POINT('',#434);
#142=VERTEX_POINT('',#436);
#143=VERTEX_POINT('',#438);
#144=VERTEX_POINT('',#442);
#145=VERTEX_POINT('',#444);
#146=VERTEX_POINT('',#448);
#147=VERTEX_POINT('',#450);
#148=EDGE_CURVE('',#124,#125,#116,.T.);
#149=EDGE_CURVE('',#125,#124,#117,.T.);
#150=EDGE_CURVE('',#125,#126,#64,.T.);
#151=EDGE_CURVE('',#126,#127,#118,.T.);
#152=EDGE_CURVE('',#127,#126,#119,.T.);
#153=EDGE_CURVE('',#128,#129,#65,.T.);
#154=EDGE_CURVE('',#128,#130,#66,.T.);
#155=EDGE_CURVE('',#130,#131,#67,.T.);
#156=EDGE_CURVE('',#129,#131,#68,.T.);
#157=EDGE_CURVE('',#132,#128,#69,.T.);
#158=EDGE_CURVE('',#132,#133,#70,.T.);
#159=EDGE_CURVE('',#133,#130,#71,.T.);
#160=EDGE_CURVE('',#134,#132,#72,.T.);
#161=EDGE_CURVE('',#134,#135,#73,.T.);
#162=EDGE_CURVE('',#135,#133,#74,.T.);
#163=EDGE_CURVE('',#129,#134,#75,.T.);
#164=EDGE_CURVE('',#131,#135,#76,.T.);
#165=EDGE_CURVE('',#136,#137,#120,.T.);
#166=EDGE_CURVE('',#137,#136,#121,.T.);
#167=EDGE_CURVE('',#137,#138,#77,.T.);
#168=EDGE_CURVE('',#139,#138,#122,.T.);
#169=EDGE_CURVE('',#138,#139,#123,.T.);
#170=EDGE_CURVE('',#140,#141,#78,.T.);
#171=EDGE_CURVE('',#141,#142,#79,.T.);
#172=EDGE_CURVE('',#143,#142,#80,.T.);
#173=EDGE_CURVE('',#140,#143,#81,.T.);
#174=EDGE_CURVE('',#144,#140,#82,.T.);
#175=EDGE_CURVE('',#145,#143,#83,.T.);
#176=EDGE_CURVE('',#144,#145,#84,.T.);
#177=EDGE_CURVE('',#146,#144,#85,.T.);
#178=EDGE_CURVE('',#147,#145,#86,.T.);
#179=EDGE_CURVE('',#146,#147,#87,.T.);
#180=EDGE_CURVE('',#141,#146,#88,.T.);
#181=EDGE_CURVE('',#142,#147,#89,.T.);
#182=ORIENTED_EDGE('',*,*,#148,.F.);
#183=ORIENTED_EDGE('',*,*,#149,.F.);
#184=ORIENTED_EDGE('',*,*,#150,.T.);
#185=ORIENTED_EDGE('',*,*,#151,.T.);
#186=ORIENTED_EDGE('',*,*,#152,.T.);
#187=ORIENTED_EDGE('',*,*,#150,.F.);
#188=ORIENTED_EDGE('',*,*,#152,.F.);
#189=ORIENTED_EDGE('',*,*,#151,.F.);
#190=ORIENTED_EDGE('',*,*,#153,.F.);
#191=ORIENTED_EDGE('',*,*,#154,.T.);
#192=ORIENTED_EDGE('',*,*,#155,.T.);
#193=ORIENTED_EDGE('',*,*,#156,.F.);
#194=ORIENTED_EDGE('',*,*,#157,.F.);
#195=ORIENTED_EDGE('',*,*,#158,.T.);
#196=ORIENTED_EDGE('',*,*,#159,.T.);
#197=ORIENTED_EDGE('',*,*,#154,.F.);
#198=ORIENTED_EDGE('',*,*,#160,.F.);
#199=ORIENTED_EDGE('',*,*,#161,.T.);
#200=ORIENTED_EDGE('',*,*,#162,.T.);
#201=ORIENTED_EDGE('',*,*,#158,.F.);
#202=ORIENTED_EDGE('',*,*,#163,.F.);
#203=ORIENTED_EDGE('',*,*,#156,.T.);
#204=ORIENTED_EDGE('',*,*,#164,.T.);
#205=ORIENTED_EDGE('',*,*,#161,.F.);
#206=ORIENTED_EDGE('',*,*,#164,.F.);
#207=ORIENTED_EDGE('',*,*,#155,.F.);
#208=ORIENTED_EDGE('',*,*,#159,.F.);
#209=ORIENTED_EDGE('',*,*,#162,.F.);
#210=ORIENTED_EDGE('',*,*,#148,.T.);
#211=ORIENTED_EDGE('',*,*,#149,.T.);
#212=ORIENTED_EDGE('',*,*,#165,.F.);
#213=ORIENTED_EDGE('',*,*,#166,.F.);
#214=ORIENTED_EDGE('',*,*,#167,.T.);
#215=ORIENTED_EDGE('',*,*,#168,.F.);
#216=ORIENTED_EDGE('',*,*,#169,.F.);
#217=ORIENTED_EDGE('',*,*,#167,.F.);
#218=ORIENTED_EDGE('',*,*,#165,.T.);
#219=ORIENTED_EDGE('',*,*,#166,.T.);
#220=ORIENTED_EDGE('',*,*,#170,.T.);
#221=ORIENTED_EDGE('',*,*,#171,.T.);
#222=ORIENTED_EDGE('',*,*,#172,.F.);
#223=ORIENTED_EDGE('',*,*,#173,.F.);
#224=ORIENTED_EDGE('',*,*,#174,.T.);
#225=ORIENTED_EDGE('',*,*,#173,.T.);
#226=ORIENTED_EDGE('',*,*,#175,.F.);
#227=ORIENTED_EDGE('',*,*,#176,.F.);
#228=ORIENTED_EDGE('',*,*,#177,.T.);
#229=ORIENTED_EDGE('',*,*,#176,.T.);
#230=ORIENTED_EDGE('',*,*,#178,.F.);
#231=ORIENTED_EDGE('',*,*,#179,.F.);
#232=ORIENTED_EDGE('',*,*,#180,.T.);
#233=ORIENTED_EDGE('',*,*,#179,.T.);
#234=ORIENTED_EDGE('',*,*,#181,.F.);
#235=ORIENTED_EDGE('',*,*,#171,.F.);
#236=ORIENTED_EDGE('',*,*,#181,.T.);
#237=ORIENTED_EDGE('',*,*,#178,.T.);
#238=ORIENTED_EDGE('',*,*,#175,.T.);
#239=ORIENTED_EDGE('',*,*,#172,.T.);
#240=ORIENTED_EDGE('',*,*,#168,.T.);
#241=ORIENTED_EDGE('',*,*,#169,.T.);
#242=ORIENTED_EDGE('',*,*,#180,.F.);
#243=ORIENTED_EDGE('',*,*,#170,.F.);
#244=ORIENTED_EDGE('',*,*,#174,.F.);
#245=ORIENTED_EDGE('',*,*,#177,.F.);
#246=ORIENTED_EDGE('',*,*,#153,.T.);
#247=ORIENTED_EDGE('',*,*,#163,.T.);
#248=ORIENTED_EDGE('',*,*,#160,.T.);
#249=ORIENTED_EDGE('',*,*,#157,.T.);
#250=CYLINDRICAL_SURFACE('',#287,2.);
#251=CYLINDRICAL_SURFACE('',#298,2.4);
#252=ADVANCED_FACE('',(#31),#250,.F.);
#253=ADVANCED_FACE('',(#32),#18,.T.);
#254=ADVANCED_FACE('',(#33),#19,.F.);
#255=ADVANCED_FACE('',(#34),#20,.F.);
#256=ADVANCED_FACE('',(#35),#21,.F.);
#257=ADVANCED_FACE('',(#36),#22,.F.);
#258=ADVANCED_FACE('',(#37,#15),#23,.F.);
#259=ADVANCED_FACE('',(#38),#251,.T.);
#260=ADVANCED_FACE('',(#39),#24,.T.);
#261=ADVANCED_FACE('',(#40),#25,.T.);
#262=ADVANCED_FACE('',(#41),#26,.T.);
#263=ADVANCED_FACE('',(#42),#27,.T.);
#264=ADVANCED_FACE('',(#43),#28,.T.);
#265=ADVANCED_FACE('',(#44,#16),#29,.T.);
#266=ADVANCED_FACE('',(#45,#17),#30,.F.);
#267=CLOSED_SHELL('',(#252,#253,#254,#255,#256,#257,#258,#259,#260,#261,
#262,#263,#264,#265,#266));
#268=DERIVED_UNIT_ELEMENT(#270,1.);
#269=DERIVED_UNIT_ELEMENT(#463,3.);
#270=(
MASS_UNIT()
NAMED_UNIT(*)
SI_UNIT($,.GRAM.)
);
#271=DERIVED_UNIT((#268,#269));
#272=MEASURE_REPRESENTATION_ITEM('density measure',
POSITIVE_RATIO_MEASURE(1.),#271);
#273=PROPERTY_DEFINITION_REPRESENTATION(#278,#275);
#274=PROPERTY_DEFINITION_REPRESENTATION(#279,#276);
#275=REPRESENTATION('material name',(#277),#460);
#276=REPRESENTATION('density',(#272),#460);
#277=DESCRIPTIVE_REPRESENTATION_ITEM('Generisch','Generisch');
#278=PROPERTY_DEFINITION('material property','material name',#470);
#279=PROPERTY_DEFINITION('material property','density of part',#470);
#280=DATE_TIME_ROLE('creation_date');
#281=APPLIED_DATE_AND_TIME_ASSIGNMENT(#282,#280,(#470));
#282=DATE_AND_TIME(#283,#284);
#283=CALENDAR_DATE(2023,11,6);
#284=LOCAL_TIME(0,0,0.,#285);
#285=COORDINATED_UNIVERSAL_TIME_OFFSET(0,0,.BEHIND.);
#286=AXIS2_PLACEMENT_3D('placement',#384,#310,#311);
#287=AXIS2_PLACEMENT_3D('',#385,#312,#313);
#288=AXIS2_PLACEMENT_3D('',#388,#314,#315);
#289=AXIS2_PLACEMENT_3D('',#389,#316,#317);
#290=AXIS2_PLACEMENT_3D('',#393,#319,#320);
#291=AXIS2_PLACEMENT_3D('',#394,#321,#322);
#292=AXIS2_PLACEMENT_3D('',#395,#323,#324);
#293=AXIS2_PLACEMENT_3D('',#396,#325,#326);
#294=AXIS2_PLACEMENT_3D('',#405,#331,#332);
#295=AXIS2_PLACEMENT_3D('',#411,#336,#337);
#296=AXIS2_PLACEMENT_3D('',#417,#341,#342);
#297=AXIS2_PLACEMENT_3D('',#420,#345,#346);
#298=AXIS2_PLACEMENT_3D('',#421,#347,#348);
#299=AXIS2_PLACEMENT_3D('',#424,#349,#350);
#300=AXIS2_PLACEMENT_3D('',#425,#351,#352);
#301=AXIS2_PLACEMENT_3D('',#429,#354,#355);
#302=AXIS2_PLACEMENT_3D('',#430,#356,#357);
#303=AXIS2_PLACEMENT_3D('',#431,#358,#359);
#304=AXIS2_PLACEMENT_3D('',#432,#360,#361);
#305=AXIS2_PLACEMENT_3D('',#441,#366,#367);
#306=AXIS2_PLACEMENT_3D('',#447,#371,#372);
#307=AXIS2_PLACEMENT_3D('',#453,#376,#377);
#308=AXIS2_PLACEMENT_3D('',#456,#380,#381);
#309=AXIS2_PLACEMENT_3D('',#457,#382,#383);
#310=DIRECTION('axis',(0.,0.,1.));
#311=DIRECTION('refdir',(1.,0.,0.));
#312=DIRECTION('center_axis',(0.,1.,0.));
#313=DIRECTION('ref_axis',(1.,0.,0.));
#314=DIRECTION('center_axis',(0.,1.,0.));
#315=DIRECTION('ref_axis',(1.,0.,0.));
#316=DIRECTION('center_axis',(0.,1.,0.));
#317=DIRECTION('ref_axis',(1.,0.,0.));
#318=DIRECTION('',(0.,1.,0.));
#319=DIRECTION('center_axis',(0.,1.,0.));
#320=DIRECTION('ref_axis',(1.,0.,0.));
#321=DIRECTION('center_axis',(0.,1.,0.));
#322=DIRECTION('ref_axis',(1.,0.,0.));
#323=DIRECTION('center_axis',(0.,-1.,0.));
#324=DIRECTION('ref_axis',(0.,0.,-1.));
#325=DIRECTION('center_axis',(0.,0.,-1.));
#326=DIRECTION('ref_axis',(-1.,0.,0.));
#327=DIRECTION('',(-1.,0.,0.));
#328=DIRECTION('',(0.,1.,0.));
#329=DIRECTION('',(-1.,0.,0.));
#330=DIRECTION('',(0.,1.,0.));
#331=DIRECTION('center_axis',(1.,0.,-7.85535158932894E-17));
#332=DIRECTION('ref_axis',(-7.85535158932894E-17,0.,-1.));
#333=DIRECTION('',(-7.85535158932894E-17,0.,-1.));
#334=DIRECTION('',(0.,1.,0.));
#335=DIRECTION('',(-7.85535158932894E-17,0.,-1.));
#336=DIRECTION('center_axis',(2.41352831440251E-16,0.,1.));
#337=DIRECTION('ref_axis',(1.,0.,-2.41352831440251E-16));
#338=DIRECTION('',(1.,0.,-2.41352831440251E-16));
#339=DIRECTION('',(0.,1.,0.));
#340=DIRECTION('',(1.,0.,-2.41352831440251E-16));
#341=DIRECTION('center_axis',(-1.,0.,0.));
#342=DIRECTION('ref_axis',(0.,0.,1.));
#343=DIRECTION('',(0.,0.,1.));
#344=DIRECTION('',(0.,0.,1.));
#345=DIRECTION('center_axis',(0.,1.,0.));
#346=DIRECTION('ref_axis',(0.,0.,1.));
#347=DIRECTION('center_axis',(0.,1.,0.));
#348=DIRECTION('ref_axis',(1.,0.,0.));
#349=DIRECTION('center_axis',(0.,1.,0.));
#350=DIRECTION('ref_axis',(1.,0.,0.));
#351=DIRECTION('center_axis',(0.,1.,0.));
#352=DIRECTION('ref_axis',(1.,0.,0.));
#353=DIRECTION('',(0.,-1.,0.));
#354=DIRECTION('center_axis',(0.,-1.,0.));
#355=DIRECTION('ref_axis',(1.,0.,0.));
#356=DIRECTION('center_axis',(0.,-1.,0.));
#357=DIRECTION('ref_axis',(1.,0.,0.));
#358=DIRECTION('center_axis',(0.,1.,0.));
#359=DIRECTION('ref_axis',(0.,0.,1.));
#360=DIRECTION('center_axis',(1.,0.,0.));
#361=DIRECTION('ref_axis',(0.,0.,-1.));
#362=DIRECTION('',(0.,0.,-1.));
#363=DIRECTION('',(0.,1.,0.));
#364=DIRECTION('',(0.,0.,-1.));
#365=DIRECTION('',(0.,1.,0.));
#366=DIRECTION('center_axis',(0.,0.,1.));
#367=DIRECTION('ref_axis',(1.,0.,0.));
#368=DIRECTION('',(1.,0.,0.));
#369=DIRECTION('',(1.,0.,0.));
#370=DIRECTION('',(0.,1.,0.));
#371=DIRECTION('center_axis',(-1.,0.,0.));
#372=DIRECTION('ref_axis',(0.,0.,1.));
#373=DIRECTION('',(0.,0.,1.));
#374=DIRECTION('',(0.,0.,1.));
#375=DIRECTION('',(0.,1.,0.));
#376=DIRECTION('center_axis',(0.,0.,-1.));
#377=DIRECTION('ref_axis',(-1.,0.,0.));
#378=DIRECTION('',(-1.,0.,0.));
#379=DIRECTION('',(-1.,0.,0.));
#380=DIRECTION('center_axis',(0.,1.,0.));
#381=DIRECTION('ref_axis',(0.,0.,1.));
#382=DIRECTION('center_axis',(0.,1.,0.));
#383=DIRECTION('ref_axis',(0.,0.,1.));
#384=CARTESIAN_POINT('',(0.,0.,0.));
#385=CARTESIAN_POINT('Origin',(-3.,0.8,-10.));
#386=CARTESIAN_POINT('',(-1.,0.8,-10.));
#387=CARTESIAN_POINT('',(-5.,0.8,-10.));
#388=CARTESIAN_POINT('Origin',(-3.,0.8,-10.));
#389=CARTESIAN_POINT('Origin',(-3.,0.8,-10.));
#390=CARTESIAN_POINT('',(-5.,3.3,-10.));
#391=CARTESIAN_POINT('',(-5.,0.8,-10.));
#392=CARTESIAN_POINT('',(-1.,3.3,-10.));
#393=CARTESIAN_POINT('Origin',(-3.,3.3,-10.));
#394=CARTESIAN_POINT('Origin',(-3.,3.3,-10.));
#395=CARTESIAN_POINT('Origin',(-3.,3.3,-10.));
#396=CARTESIAN_POINT('Origin',(-0.700000000000002,0.,-12.65));
#397=CARTESIAN_POINT('',(-0.700000000000002,0.,-12.65));
#398=CARTESIAN_POINT('',(-5.3,0.,-12.65));
#399=CARTESIAN_POINT('',(-1.85,0.,-12.65));
#400=CARTESIAN_POINT('',(-0.700000000000002,0.8,-12.65));
#401=CARTESIAN_POINT('',(-0.700000000000002,0.,-12.65));
#402=CARTESIAN_POINT('',(-5.3,0.8,-12.65));
#403=CARTESIAN_POINT('',(-5.3,0.8,-12.65));
#404=CARTESIAN_POINT('',(-5.3,0.,-12.65));
#405=CARTESIAN_POINT('Origin',(-0.700000000000001,0.,-7.35));
#406=CARTESIAN_POINT('',(-0.700000000000001,0.,-7.35));
#407=CARTESIAN_POINT('',(-0.700000000000001,0.,-8.675));
#408=CARTESIAN_POINT('',(-0.700000000000001,0.8,-7.35));
#409=CARTESIAN_POINT('',(-0.700000000000001,0.,-7.35));
#410=CARTESIAN_POINT('',(-0.700000000000002,0.8,-12.65));
#411=CARTESIAN_POINT('Origin',(-5.3,0.,-7.35));
#412=CARTESIAN_POINT('',(-5.3,0.,-7.35));
#413=CARTESIAN_POINT('',(-4.15,0.,-7.35));
#414=CARTESIAN_POINT('',(-5.3,0.8,-7.35));
#415=CARTESIAN_POINT('',(-5.3,0.,-7.35));
#416=CARTESIAN_POINT('',(-0.700000000000001,0.8,-7.35));
#417=CARTESIAN_POINT('Origin',(-5.3,0.,-12.65));
#418=CARTESIAN_POINT('',(-5.3,0.,-11.325));
#419=CARTESIAN_POINT('',(-5.3,0.8,-7.35));
#420=CARTESIAN_POINT('Origin',(-3.,0.8,-10.));
#421=CARTESIAN_POINT('Origin',(-3.,1.,-10.));
#422=CARTESIAN_POINT('',(-0.600000000000001,4.,-10.));
#423=CARTESIAN_POINT('',(-5.4,4.,-10.));
#424=CARTESIAN_POINT('Origin',(-3.,4.,-10.));
#425=CARTESIAN_POINT('Origin',(-3.,4.,-10.));
#426=CARTESIAN_POINT('',(-5.4,1.,-10.));
#427=CARTESIAN_POINT('',(-5.4,1.,-10.));
#428=CARTESIAN_POINT('',(-0.600000000000001,1.,-10.));
#429=CARTESIAN_POINT('Origin',(-3.,1.,-10.));
#430=CARTESIAN_POINT('Origin',(-3.,1.,-10.));
#431=CARTESIAN_POINT('Origin',(-3.,4.,-10.));
#432=CARTESIAN_POINT('Origin',(0.,0.,0.));
#433=CARTESIAN_POINT('',(0.,0.,0.));
#434=CARTESIAN_POINT('',(0.,0.,-20.));
#435=CARTESIAN_POINT('',(0.,0.,0.));
#436=CARTESIAN_POINT('',(0.,1.,-20.));
#437=CARTESIAN_POINT('',(0.,0.,-20.));
#438=CARTESIAN_POINT('',(0.,1.,0.));
#439=CARTESIAN_POINT('',(0.,1.,0.));
#440=CARTESIAN_POINT('',(0.,0.,0.));
#441=CARTESIAN_POINT('Origin',(-6.,0.,0.));
#442=CARTESIAN_POINT('',(-6.,0.,0.));
#443=CARTESIAN_POINT('',(-6.,0.,0.));
#444=CARTESIAN_POINT('',(-6.,1.,0.));
#445=CARTESIAN_POINT('',(-6.,1.,0.));
#446=CARTESIAN_POINT('',(-6.,0.,0.));
#447=CARTESIAN_POINT('Origin',(-6.,0.,-20.));
#448=CARTESIAN_POINT('',(-6.,0.,-20.));
#449=CARTESIAN_POINT('',(-6.,0.,-20.));
#450=CARTESIAN_POINT('',(-6.,1.,-20.));
#451=CARTESIAN_POINT('',(-6.,1.,-20.));
#452=CARTESIAN_POINT('',(-6.,0.,-20.));
#453=CARTESIAN_POINT('Origin',(0.,0.,-20.));
#454=CARTESIAN_POINT('',(0.,0.,-20.));
#455=CARTESIAN_POINT('',(0.,1.,-20.));
#456=CARTESIAN_POINT('Origin',(-3.,1.,-10.));
#457=CARTESIAN_POINT('Origin',(-3.,0.,-10.));
#458=UNCERTAINTY_MEASURE_WITH_UNIT(LENGTH_MEASURE(0.01),#462,
'DISTANCE_ACCURACY_VALUE',
'Maximum model space distance between geometric entities at asserted c
onnectivities');
#459=UNCERTAINTY_MEASURE_WITH_UNIT(LENGTH_MEASURE(0.01),#462,
'DISTANCE_ACCURACY_VALUE',
'Maximum model space distance between geometric entities at asserted c
onnectivities');
#460=(
GEOMETRIC_REPRESENTATION_CONTEXT(3)
GLOBAL_UNCERTAINTY_ASSIGNED_CONTEXT((#458))
GLOBAL_UNIT_ASSIGNED_CONTEXT((#462,#464,#465))
REPRESENTATION_CONTEXT('','3D')
);
#461=(
GEOMETRIC_REPRESENTATION_CONTEXT(3)
GLOBAL_UNCERTAINTY_ASSIGNED_CONTEXT((#459))
GLOBAL_UNIT_ASSIGNED_CONTEXT((#462,#464,#465))
REPRESENTATION_CONTEXT('','3D')
);
#462=(
LENGTH_UNIT()
NAMED_UNIT(*)
SI_UNIT(.MILLI.,.METRE.)
);
#463=(
LENGTH_UNIT()
NAMED_UNIT(*)
SI_UNIT(.CENTI.,.METRE.)
);
#464=(
NAMED_UNIT(*)
PLANE_ANGLE_UNIT()
SI_UNIT($,.RADIAN.)
);
#465=(
NAMED_UNIT(*)
SI_UNIT($,.STERADIAN.)
SOLID_ANGLE_UNIT()
);
#466=SHAPE_DEFINITION_REPRESENTATION(#467,#468);
#467=PRODUCT_DEFINITION_SHAPE('',$,#470);
#468=SHAPE_REPRESENTATION('',(#286),#460);
#469=PRODUCT_DEFINITION_CONTEXT('part definition',#474,'design');
#470=PRODUCT_DEFINITION('Lichtsensor','Lichtsensor',#471,#469);
#471=PRODUCT_DEFINITION_FORMATION('',$,#476);
#472=PRODUCT_RELATED_PRODUCT_CATEGORY('Lichtsensor','Lichtsensor',(#476));
#473=APPLICATION_PROTOCOL_DEFINITION('international standard',
'automotive_design',2009,#474);
#474=APPLICATION_CONTEXT(
'Core Data for Automotive Mechanical Design Process');
#475=PRODUCT_CONTEXT('part definition',#474,'mechanical');
#476=PRODUCT('Lichtsensor','Lichtsensor',$,(#475));
#477=PRESENTATION_STYLE_ASSIGNMENT((#478));
#478=SURFACE_STYLE_USAGE(.BOTH.,#481);
#479=SURFACE_STYLE_RENDERING_WITH_PROPERTIES($,#485,(#480));
#480=SURFACE_STYLE_TRANSPARENT(0.);
#481=SURFACE_SIDE_STYLE('',(#482,#479));
#482=SURFACE_STYLE_FILL_AREA(#483);
#483=FILL_AREA_STYLE('',(#484));
#484=FILL_AREA_STYLE_COLOUR('',#485);
#485=COLOUR_RGB('',0.749019607843137,0.749019607843137,0.749019607843137);
ENDSEC;
END-ISO-10303-21;
